<svg width="32" height="32" viewBox="0 0 32 32" fill="none" xmlns="http://www.w3.org/2000/svg">
<mask id="mask0_1_8" style="mask-type:alpha" maskUnits="userSpaceOnUse" x="0" y="0" width="32" height="32">
<circle cx="16" cy="16" r="16" fill="#D9D9D9"/>
</mask>
<g mask="url(#mask0_1_8)">
<path fill-rule="evenodd" clip-rule="evenodd" d="M0 16V32H16H32V16V0H16H0V16ZM22.9002 8.52313C22.9927 8.61565 22.7819 9.008 22.4317 9.39478C21.815 10.0762 21.815 10.1123 22.4344 10.5652C23.0483 11.0143 23.0414 11.079 22.2546 12.2122C21.8042 12.8605 21.0344 13.8758 20.544 14.4682C20.0536 15.0602 19.4817 15.8383 19.273 16.1969C18.9123 16.817 18.8497 16.8198 17.9882 16.2553C17.071 15.6539 15.5252 15.7183 14.1652 16.4139C13.3162 16.848 10.087 15.0995 10.087 14.2056C10.087 13.7972 10.3388 13.5652 10.7826 13.5652C11.169 13.5652 11.4783 13.3332 11.4783 13.0435C11.4783 12.3388 11.9047 12.3864 13.3774 13.2553C14.8261 14.1099 15.0974 13.9753 16.7416 11.5854C17.4835 10.5071 18.0118 10.087 18.6254 10.087C19.0946 10.087 19.4783 9.90365 19.4783 9.67965C19.4783 8.75409 20.6623 7.94122 21.7057 8.14991C22.2703 8.26261 22.8077 8.43061 22.9002 8.52313ZM15.2918 18.305C15.7353 18.7207 15.7127 18.784 15.1179 18.7941C14.2017 18.8097 13.0424 19.8216 12.7287 20.879C12.5885 21.352 11.7569 22.3652 10.8807 23.1304L9.28765 24.5217L9.52765 23.2261C9.88452 21.297 10.7287 19.4783 11.2664 19.4783C11.6167 19.4783 11.7158 19.0202 11.6463 17.7277L11.5517 15.977L13.1673 16.9023C14.0557 17.4111 15.0118 18.0424 15.2918 18.305Z" fill="#6C4FBB"/>
</g>
</svg>
