<svg width="100" height="72" viewBox="0 0 100 72" fill="none" xmlns="http://www.w3.org/2000/svg">
<g clip-path="url(#clip0_1_1919)">
<path d="M100 0H0V71.4286H100V0Z" fill="white"/>
<path d="M100 23.8096H-1.52588e-05V47.6191H100V23.8096Z" fill="#D20000"/>
<path d="M42.8571 0H0V23.8095H42.8571V0Z" fill="#001E78"/>
<path d="M4 2L4.44903 3.38197H5.90211L4.72654 4.23607L5.17557 5.61803L4 4.76393L2.82443 5.61803L3.27346 4.23607L2.09789 3.38197H3.55097L4 2Z" fill="white"/>
<path d="M4 7L4.44903 8.38197H5.90211L4.72654 9.23607L5.17557 10.618L4 9.76393L2.82443 10.618L3.27346 9.23607L2.09789 8.38197H3.55097L4 7Z" fill="white"/>
<path d="M4 12L4.44903 13.382H5.90211L4.72654 14.2361L5.17557 15.618L4 14.7639L2.82443 15.618L3.27346 14.2361L2.09789 13.382H3.55097L4 12Z" fill="white"/>
<path d="M4 17L4.44903 18.382H5.90211L4.72654 19.2361L5.17557 20.618L4 19.7639L2.82443 20.618L3.27346 19.2361L2.09789 18.382H3.55097L4 17Z" fill="white"/>
<path d="M9 2L9.44903 3.38197H10.9021L9.72654 4.23607L10.1756 5.61803L9 4.76393L7.82443 5.61803L8.27346 4.23607L7.09789 3.38197H8.55097L9 2Z" fill="white"/>
<path d="M9 17L9.44903 18.382H10.9021L9.72654 19.2361L10.1756 20.618L9 19.7639L7.82443 20.618L8.27346 19.2361L7.09789 18.382H8.55097L9 17Z" fill="white"/>
<path d="M14 2L14.449 3.38197H15.9021L14.7265 4.23607L15.1756 5.61803L14 4.76393L12.8244 5.61803L13.2735 4.23607L12.0979 3.38197H13.551L14 2Z" fill="white"/>
<path d="M14 7L14.449 8.38197H15.9021L14.7265 9.23607L15.1756 10.618L14 9.76393L12.8244 10.618L13.2735 9.23607L12.0979 8.38197H13.551L14 7Z" fill="white"/>
<path d="M14 12L14.449 13.382H15.9021L14.7265 14.2361L15.1756 15.618L14 14.7639L12.8244 15.618L13.2735 14.2361L12.0979 13.382H13.551L14 12Z" fill="white"/>
<path d="M14 17L14.449 18.382H15.9021L14.7265 19.2361L15.1756 20.618L14 19.7639L12.8244 20.618L13.2735 19.2361L12.0979 18.382H13.551L14 17Z" fill="white"/>
<path d="M19 2L19.449 3.38197H20.9021L19.7265 4.23607L20.1756 5.61803L19 4.76393L17.8244 5.61803L18.2735 4.23607L17.0979 3.38197H18.551L19 2Z" fill="white"/>
<path d="M19 17L19.449 18.382H20.9021L19.7265 19.2361L20.1756 20.618L19 19.7639L17.8244 20.618L18.2735 19.2361L17.0979 18.382H18.551L19 17Z" fill="white"/>
<path d="M24 2L24.449 3.38197H25.9021L24.7265 4.23607L25.1756 5.61803L24 4.76393L22.8244 5.61803L23.2735 4.23607L22.0979 3.38197H23.551L24 2Z" fill="white"/>
<path d="M21 9L21.6735 11.0729H23.8532L22.0898 12.3541L22.7634 14.4271L21 13.1459L19.2366 14.4271L19.9102 12.3541L18.1468 11.0729H20.3265L21 9Z" fill="white"/>
<path d="M24 17L24.449 18.382H25.9021L24.7265 19.2361L25.1756 20.618L24 19.7639L22.8244 20.618L23.2735 19.2361L22.0979 18.382H23.551L24 17Z" fill="white"/>
<path d="M29 2L29.449 3.38197H30.9021L29.7265 4.23607L30.1756 5.61803L29 4.76393L27.8244 5.61803L28.2735 4.23607L27.0979 3.38197H28.551L29 2Z" fill="white"/>
<path d="M29 7L29.449 8.38197H30.9021L29.7265 9.23607L30.1756 10.618L29 9.76393L27.8244 10.618L28.2735 9.23607L27.0979 8.38197H28.551L29 7Z" fill="white"/>
<path d="M29 12L29.449 13.382H30.9021L29.7265 14.2361L30.1756 15.618L29 14.7639L27.8244 15.618L28.2735 14.2361L27.0979 13.382H28.551L29 12Z" fill="white"/>
<path d="M29 17L29.449 18.382H30.9021L29.7265 19.2361L30.1756 20.618L29 19.7639L27.8244 20.618L28.2735 19.2361L27.0979 18.382H28.551L29 17Z" fill="white"/>
<path d="M34 2L34.449 3.38197H35.9021L34.7265 4.23607L35.1756 5.61803L34 4.76393L32.8244 5.61803L33.2735 4.23607L32.0979 3.38197H33.551L34 2Z" fill="white"/>
<path d="M34 17L34.449 18.382H35.9021L34.7265 19.2361L35.1756 20.618L34 19.7639L32.8244 20.618L33.2735 19.2361L32.0979 18.382H33.551L34 17Z" fill="white"/>
<path d="M39 2L39.449 3.38197H40.9021L39.7265 4.23607L40.1756 5.61803L39 4.76393L37.8244 5.61803L38.2735 4.23607L37.0979 3.38197H38.551L39 2Z" fill="white"/>
<path d="M39 7L39.449 8.38197H40.9021L39.7265 9.23607L40.1756 10.618L39 9.76393L37.8244 10.618L38.2735 9.23607L37.0979 8.38197H38.551L39 7Z" fill="white"/>
<path d="M39 12L39.449 13.382H40.9021L39.7265 14.2361L40.1756 15.618L39 14.7639L37.8244 15.618L38.2735 14.2361L37.0979 13.382H38.551L39 12Z" fill="white"/>
<path d="M39 17L39.449 18.382H40.9021L39.7265 19.2361L40.1756 20.618L39 19.7639L37.8244 20.618L38.2735 19.2361L37.0979 18.382H38.551L39 17Z" fill="white"/>
</g>
<defs>
<clipPath id="clip0_1_1919">
<rect width="100" height="71.4286" fill="white"/>
</clipPath>
</defs>
</svg>
