<svg width="100" height="70" viewBox="0 0 100 70" fill="none" xmlns="http://www.w3.org/2000/svg">
<g clip-path="url(#clip0_1_1918)">
<path d="M100 0H0V70H100V0Z" fill="white"/>
<path fill-rule="evenodd" clip-rule="evenodd" d="M0 0L25 25H100V45H25L0 70V0Z" fill="#00994C"/>
<path fill-rule="evenodd" clip-rule="evenodd" d="M100 20H27.071L7.07104 0H100V20Z" fill="#002580"/>
<path fill-rule="evenodd" clip-rule="evenodd" d="M7.07104 70L27.071 50H100V70H7.07104Z" fill="#F3E718"/>
<path fill-rule="evenodd" clip-rule="evenodd" d="M0 0L25 25H100V23.3H25.7042L2.40416 0H0Z" fill="black"/>
<path fill-rule="evenodd" clip-rule="evenodd" d="M0 70L25 45H100V46.7H25.7042L2.40416 70H0Z" fill="black"/>
<path fill-rule="evenodd" clip-rule="evenodd" d="M4.6669 0L26.3669 21.7H100V20H27.0711L7.07106 0H4.6669Z" fill="black"/>
<path fill-rule="evenodd" clip-rule="evenodd" d="M4.6669 70L26.3669 48.3H100V50H27.0711L7.07106 70H4.6669Z" fill="black"/>
<path fill-rule="evenodd" clip-rule="evenodd" d="M15.2 39.8L14.6 41L16.4 43.4L18.2 41L17.6 39.8L21.2 36.2L22.4 36.8L24.8 35L22.4 33.2L21.2 33.8L17.6 30.2L18.2 29L16.4 26.6L14.6 29L15.2 30.2L11.6 33.8L10.4 33.2L8 35L10.4 36.8L11.66 36.2L15.2 39.8Z" fill="white" stroke="black" stroke-width="0.5"/>
<path fill-rule="evenodd" clip-rule="evenodd" d="M16.4 38.6L20 35L16.4 31.4L12.8 35L16.4 38.6Z" fill="#038301" stroke="black" stroke-width="0.5"/>
<path fill-rule="evenodd" clip-rule="evenodd" d="M11.6 35L10.4 34.4L9.60001 35L10.4 35.6L11.6 35Z" fill="black"/>
<path fill-rule="evenodd" clip-rule="evenodd" d="M21.2 35L22.4 34.4L23.2 35L22.4 35.6L21.2 35Z" fill="black"/>
<path fill-rule="evenodd" clip-rule="evenodd" d="M16.4 30.2L17 29L16.4 28.2L15.8 29L16.4 30.2Z" fill="black"/>
<path fill-rule="evenodd" clip-rule="evenodd" d="M16.4 39.8L17 41L16.4 41.8L15.8 41L16.4 39.8Z" fill="black"/>
</g>
<defs>
<clipPath id="clip0_1_1918">
<rect width="100" height="70" fill="white"/>
</clipPath>
</defs>
</svg>
