<svg width="100" height="70" viewBox="0 0 100 70" fill="none" xmlns="http://www.w3.org/2000/svg">
<g clip-path="url(#clip0_1_1921)">
<path d="M7.62939e-06 0H100V70H7.62939e-06V0Z" fill="#258F44"/>
<path d="M8.50005 35.0001L50 8.50006L91.5 35.0001L50 61.5001L8.50005 35.0001Z" fill="#FFF200"/>
<path d="M50 52.5C59.665 52.5 67.5 44.665 67.5 35C67.5 25.335 59.665 17.5 50 17.5C40.335 17.5 32.5 25.335 32.5 35C32.5 44.665 40.335 52.5 50 52.5Z" fill="white"/>
<path d="M55.0973 27.1053C51.7131 26.5711 48.2789 26.6079 44.8921 27.1053L44.6184 27.1711L45.7921 24.3685L45.8763 24.3632C47.2342 24.1422 48.621 23.9895 50 23.9843C51.3763 23.979 52.7342 24.129 54.0921 24.3579L54.1763 24.3737L55.3815 27.15L55.0973 27.1053Z" fill="#613A21"/>
<path d="M54.0642 26.711L53.9405 26.2208L53.9592 26.2226C54.2605 26.2547 54.561 26.2913 54.861 26.3329L54.8684 26.3339L55.09 26.845C54.7484 26.795 54.4065 26.7503 54.0642 26.711ZM54.7842 26.1897C54.0646 26.0936 53.3419 26.0225 52.6173 25.9766L52.6068 25.976L52.5287 25.5053L52.5452 25.5066C53.2315 25.5555 53.9163 25.6271 54.5973 25.7245L54.6047 25.7255L54.8073 26.1926L54.7842 26.1897ZM54.5202 25.5808C54.2686 25.5458 54.0164 25.5143 53.7639 25.486L53.7547 25.4847L53.6334 25.0037L53.6523 25.006C53.8768 25.0329 54.1008 25.0624 54.3244 25.0947L54.3318 25.0958L54.5434 25.5839L54.5202 25.5808ZM54.2471 24.9508C53.6381 24.8653 53.0266 24.7993 52.4134 24.7529L52.4029 24.7521L52.3208 24.2582L52.3379 24.26C52.9168 24.3224 53.4934 24.4047 54.0676 24.5013L54.0747 24.5024L54.2702 24.9539L54.2471 24.9508ZM52.185 24.2439L52.2679 24.7421L52.2513 24.7408C51.5321 24.69 50.811 24.6645 50.09 24.6637H50.0768V24.1297H50.09C50.7863 24.1316 51.4821 24.1726 52.175 24.2429L52.185 24.2439ZM49.945 24.13L49.9455 24.6639H49.9323C49.2034 24.6667 48.4747 24.6939 47.7476 24.7455L47.731 24.7466L47.8142 24.2487L47.8242 24.2476C48.5245 24.1752 49.2278 24.136 49.9318 24.1303L49.945 24.13ZM47.6784 24.2632L47.596 24.7568L47.5858 24.7576C46.9641 24.8046 46.344 24.8705 45.7263 24.955L45.7034 24.9584L45.8931 24.5068L45.9005 24.5055C46.485 24.4092 47.0721 24.3289 47.661 24.2647L47.6784 24.2632ZM45.6513 25.0984C45.8816 25.0661 46.1124 25.0365 46.3434 25.0095L46.3621 25.0071L46.2379 25.4995L46.2287 25.5005C45.971 25.5292 45.7137 25.561 45.4568 25.5958L45.4339 25.5989L45.6439 25.0995L45.6513 25.0984ZM45.3821 25.7389C46.0695 25.6434 46.7602 25.571 47.4523 25.52L47.4692 25.5187L47.3908 25.9892L47.3802 25.99C46.6518 26.0379 45.9251 26.1092 45.2013 26.2037L45.1784 26.2063L45.3747 25.7397L45.3821 25.7389ZM45.1268 26.346C45.4287 26.3058 45.7308 26.2695 46.0337 26.2374L46.0523 26.2355L45.926 26.74C45.5837 26.7784 45.2418 26.8216 44.9 26.8684L45.1195 26.3474L45.1268 26.346ZM46.0652 26.7245L46.1916 26.2213L46.2008 26.2203C47.0121 26.1387 47.8263 26.086 48.641 26.0579L48.656 26.0574L48.6113 26.5295C47.7607 26.5667 46.9116 26.6318 46.0652 26.7245ZM48.7442 26.5239L48.7887 26.0529L48.8002 26.0526C49.5983 26.0274 50.397 26.025 51.1952 26.0453H51.2068L51.251 26.5103C50.4155 26.4859 49.5794 26.4904 48.7442 26.5239ZM51.3837 26.5145L51.3394 26.0492L51.3544 26.0497C52.1681 26.0739 52.9818 26.1239 53.7918 26.2058L53.801 26.2066L53.9247 26.6958C53.0789 26.6029 52.2315 26.5432 51.3834 26.5145H51.3837ZM53.4937 24.9876L53.6152 25.4697L53.5965 25.4679C52.8294 25.3871 52.0596 25.3344 51.2887 25.31L51.2771 25.3095L51.236 24.8179L51.251 24.8184C51.9971 24.8468 52.7426 24.9024 53.4844 24.9868L53.4937 24.9876ZM51.1037 24.8132L51.1447 25.3053L51.13 25.305C50.4026 25.2845 49.6747 25.2866 48.9473 25.3097L48.851 25.3129L48.8923 24.8163L48.9039 24.816C49.6329 24.79 50.3629 24.7887 51.0921 24.8129L51.1037 24.8132ZM48.76 24.8213L48.7187 25.3176L48.7068 25.3182C47.935 25.347 47.1644 25.4018 46.3963 25.4824L46.3773 25.4845L46.5018 24.9913L46.511 24.9903C47.2535 24.9075 47.9987 24.8513 48.7452 24.8218L48.76 24.8213ZM47.6144 25.5082C48.3858 25.4557 49.1587 25.4273 49.9318 25.4229H49.945L49.9455 25.9008H49.9323C49.135 25.9036 48.3379 25.9298 47.5421 25.9795L47.5255 25.9805L47.6042 25.5092L47.6144 25.5082ZM50.0897 25.4226C50.8547 25.4216 51.62 25.445 52.3831 25.4955L52.3937 25.4963L52.4723 25.9682L52.4558 25.9671C51.668 25.9208 50.8791 25.8985 50.09 25.9003H50.0768V25.4226" fill="#CFA550"/>
<path d="M47.0046 23.1274V22.6534L47.147 22.6395C47.5266 22.602 47.9068 22.5708 48.2875 22.5461L48.4556 22.535L48.9596 23.0132L49.2751 23.004V22.5058L49.4312 22.504C49.8105 22.4997 50.1899 22.4991 50.5693 22.5021L50.7259 22.5034V23.0005L51.0462 23.0084L51.5454 22.535V22.53L51.7133 22.5405C52.0938 22.5648 52.4743 22.5955 52.8538 22.6326L52.9964 22.6469V23.1269L53.8156 22.7537L53.9998 22.7845C54.3812 22.8484 54.7614 22.9184 55.1406 22.9942L55.2677 23.0198V23.659L55.2496 23.6932L54.9806 24.2721L54.6591 24.5524L54.6054 24.5932L54.5388 24.5826C53.1809 24.3648 51.8159 24.2326 50.4406 24.21C48.7841 24.1826 47.1443 24.3155 45.5085 24.5729L45.4427 24.5834L45.3893 24.5432L45.0112 24.2616L44.7514 23.6916L44.7343 23.6579V23.0192L44.862 22.9942C45.2409 22.9199 45.6209 22.8515 46.002 22.789L46.1854 22.7592L47.0046 23.1274Z" fill="#613A21"/>
<path d="M46.0262 23.4258C46.4041 23.3732 46.7815 23.3258 47.1604 23.2837V22.7943C47.5394 22.7574 47.9165 22.7258 48.2957 22.7014V23.195C48.6739 23.1771 49.0517 23.1643 49.431 23.1556V22.6595C49.8089 22.6553 50.187 22.6548 50.566 22.6577V23.1529C50.9441 23.1598 51.322 23.1714 51.7012 23.1879V22.6958C52.0794 22.7195 52.4573 22.7503 52.8365 22.7877V23.2737C53.2156 23.3152 53.594 23.3631 53.9715 23.4174V22.9385C54.3513 23.0021 54.7301 23.0717 55.1078 23.1471V23.6179C55.0428 23.7416 54.9781 23.8653 54.9131 23.989H54.9078C53.2289 23.7229 51.6973 23.5679 49.9999 23.5732C48.3973 23.5785 46.6617 23.7258 45.0802 23.9785L45.0775 23.9814C45.0151 23.8607 44.9531 23.7398 44.8915 23.6187V23.1479C45.2688 23.0739 45.6473 23.0058 46.0267 22.9437L46.0262 23.4258Z" fill="#CFA550"/>
<path d="M45.4841 24.4168C45.3399 24.3089 45.2499 24.2431 45.106 24.1352C48.5107 23.5897 51.4507 23.6021 54.8852 24.1463L54.5639 24.4265C51.4665 23.9302 48.6544 23.9181 45.4839 24.4168H45.4841Z" fill="#CFA550"/>
<path d="M53.2936 23.1695L53.8155 22.9384V23.2377C53.6418 23.2137 53.4679 23.1908 53.2936 23.1695ZM46.1852 22.9384V23.2445C46.3639 23.2203 46.5426 23.1974 46.7218 23.1761L46.1852 22.9384ZM48.7555 23.02L48.4555 22.7311V23.0319C48.5555 23.0277 48.6555 23.0234 48.7555 23.0198V23.02ZM51.251 23.0145L51.5452 22.7311V23.0253C51.4471 23.0213 51.3492 23.0177 51.251 23.0145Z" fill="#DCC89C"/>
<path d="M49.0795 26.4253C49.0995 26.2339 49.1145 26.0437 49.1474 25.8537C49.2308 25.3721 49.4347 24.8905 50.0013 24.8905C50.194 24.8905 50.3716 24.9458 50.5158 25.0763C50.8579 25.3858 50.8787 25.9921 50.9232 26.4211L50.9384 26.5684L49.0637 26.5737L49.0795 26.4253Z" fill="#613A21"/>
<path d="M49.3889 26.4358C49.427 26.0105 49.4281 25.1963 49.9968 25.1963C50.5818 25.1963 50.5828 25.9981 50.6252 26.4329L50.7923 26.4347C50.736 25.8926 50.7178 25.0221 50.0013 25.0221C49.3007 25.0221 49.2663 25.9063 49.2102 26.4389L49.3892 26.4358H49.3889Z" fill="#E7CF9C"/>
<path d="M47.6959 26.2824C47.5485 26.2966 47.4007 26.2995 47.2533 26.3119L46.8591 26.3445L46.8946 25.9503C46.923 25.6376 46.9743 25.3274 47.0025 25.0148L47.0099 24.9321L47.0554 24.8626C47.2001 24.6413 47.4633 24.4869 47.7317 24.559C47.8972 24.6032 48.0214 24.7232 48.0888 24.8787L48.1246 24.9616L48.1135 25.0513C48.0749 25.3653 48.0333 25.679 47.9941 25.9926L47.9609 26.2569L47.6959 26.2824Z" fill="#613A21"/>
<path d="M47.6798 26.1168C47.5337 26.1311 47.3861 26.134 47.2395 26.1458L47.0421 26.1624L47.06 25.965C47.0885 25.6524 47.1398 25.3426 47.1679 25.0297L47.1719 24.9884L47.1945 24.9537C47.2995 24.7932 47.4903 24.6663 47.6887 24.7195C47.8045 24.7508 47.889 24.8361 47.9361 24.9447L47.954 24.9861L47.9484 25.0311C47.9098 25.3447 47.8682 25.6582 47.829 25.9718L47.8124 26.104L47.6798 26.1168Z" fill="#E7CF9C"/>
<path d="M47.6637 25.9514C47.7069 25.6082 47.7408 25.354 47.7832 25.0109C47.6964 24.8095 47.469 24.8377 47.3337 25.0451C47.3021 25.3932 47.2574 25.6319 47.2258 25.9803C47.4029 25.9656 47.5272 25.9645 47.6637 25.9514Z" fill="#613A21"/>
<path d="M52.217 26.2824C52.3644 26.2966 52.5123 26.2995 52.6597 26.3119L53.0541 26.3445L53.0184 25.9503C52.9902 25.6376 52.9389 25.3274 52.9105 25.0148L52.9031 24.9321L52.8576 24.8626C52.7128 24.6413 52.4497 24.4869 52.1813 24.559C52.0157 24.6032 51.8915 24.7232 51.8242 24.8787L51.7884 24.9616L51.7994 25.0513C51.8381 25.3653 51.8797 25.679 51.9192 25.9926L51.952 26.2569L52.217 26.2824Z" fill="#613A21"/>
<path d="M52.2329 26.1168C52.3792 26.1311 52.5265 26.134 52.6731 26.1458L52.8705 26.1624L52.8526 25.965C52.8244 25.6524 52.7731 25.3426 52.7447 25.0297L52.7413 24.9884L52.7186 24.9537C52.6134 24.7932 52.4229 24.6663 52.2244 24.7195C52.1084 24.7508 52.0239 24.8361 51.9771 24.9447L51.9589 24.9861L51.9647 25.0311C52.0034 25.3447 52.0447 25.6582 52.0842 25.9718L52.1008 26.104L52.2331 26.1171L52.2329 26.1168Z" fill="#E7CF9C"/>
<path d="M52.2491 25.9514C52.206 25.6082 52.172 25.354 52.1297 25.0109C52.2165 24.8095 52.4439 24.8377 52.5791 25.0451C52.6107 25.3932 52.6554 25.6319 52.687 25.9803C52.5102 25.9656 52.3857 25.9645 52.2491 25.9514Z" fill="#613A21"/>
<path d="M49.8623 47.2337C49.5249 46.5797 48.7096 46.0221 48.0978 45.6439C47.1794 45.0763 46.1946 44.5926 45.2433 44.0808C44.3286 43.5887 43.3846 43.0566 42.5723 42.4076C41.8744 41.8505 41.2118 41.1503 40.9454 40.2792C40.8632 40.0112 40.8215 39.7324 40.8215 39.4521C40.8215 38.1434 41.276 36.9679 41.7636 35.7771C42.127 34.8895 42.6462 33.7561 42.5381 32.7803C42.4275 31.7863 41.7336 31.1034 40.9315 30.5855L40.7894 30.4934L43.4696 27.0426L43.5283 27.0324C47.8236 26.3003 52.1854 26.205 56.4749 27.0332L56.5315 27.044L59.2104 30.4934L59.0683 30.5855C58.2662 31.1034 57.5723 31.7863 57.462 32.7803C57.3536 33.7558 57.8728 34.8895 58.2362 35.7771C58.7238 36.9682 59.1783 38.1434 59.1783 39.4521C59.1785 39.7324 59.1368 40.0112 59.0546 40.2792C58.7881 41.1503 58.1257 41.8505 57.4278 42.4076C56.6154 43.0566 55.6712 43.589 54.7567 44.0808C53.8052 44.5926 52.8204 45.0763 51.902 45.6439C51.2899 46.0221 50.4749 46.5797 50.1375 47.2334L49.9999 47.5L49.8625 47.2337H49.8623Z" fill="#231F20"/>
<path d="M49.9999 47.1632C48.7105 44.6632 40.9763 43.1982 40.9763 39.4522C40.9763 35.7061 44.8831 32.9535 41.0157 30.4561L43.5544 27.1843C48.1068 26.4079 52.3986 26.4032 56.4455 27.1843L58.9841 30.4558C55.1168 32.9532 59.0236 35.7058 59.0236 39.4519C59.0236 43.1982 51.2894 44.6659 49.9999 47.1632Z" fill="#F5F5F5"/>
<path d="M49.892 46.0245C49.4799 45.6237 48.993 45.2898 48.5052 44.9884C47.5691 44.41 46.5791 43.9232 45.6104 43.4021C44.3249 42.7108 42.1357 41.5271 41.6851 40.0542C41.6253 39.8591 41.5949 39.6562 41.5949 39.4521C41.5949 38.2621 42.0357 37.1529 42.4796 36.0684C42.9073 35.0248 43.4217 33.8479 43.2936 32.6953C43.1894 31.7561 42.6859 31.0232 41.9767 30.4255L41.8628 30.3295L43.893 27.7532L43.9525 27.7434C47.9617 27.0882 52.0394 27.0032 56.0446 27.7369L56.1023 27.7474L58.1373 30.3295L58.0231 30.4255C57.3138 31.0232 56.8107 31.7561 56.7062 32.6953C56.5783 33.8479 57.0928 35.0248 57.5202 36.0684C57.9641 37.1526 58.4049 38.2621 58.4049 39.4521C58.4049 41.2769 55.7844 42.6521 54.3894 43.4021C53.4209 43.9232 52.4307 44.41 51.4946 44.9884C51.0067 45.2898 50.5199 45.6237 50.1078 46.0245L49.9999 46.1298L49.892 46.0245Z" fill="#231F20"/>
<path d="M50 45.9142C50.4266 45.499 50.9398 45.1498 51.4132 44.8574C52.3484 44.2795 53.3474 43.7874 54.3158 43.2664C55.6245 42.5627 58.2503 41.1956 58.2503 39.4521C58.2503 38.2856 57.8121 37.1895 57.3768 36.1266C56.9374 35.0535 56.4211 33.8627 56.5526 32.6784C56.6632 31.6819 57.2003 30.9169 57.9234 30.3077L56.0169 27.8884C52.0263 27.1574 47.9732 27.2424 43.9774 27.8956L42.0766 30.3077C42.7995 30.9169 43.3366 31.6819 43.4474 32.6784C43.579 33.8627 43.0624 35.0535 42.6229 36.1266C42.1877 37.1895 41.7495 38.2856 41.7495 39.4521C41.7495 39.6416 41.7777 39.8279 41.8332 40.0092C42.2674 41.429 44.4595 42.6079 45.684 43.2664C46.6524 43.7874 47.6516 44.2795 48.5869 44.8574C49.06 45.1498 49.5734 45.499 50 45.9142Z" fill="#258F44"/>
<path d="M56.4474 42.1053L43.1579 28.8159L56.4474 42.1053Z" fill="black"/>
<path d="M56.4474 42.1053L43.1579 28.8159" stroke="#231F20" stroke-width="1.51579"/>
<path d="M50 42.2369C52.9068 42.2369 55.2632 39.2914 55.2632 35.6579C55.2632 32.0245 52.9068 29.079 50 29.079C47.0933 29.079 44.7369 32.0245 44.7369 35.6579C44.7369 39.2914 47.0933 42.2369 50 42.2369Z" fill="#231F20"/>
<path d="M55 35.5263H45V29.0789H55V35.5263Z" fill="#80D6F7"/>
<path d="M47.8157 35.6579L40.0728 34.1179L47.8157 35.6579ZM47.8157 35.6579L40.5221 32.6368L47.8157 35.6579ZM47.8157 35.6579L41.2515 31.2718L47.8157 35.6579ZM47.8157 35.6579L42.2334 30.0755L47.8157 35.6579ZM47.8157 35.6579L43.4297 29.0936L47.8157 35.6579ZM47.8157 35.6579L44.7947 28.3642L47.8157 35.6579ZM47.8157 35.6579L46.2757 27.915L47.8157 35.6579ZM47.8157 35.6579V27.7631V35.6579ZM47.8157 35.6579L49.3557 27.915L47.8157 35.6579ZM47.8157 35.6579L50.8368 28.3642L47.8157 35.6579ZM47.8157 35.6579L52.2018 29.0936L47.8157 35.6579ZM47.8157 35.6579L53.3981 30.0755L47.8157 35.6579ZM47.8157 35.6579L54.38 31.2718L47.8157 35.6579ZM47.8157 35.6579L55.1094 32.6368L47.8157 35.6579ZM47.8157 35.6579L55.5586 34.1179L47.8157 35.6579ZM46.0394 35.6579C46.0394 35.1868 46.2266 34.7349 46.5597 34.4018C46.8928 34.0687 47.3446 33.8815 47.8157 33.8815C48.2869 33.8815 48.7387 34.0687 49.0718 34.4018C49.4049 34.7349 49.5921 35.1868 49.5921 35.6579" fill="black"/>
<path d="M46.0394 35.6579C46.0394 35.1868 46.2266 34.7349 46.5597 34.4018C46.8928 34.0687 47.3446 33.8815 47.8157 33.8815C48.2869 33.8815 48.7387 34.0687 49.0718 34.4018C49.4049 34.7349 49.5921 35.1868 49.5921 35.6579M47.8157 35.6579L40.0728 34.1179L47.8157 35.6579ZM47.8157 35.6579L40.5221 32.6368L47.8157 35.6579ZM47.8157 35.6579L41.2515 31.2718L47.8157 35.6579ZM47.8157 35.6579L42.2334 30.0755L47.8157 35.6579ZM47.8157 35.6579L43.4297 29.0936L47.8157 35.6579ZM47.8157 35.6579L44.7947 28.3642L47.8157 35.6579ZM47.8157 35.6579L46.2757 27.915L47.8157 35.6579ZM47.8157 35.6579V27.7631V35.6579ZM47.8157 35.6579L49.3557 27.915L47.8157 35.6579ZM47.8157 35.6579L50.8368 28.3642L47.8157 35.6579ZM47.8157 35.6579L52.2018 29.0936L47.8157 35.6579ZM47.8157 35.6579L53.3981 30.0755L47.8157 35.6579ZM47.8157 35.6579L54.38 31.2718L47.8157 35.6579ZM47.8157 35.6579L55.1094 32.6368L47.8157 35.6579ZM47.8157 35.6579L55.5586 34.1179L47.8157 35.6579Z" stroke="#B49700" stroke-width="0.947368"/>
<path d="M46.1052 35.6578C46.1052 35.2042 46.2854 34.7691 46.6062 34.4483C46.927 34.1275 47.362 33.9473 47.8157 33.9473C48.2694 33.9473 48.7044 34.1275 49.0252 34.4483C49.346 34.7691 49.5262 35.2042 49.5262 35.6578H46.1052Z" fill="#FBC707"/>
<path d="M48.7104 36.6316C48.6133 36.9937 48.7678 37.4263 48.9115 37.7563C49.122 38.239 49.3957 38.7016 49.6307 39.1737C50.0604 40.0413 50.4315 41.0395 49.9946 41.9711H53.6367V40.1382C52.5483 39.574 51.0415 39.4537 50.1999 38.5624C49.3449 37.6579 49.2207 36.6087 49.7157 35.7955C49.3118 35.9366 48.8262 36.2034 48.7104 36.6316Z" fill="#FCD7A8"/>
<path d="M52.5183 34.129C53.2235 34.0538 53.1183 32.6185 54.3735 32.6053H54.9946L54.9998 35.658H49.7893C49.8946 35.3475 50.163 34.9527 50.3657 34.6975C50.5288 34.4922 50.7183 34.2869 50.9262 34.129C51.0841 34.008 51.3051 33.8738 51.513 33.908C51.6551 33.9317 51.7999 33.9685 51.9393 34.0053C52.063 34.0369 52.3999 34.1414 52.5183 34.129Z" fill="#231F20"/>
<path d="M52.5332 34.2589C52.3403 34.2794 51.8258 34.0905 51.4924 34.0365C51.0358 33.9631 50.1387 35.0736 49.9439 35.656L55 35.6578V32.7368H54.3684C53.19 32.7492 53.3468 34.172 52.5332 34.2589Z" fill="#2A723F"/>
<path d="M54.9999 35.6579H51.871L52.2583 35.44C52.6052 35.2223 52.8639 34.9637 53.1399 34.6665C53.3189 34.4739 53.5483 34.206 53.8183 34.1544C53.8749 34.1436 53.9318 34.1418 53.9889 34.1486C54.1378 34.1663 54.2876 34.196 54.4347 34.225C54.5623 34.2502 54.6899 34.2768 54.8181 34.2981L54.9999 34.3289V35.6579Z" fill="#231F20"/>
<path d="M54.8994 34.4434C54.6426 34.4097 54.2499 34.3118 53.9736 34.2789C53.4889 34.221 52.921 35.3841 52.0526 35.6578H54.9999V34.4605L54.8999 34.4447L54.8994 34.4434Z" fill="#2A723F"/>
<path d="M49.9473 35.6579C49.4894 36.379 49.2631 37.379 50.2952 38.4737C51.1139 39.3408 52.6136 39.4569 53.7163 40.0343H55V35.6579H49.9473Z" fill="#CD7F4B"/>
<path d="M49.7895 35.6579C46.4684 36.7106 51.079 39.5632 49.8684 41.9711L45 41.9737V35.6579H49.7895Z" fill="#54A7AA"/>
<path d="M46.9159 39.3107C46.3699 38.1965 46.3717 37.107 47.5375 36.4491L47.9454 36.2186L47.717 36.6278C47.6315 36.7809 47.5825 36.9462 47.6004 37.1228C47.6546 37.6591 48.3572 38.2075 48.7488 38.5178L48.9696 38.6925L48.6938 38.7499C48.1517 38.8623 47.5659 39.0341 47.1107 39.3599L46.9844 39.4501L46.9159 39.3107Z" fill="#231F20"/>
<path d="M47.0341 39.2526C46.4038 37.9666 46.6791 37.0847 47.602 36.5637C47.182 37.316 47.7817 37.9195 48.6673 38.621C48.0417 38.7508 47.4741 38.9384 47.0341 39.2526Z" fill="white"/>
<path d="M48.4544 39.2809H48.1673C48.1686 39.2757 48.1694 39.2699 48.1694 39.2644V39.1065C48.1693 39.0888 48.1623 39.0718 48.1497 39.0594C48.1372 39.0469 48.1202 39.0399 48.1026 39.0399H47.9441C47.9265 39.04 47.9096 39.047 47.8971 39.0595C47.8847 39.0719 47.8776 39.0888 47.8776 39.1065V39.2644C47.8776 39.2699 47.8783 39.2754 47.8797 39.2809H46.7344V39.1809H46.5107V39.2809H46.2597C46.1944 39.3323 46.1944 39.3959 46.2597 39.472C46.9649 39.5901 47.6965 39.5899 48.4544 39.472C48.5194 39.4083 48.5194 39.3446 48.4544 39.2809Z" fill="#231F20"/>
<path d="M55.1316 35.5921H44.7369H55.1316Z" fill="black"/>
<path d="M55.1316 35.5921H44.7369" stroke="#231F20" stroke-width="0.947368"/>
<path d="M48.1447 32.2895V32.5H47.4868V32.2895H48.1447Z" fill="#FBC707"/>
<path d="M47.8159 32C47.9467 32 48.0527 31.8939 48.0527 31.7631C48.0527 31.6323 47.9467 31.5263 47.8159 31.5263C47.685 31.5263 47.579 31.6323 47.579 31.7631C47.579 31.8939 47.685 32 47.8159 32Z" fill="#231F20"/>
<path d="M47.8159 31.8685C47.8741 31.8685 47.9212 31.8214 47.9212 31.7632C47.9212 31.7051 47.8741 31.658 47.8159 31.658C47.7578 31.658 47.7107 31.7051 47.7107 31.7632C47.7107 31.8214 47.7578 31.8685 47.8159 31.8685Z" fill="white"/>
<path d="M47.5526 32.8026H48.0789L48.1842 34.4868H47.4473L47.5526 32.8026Z" fill="white" stroke="#231F20" stroke-width="0.947368"/>
<path d="M48.2764 32.5395V32.9342H47.3554V32.5395H48.2764Z" fill="white" stroke="#231F20" stroke-width="0.947368"/>
<path d="M48.6842 35.658H46.9474V33.2369H48.6842V35.658Z" fill="#231F20"/>
<path d="M47.2896 33.3683V33.5868H47.5001V33.3683H47.7107V33.5868H47.9212V33.3683H48.1317V33.5868H48.3422V33.3683H48.5528V35.5262H47.0791V33.3683H47.2896Z" fill="white"/>
<path d="M48.0001 35.0525V35.5525H47.6317V35.0525C47.6317 34.9209 47.7106 34.842 47.8159 34.842C47.9211 34.842 48.0001 34.9209 48.0001 35.0525Z" fill="#231F20"/>
<path d="M47.6317 34.4474V34.0789H48.0001V34.4474H47.6317Z" fill="#231F20"/>
<path d="M48.6054 33.8158V33.9474H47.0264V33.8158H48.6054Z" fill="#231F20"/>
<path d="M48.6054 34.5789V34.7104H47.0264V34.5789H48.6054Z" fill="#231F20"/>
<path d="M47.8159 31.7631C48.0791 31.7631 48.2896 31.921 48.2896 32.1578V32.3157H47.3422V32.1578C47.3422 31.921 47.5791 31.7631 47.8159 31.7631Z" fill="#231F20"/>
<path d="M47.8158 31.8947C48 31.8947 48.1579 32.0263 48.1579 32.1579V32.1842H47.4737V32.1579C47.4737 32.0263 47.6316 31.8947 47.8158 31.8947Z" fill="white"/>
<path d="M47.5789 32.5H47.4473V32.2895H47.5789V32.5Z" fill="#231F20"/>
<path d="M47.8816 32.5H47.75V32.2895H47.8816V32.5Z" fill="#231F20"/>
<path d="M48.1841 32.5H48.0526V32.2895H48.1841V32.5Z" fill="#231F20"/>
<path d="M50.2486 31.34C50.6958 31.3313 51.1373 31.3729 51.56 31.5276C51.9223 31.6603 52.2389 31.8645 52.5184 32.1303L52.7231 32.3245L51.76 32.434L51.7147 32.3829C51.2979 31.9145 50.7697 31.8329 50.2008 31.6666C50.1018 31.6379 49.9118 31.6113 49.9318 31.464C49.9523 31.3166 50.1455 31.3421 50.2486 31.34Z" fill="#231F20"/>
<path d="M50.2513 31.4716C50.6845 31.4631 51.1084 31.5026 51.5147 31.651C51.8308 31.7668 52.1366 31.9487 52.4279 32.2255L51.8132 32.2952C51.3676 31.7947 50.811 31.7079 50.2376 31.5402C49.9971 31.4702 50.0068 31.4763 50.2513 31.4718V31.4716Z" fill="white"/>
<path d="M53.1842 31.7622C53.2261 31.7879 53.2615 31.8229 53.2877 31.8645C53.3139 31.9062 53.3302 31.9533 53.3352 32.0022C53.4063 32.1048 53.4089 32.2748 53.295 32.349C53.1089 32.4698 52.9144 32.4824 52.7247 32.5424C52.8194 32.8443 52.9779 33.138 52.9676 33.4617C52.9656 33.5243 52.9602 33.5867 52.9513 33.6488C52.8886 34.0988 52.6681 34.4953 52.5907 34.9317C52.5752 35.0182 52.5915 35.1917 52.4476 35.1967C52.3015 35.2017 52.3076 35.0295 52.2923 34.9435C52.2381 34.6372 52.2155 34.3172 52.1813 34.0074C52.1497 33.719 52.0892 33.1598 51.9276 32.9043C51.8201 32.8389 51.706 32.7851 51.5871 32.744L51.5839 32.7432L51.5813 32.7419C51.5034 32.7103 51.3971 32.6967 51.3105 32.6888C51.2263 32.7098 51.1263 32.7211 51.0431 32.744L50.8431 32.7993L50.8784 32.5951C50.8971 32.4983 50.9276 32.4042 50.9692 32.3148C51.0465 32.139 51.1844 32.0188 51.3823 32.0338L51.986 31.908L52.0042 31.909C52.1105 31.9167 52.2244 31.888 52.3242 31.8535C52.4352 31.8151 52.5415 31.7645 52.6479 31.714C52.7284 31.6753 52.8326 31.6216 52.92 31.6048C53.0268 31.5838 53.1415 31.6635 53.1839 31.7622H53.1842Z" fill="#231F20"/>
<path d="M51.9952 32.0403C52.3539 32.0653 52.7741 31.7672 52.9452 31.734C53.0031 31.7227 53.1068 31.8201 53.0562 31.8693C53.0231 31.9009 52.8289 31.9735 52.7736 32.0027C52.7373 32.0219 53.0476 31.8585 53.0886 31.8648C53.1755 31.878 53.2291 32.0214 53.1905 32.0517C53.1905 32.0517 52.9141 32.1269 52.8307 32.1651C52.7541 32.2001 53.061 32.0577 53.1905 32.0517C53.237 32.0493 53.2894 32.1959 53.2236 32.2385C53.0289 32.3651 52.771 32.3706 52.5657 32.4622C52.6436 32.7759 52.8465 33.1335 52.8365 33.4575C52.8207 33.963 52.5455 34.4359 52.4613 34.9088C52.4284 35.0938 52.4599 35.1351 52.4223 34.9206C52.3131 34.3038 52.3065 33.2138 52.0218 32.808C51.8991 32.7304 51.7679 32.6674 51.6307 32.6201C51.5549 32.5893 51.4444 32.568 51.2994 32.5556C51.221 32.5775 51.0734 32.6088 50.9949 32.6306C51.0202 32.4835 51.1136 32.1319 51.3897 32.1667L51.9952 32.0403Z" fill="white"/>
<path d="M51.3624 32.4053C51.3961 32.4079 51.425 32.3816 51.4274 32.3466C51.4288 32.3301 51.4238 32.3138 51.4133 32.301C51.4028 32.2882 51.3878 32.28 51.3713 32.2782C51.3382 32.2756 51.309 32.3019 51.3066 32.3371C51.3051 32.3536 51.3101 32.3699 51.3206 32.3827C51.331 32.3955 51.346 32.4037 51.3624 32.4056V32.4053Z" fill="#231F20"/>
<path d="M52.3815 33.308L52.4828 33.2764L52.7513 34.1975L52.667 34.2843L52.3815 33.308Z" fill="#231F20"/>
<path d="M52.5079 33.129L52.6 33.0817L52.8763 33.6659L52.8236 33.7896L52.5079 33.129Z" fill="#231F20"/>
<path d="M53.0816 31.8L53.1868 31.8658L52.75 32.0711L52.7026 31.979L53.0816 31.8Z" fill="#231F20"/>
<path d="M53.2342 32.0237L53.2815 32.121L52.8052 32.2342L52.7842 32.1289L53.2342 32.0237Z" fill="#231F20"/>
<path d="M51.8165 38.201C51.8681 37.9944 51.9204 37.8255 52.0191 37.6531L51.7757 37.8965L51.7012 37.8221L51.8954 37.6279C51.7518 37.7145 51.6253 37.8268 51.5223 37.9592L51.5162 37.9873L51.517 38.0218L51.5625 38.4844L51.7907 38.2436L51.8078 38.2252L51.8162 38.2026L51.8167 38.201H51.8165ZM52.4515 37.8726C52.457 38.0776 52.4633 38.2821 52.4699 38.4871L52.5652 38.2658V38.2526L52.5604 38.2452C52.5246 38.111 52.4952 37.9892 52.4515 37.8726ZM52.4778 38.7344C52.497 39.3181 52.5175 39.9018 52.5294 40.4857L52.5315 40.5931H51.9288L51.9915 38.7105L51.9083 38.5176L51.9125 38.8202L51.8073 38.8213L51.8036 38.5336L51.7012 38.8052L51.6028 38.7681L51.7112 38.4802L51.5081 38.6947L51.4317 38.6221L51.4665 38.5852L51.436 38.2747L51.356 38.5773L51.2541 38.5502L51.3323 38.2555L51.1602 38.5034L51.0736 38.4434L51.2654 38.1676L51.0007 38.3379L50.9436 38.2492L51.1923 38.0894L51.1083 38.1068L51.0781 38.1605L51.0168 38.126L50.9041 38.1497L50.8825 38.0465L50.9128 38.0402L50.8496 37.9797L51.1049 37.7126L50.7925 37.8952L50.7394 37.8044L51.0823 37.6042L50.6989 37.6902L50.6757 37.5876L50.9915 37.5165L50.6683 37.5052L50.6718 37.4L51.0323 37.4126L50.6862 37.2994L50.7189 37.1994L51.0625 37.3115L50.8812 37.1889L50.8536 37.1934L50.8496 37.1673L50.7578 37.1052L50.817 37.0181L50.9065 37.0786L51.1362 37.0421L50.8023 37.0055L50.8139 36.9008L51.1923 36.9423L50.8507 36.7939L50.8928 36.6973L51.2368 36.8471L50.9528 36.6015L51.0218 36.5218L51.3039 36.766L51.1025 36.4423L51.1791 36.395L51.1996 36.345L51.3075 36.3892L51.2962 36.346L51.3404 36.3342L51.2541 36.2702L51.3167 36.1858L51.6454 36.4292L51.402 36.1118L51.4857 36.0479L51.751 36.3939L51.6052 35.9886L51.7041 35.9531L51.827 36.2942L51.7952 35.9336L51.8999 35.9244L51.9352 36.3218L52.0133 35.9265L52.1165 35.9471L52.0391 36.3392L52.1549 36.1139L52.117 36.0397L52.2104 35.9915L52.2144 35.9989L52.226 35.9765L52.3194 36.025L52.2736 36.1139L52.3973 36.3539L52.3199 35.9618L52.4231 35.9415L52.5012 36.3371L52.5365 35.9392L52.6412 35.9486L52.6096 36.3092L52.7323 35.9681L52.8312 36.0036L52.6854 36.4089L52.9507 36.0629L53.0344 36.1268L52.7909 36.4442L53.1196 36.2008L53.1823 36.2852L53.1136 36.3363L53.1504 36.346L53.1362 36.4013L53.2367 36.36L53.2507 36.3934L53.2549 36.3868L53.3444 36.4423L53.143 36.766L53.4252 36.5218L53.4941 36.6015L53.2104 36.8471L53.5546 36.6973L53.5967 36.7939L53.2546 36.9423L53.6336 36.9008L53.6449 37.0055L53.3109 37.0423L53.5678 37.0829L53.6636 37.0181L53.7225 37.1052L53.5933 37.1929V37.1936H53.5923L53.4175 37.3121L53.7609 37.1994L53.7938 37.2994L53.4475 37.4126L53.808 37.4002L53.8117 37.5055L53.488 37.5168L53.8044 37.5879L53.7812 37.6905L53.3978 37.6044L53.7407 37.8044L53.6875 37.8955L53.3749 37.7129L53.6301 37.98L53.567 38.0405L53.5973 38.0468L53.5757 38.1497L53.4633 38.1263L53.402 38.1608L53.3717 38.1071L53.2875 38.0897L53.5362 38.2494L53.4794 38.3381L53.2146 38.1679L53.4062 38.4436L53.3199 38.5036L53.1478 38.256L53.2259 38.5505L53.1241 38.5773L53.0438 38.2752L53.0136 38.5858L53.0483 38.6226L52.972 38.695L52.7686 38.4805L52.8773 38.7684L52.7788 38.8052L52.6762 38.5342L52.6728 38.8215L52.5675 38.8202L52.5715 38.5179L52.4783 38.7344H52.4778ZM51.9999 38.4639L52.0188 37.8971C51.9801 37.9992 51.948 38.1037 51.9228 38.21C51.9202 38.2213 51.9173 38.2323 51.9133 38.2434L51.9146 38.2658L51.9999 38.4639ZM52.8867 37.1C52.7841 37.1408 52.6849 37.1898 52.5902 37.2465L52.9252 37.1892L52.943 37.2929L52.6578 37.3415C52.7936 37.346 52.9283 37.3673 53.0565 37.4102L53.0699 37.4142L53.0849 37.4097L53.4399 37.1692L52.9536 37.0921L52.9146 37.0868L52.8867 37.1ZM52.4099 37.2421C52.5481 37.1358 52.7183 37.0534 52.8581 36.9981L52.8736 36.99L52.8762 36.9731L52.9802 36.5784L52.5812 36.7415L52.5581 36.7513L52.542 36.7729C52.4703 36.8834 52.4127 37.0023 52.3704 37.1271L52.6604 36.7929L52.7399 36.8621L52.4099 37.2421ZM52.9586 37.9547C52.8478 37.8088 52.7066 37.6888 52.5446 37.6031L52.7652 37.8321L52.6894 37.905L52.492 37.7002C52.5675 37.8529 52.6062 38.0086 52.6541 38.1884L52.6644 38.2265L52.6891 38.2436L52.9173 38.4844L52.9628 38.0218L52.9673 37.9855L52.9588 37.9547H52.9586ZM52.2902 37.0384C52.3321 36.9273 52.3856 36.8211 52.4499 36.7213L52.4552 36.7089L52.4538 36.6939L52.2144 36.2286L51.9823 36.6786L51.9867 36.706C52.0715 36.8347 52.1384 36.9743 52.1854 37.121V36.6552H52.2907V37.0381L52.2902 37.0384ZM53.017 37.5081C52.9057 37.4723 52.7899 37.452 52.6731 37.4476L52.9254 37.5302L52.8925 37.6302L52.6836 37.5618C52.8363 37.6587 52.9687 37.7846 53.073 37.9323L53.0767 37.9376L53.077 37.9381L53.3025 37.9855L53.0525 37.5418L53.0396 37.5194L53.0167 37.5081H53.017ZM53.0138 36.451L53.0275 36.4L52.8899 36.5018L53.0138 36.451ZM53.1023 36.5286L53.0549 36.7076L53.1883 36.4936L53.1023 36.5286ZM51.8946 36.7576L51.8802 36.7384L51.8552 36.7268L51.4633 36.5663L51.5707 36.9731L51.5886 36.9981C51.7452 37.06 51.9394 37.1552 52.0841 37.2805L52.0878 37.2813L51.7089 36.8902L51.7844 36.8168L52.071 37.1134C52.0273 36.9879 51.9681 36.8685 51.8946 36.7579V36.7576ZM51.5491 37.0947L51.5225 37.0865L51.4931 37.0921L51.0339 37.165L51.3946 37.4097L51.4096 37.4129L51.4236 37.411C51.5511 37.3704 51.6835 37.3471 51.8173 37.3418L51.5317 37.2929L51.5496 37.1892L51.8449 37.2397L51.5491 37.0947ZM51.7991 37.5636L51.5852 37.636L51.5515 37.536L51.8152 37.4473C51.6952 37.4531 51.5762 37.4731 51.4631 37.5089L51.4431 37.521L51.4267 37.5418L51.1768 37.9852L51.4031 37.9379L51.4115 37.9273L51.4225 37.9158C51.5268 37.7776 51.6541 37.6585 51.7989 37.5636H51.7991ZM51.151 37.8173L50.9439 38.0342L51.0404 38.0139L51.151 37.8173ZM51.3415 36.5165L51.2496 36.4792L51.3917 36.7076L51.3415 36.5165ZM51.4299 36.4389L51.5467 36.4868L51.417 36.3908L51.4299 36.4389ZM53.4399 38.0139L53.5365 38.0342L53.3294 37.8173L53.4399 38.0139Z" fill="#231F20"/>
<path d="M52.1399 37.4292L52.0373 40.4877H52.4241C52.4031 39.4516 52.3568 38.4655 52.336 37.4292C52.2604 37.3261 52.1975 37.349 52.1399 37.4292Z" fill="#231F20"/>
<path d="M52.14 37.4292L52.1352 37.5766L52.3428 37.7329L52.3389 37.5653L52.1468 37.4206L52.14 37.4292ZM52.0434 40.3135L52.0381 40.4742L52.056 40.4877H52.2744L52.0434 40.3135ZM52.0539 39.9916L52.0486 40.1521L52.4231 40.4342L52.4192 40.2669L52.0539 39.9916ZM52.065 39.6695L52.0597 39.8303L52.415 40.0982L52.4105 39.93L52.065 39.6695ZM52.0757 39.3477L52.0705 39.5082L52.4057 39.7608L52.4005 39.5924L52.0757 39.3477ZM52.0863 39.0256L52.081 39.1863L52.3952 39.4232L52.39 39.2542L52.0863 39.0256ZM52.0973 38.7037L52.0921 38.8642L52.3842 39.0848L52.3786 38.9156L52.0973 38.7037ZM52.1081 38.3816L52.1029 38.5424L52.3728 38.7461L52.3676 38.5771L52.1081 38.3816ZM52.1189 38.0598L52.1136 38.2203L52.3621 38.4077L52.3568 38.239L52.1189 38.0598ZM52.1297 37.7379L52.1244 37.8985L52.3518 38.0698L52.3471 37.9014L52.1297 37.7379Z" fill="#A4835B"/>
<path d="M44.3421 31.1476L44.7752 32.4808L43.6413 31.6571H45.0428L43.9089 32.4808L44.3421 31.1476Z" fill="white"/>
<path d="M43.8946 34.595L44.3278 35.9282L43.1938 35.1045H44.5954L43.4614 35.9282L43.8946 34.595Z" fill="white"/>
<path d="M43.342 37.7003L43.7752 39.0334L42.6412 38.2097H44.0428L42.9089 39.0334L43.342 37.7003Z" fill="white"/>
<path d="M44.4211 40.1739L44.8542 41.5071L43.7203 40.6834H45.1219L43.9879 41.5071L44.4211 40.1739Z" fill="white"/>
<path d="M47.1052 41.9633L47.5383 43.2965L46.4044 42.4728H47.806L46.672 43.2965L47.1052 41.9633Z" fill="white"/>
<path d="M50 43.0951L50.4331 44.4282L49.2992 43.6045H50.7008L49.5668 44.4282L50 43.0951Z" fill="white"/>
<path d="M52.8948 41.9633L53.328 43.2965L52.194 42.4728H53.5956L52.4616 43.2965L52.8948 41.9633Z" fill="white"/>
</g>
<defs>
<clipPath id="clip0_1_1921">
<rect width="100" height="70" fill="white"/>
</clipPath>
</defs>
</svg>
