<svg width="100" height="70" viewBox="0 0 100 70" fill="none" xmlns="http://www.w3.org/2000/svg">
<g clip-path="url(#clip0_1_1922)">
<path d="M100 0H0V70H100V0Z" fill="white"/>
<path d="M67.3333 17.6666H32.6667V52.3333H67.3333V17.6666Z" fill="#00923F"/>
<path d="M47.5333 32.5333V25.5333L49.2667 23.8V20.6H47.5333L50 18.1333L52.4667 20.6H50.7333V23.8L52.4667 25.5333V32.5333H59.4667L61.2 34.2667H64.4V32.5333L66.8667 35L64.4 37.4667V35.7333H61.2L59.4667 37.4667H52.4667V44.4667L50.7333 46.2V49.4H52.4667L50 51.8667L47.5333 49.4H49.2667V46.2L47.5333 44.4667V37.4667H40.5333L38.8 35.7333H35.6V37.4667L33.1333 35L35.6 32.5333V34.2667H38.8L40.5333 32.5333H47.5333Z" fill="#F8C300"/>
<path d="M45.0667 35L50 30.0667L54.9333 35L50 39.9333L45.0667 35Z" fill="#00923F"/>
</g>
<defs>
<clipPath id="clip0_1_1922">
<rect width="100" height="70" fill="white"/>
</clipPath>
</defs>
</svg>
