<svg width="100" height="70" viewBox="0 0 100 70" fill="none" xmlns="http://www.w3.org/2000/svg">
<g clip-path="url(#clip0_1_1923)">
<path d="M100 23H0V47H100V23Z" fill="white"/>
<path d="M100 0H0V23H100V0Z" fill="#0096E1"/>
<path d="M100 47H0V70H100V47Z" fill="#F09BBE"/>
<path d="M16.2272 40.4242L14.5908 37.1439L13.3029 37.6742L12.9696 36.9999L16.4242 35.5833L16.7575 36.2499L15.4696 36.7802L17.106 40.0605L16.2272 40.4242ZM18.962 39.3181L17.2045 35.2802L19.0984 34.606C19.5681 34.4318 19.9317 34.3484 20.1741 34.3408C20.4241 34.3333 20.6514 34.4015 20.8635 34.5378C21.0757 34.6818 21.2272 34.8712 21.3332 35.106C21.462 35.409 21.4772 35.6969 21.3635 35.9621C21.2575 36.2272 21.0151 36.4621 20.6514 36.6515C20.8863 36.6818 21.0984 36.7424 21.2726 36.8181C21.4545 36.8939 21.7196 37.053 22.0757 37.2878L22.962 37.8787L21.8863 38.2651L20.856 37.6211C20.4848 37.3863 20.2423 37.2499 20.1211 37.1969C19.9999 37.1439 19.8863 37.1211 19.7802 37.1287C19.6742 37.1287 19.5151 37.1666 19.3105 37.2424L19.1287 37.3105L19.8635 38.9924L18.962 39.3181ZM18.8484 36.6666L19.5075 36.4242C19.9393 36.2727 20.2045 36.159 20.2954 36.0908C20.3863 36.0151 20.4469 35.9318 20.4696 35.8257C20.4999 35.7272 20.4848 35.6136 20.4317 35.4924C20.3711 35.356 20.2878 35.2575 20.1666 35.2045C20.0529 35.1515 19.9166 35.1363 19.7651 35.1666C19.6817 35.1818 19.462 35.2575 19.0984 35.3863L18.4014 35.6439L18.8484 36.6666ZM27.5454 36.4848L26.5454 36.7878L25.8105 35.9772L23.9999 36.5227L23.9696 37.5681L22.9923 37.8636L23.2499 33.2121L24.2196 32.9242L27.5454 36.4848ZM25.2575 35.3712L24.0757 34.0302L24.0226 35.7424L25.2575 35.3712ZM26.8029 32.1742L28.6438 31.7196C29.0151 31.6287 29.2878 31.5757 29.4772 31.5605C29.659 31.5378 29.8408 31.5605 30.0075 31.6136C30.1742 31.6666 30.3257 31.7499 30.4696 31.8787C30.606 31.9999 30.7045 32.1515 30.7575 32.3257C30.8105 32.5227 30.8105 32.7196 30.7423 32.909C30.6742 33.106 30.5529 33.2651 30.3787 33.3939C30.6817 33.4015 30.9393 33.4772 31.1438 33.6136C31.3484 33.7575 31.4848 33.9469 31.5529 34.1893C31.6135 34.3787 31.6211 34.5833 31.5757 34.7878C31.5302 34.9848 31.4393 35.1666 31.3029 35.3181C31.1666 35.4621 30.9772 35.5833 30.7423 35.6666C30.5908 35.7196 30.2196 35.8181 29.6287 35.9696L28.0529 36.356L26.8029 32.1742ZM27.9469 32.6363L28.2348 33.606L28.8408 33.4545C29.2045 33.3636 29.4317 33.303 29.5151 33.2727C29.6666 33.2196 29.7802 33.1363 29.8484 33.0378C29.909 32.9318 29.9242 32.8105 29.8863 32.6742C29.8484 32.5454 29.7726 32.4469 29.6742 32.3863C29.5681 32.3257 29.4393 32.303 29.2802 32.3257C29.1817 32.3409 28.9166 32.4015 28.4772 32.5075L27.9469 32.6363ZM28.4393 34.303L28.7802 35.4242L29.6363 35.2121C29.9772 35.1287 30.1817 35.0681 30.2726 35.0302C30.4014 34.9696 30.4999 34.8863 30.5529 34.7802C30.6211 34.6666 30.6287 34.5378 30.5832 34.3863C30.5454 34.2651 30.4772 34.1666 30.3863 34.0908C30.2954 34.0227 30.1742 33.9848 30.0378 33.9772C29.8938 33.9696 29.6135 34.0151 29.1969 34.1212L28.4393 34.303ZM36.9317 34.4318L35.909 34.6287L35.2726 33.7424L33.409 34.0984L33.2423 35.1363L32.2423 35.3257L33.0832 30.7348L34.0832 30.5454L36.9317 34.4318ZM34.8029 33.0833L33.7954 31.6287L33.5302 33.3257L34.8029 33.0833ZM37.4848 34.3636L36.7651 30.106L37.7196 29.9772L38.3181 33.5075L40.6893 33.1818L40.8105 33.9015L37.4848 34.3636ZM41.4999 33.8181L41.0454 29.4999L42.0075 29.4166L42.1817 31.1212L44.0681 30.9545L43.8863 29.2575L44.8484 29.1742L45.3029 33.4924L44.3408 33.5757L44.1438 31.6893L42.2575 31.8484L42.4545 33.7348L41.4999 33.8181ZM50.606 33.303L49.5605 33.3333L49.106 32.3636L47.1969 32.4166L46.8408 33.4166L45.8181 33.4469L47.5151 29.053L48.5378 29.0227L50.606 33.303ZM48.7651 31.6439L48.0529 30.053L47.462 31.6818L48.7651 31.6439ZM54.8408 33.409L55.1893 29.0833L58.7196 29.3257L58.6666 30.053L56.0908 29.8787L56.0151 30.8409L58.409 30.9999L58.3484 31.7272L55.9545 31.5681L55.856 32.7499L58.5226 32.9242L58.462 33.659L54.8408 33.409ZM66.2726 33.0984L67.1438 33.5151C66.909 33.9621 66.606 34.2651 66.2272 34.4393C65.856 34.6136 65.4166 34.659 64.9166 34.5757C64.2878 34.4696 63.8181 34.1893 63.4923 33.7424C63.1666 33.2878 63.0681 32.7196 63.2045 32.053C63.3484 31.3409 63.659 30.8257 64.1438 30.4999C64.6211 30.1666 65.1969 30.0606 65.856 30.1666C66.4241 30.2651 66.8635 30.4924 67.159 30.8636C67.3408 31.0757 67.4469 31.3636 67.4848 31.7272L66.5075 31.7727C66.4923 31.5454 66.409 31.3484 66.2575 31.1969C66.1135 31.0378 65.909 30.9393 65.659 30.8939C65.3105 30.8409 64.9999 30.909 64.7423 31.0984C64.4772 31.2878 64.2954 31.6363 64.1969 32.1439C64.0908 32.6893 64.1211 33.0908 64.2878 33.356C64.4545 33.6212 64.712 33.7802 65.0529 33.8333C65.3029 33.8787 65.5378 33.8408 65.7499 33.7196C65.9545 33.606 66.1363 33.4015 66.2726 33.0984ZM68.0681 32.856C68.1817 32.4242 68.3484 32.0833 68.5757 31.8181C68.7348 31.6287 68.9317 31.4696 69.159 31.3409C69.3863 31.2121 69.6211 31.1287 69.8635 31.0909C70.1817 31.0454 70.5302 31.0681 70.909 31.1515C71.5908 31.303 72.0832 31.6136 72.3938 32.0909C72.6969 32.5681 72.7575 33.1515 72.5757 33.8333C72.3938 34.5151 72.0454 35.0075 71.5302 35.2954C71.0226 35.5908 70.4241 35.659 69.7423 35.5075C69.0529 35.356 68.5605 35.0454 68.2499 34.5681C67.9469 34.0984 67.8863 33.5227 68.0681 32.856ZM69.0378 33.0378C68.909 33.5151 68.9393 33.909 69.1135 34.2121C69.2878 34.5075 69.5605 34.6969 69.9393 34.7802C70.3105 34.8636 70.6514 34.8105 70.9545 34.6212C71.2575 34.4318 71.4772 34.0908 71.6135 33.5984C71.7423 33.1212 71.7196 32.7348 71.5529 32.4393C71.3863 32.1515 71.106 31.9621 70.7196 31.8787C70.3332 31.7954 69.9923 31.8409 69.6893 32.0302C69.3863 32.2196 69.1741 32.553 69.0378 33.0378ZM72.7348 36.1363L74.1514 31.9924L75.0605 32.2424L75.9848 35.5302L76.8938 32.7651L77.8029 33.0075L76.3635 37.1515L75.4393 36.8939L74.5151 33.6742L73.5908 36.3711L72.7348 36.1363ZM77.3484 37.4545L79.0151 33.3863L82.0454 34.409L81.8181 35.0984L79.6211 34.3712L79.2423 35.3408L81.1363 35.9621L80.8332 36.6515L78.9393 36.0302L78.2575 37.7575L77.3484 37.4545ZM81.1363 38.7499L82.9545 34.7272L83.7878 35.053L82.0454 39.0757L81.1363 38.7499ZM86.8181 40.9772L85.8332 40.5833L85.909 39.5302L84.1666 38.8257L83.409 39.5833L82.4241 39.2045L86.0605 35.9318L87.0454 36.303L86.8181 40.9772ZM85.9848 38.7499L86.0605 37.0378L84.7726 38.2651L85.9848 38.7499Z" fill="#0096E1"/>
</g>
<defs>
<clipPath id="clip0_1_1923">
<rect width="100" height="70" fill="white"/>
</clipPath>
</defs>
</svg>
