<svg width="100" height="70" viewBox="0 0 100 70" fill="none" xmlns="http://www.w3.org/2000/svg">
<g clip-path="url(#clip0_1_1924)">
<path d="M100.019 61.2501H0V69.9999H100.019V61.2501Z" fill="#F3E718"/>
<path d="M100.003 52.5003H0V61.2502H100.003V52.5003Z" fill="#00994C"/>
<path d="M99.9906 8.75096H0V17.5008H99.9906V8.75096Z" fill="#F3E718"/>
<path d="M100.008 26.2507H0V35.0006H100.008V26.2507Z" fill="#F3E718"/>
<path d="M100.008 43.7503H0V52.5002H100.008V43.7503Z" fill="#F3E718"/>
<path d="M100.008 0.00108337H0V8.75095H100.008V0.00108337Z" fill="#00994C"/>
<path d="M100.008 17.5008H0V26.2507H100.008V17.5008Z" fill="#00994C"/>
<path d="M100.008 35.0006H0V43.7504H100.008V35.0006Z" fill="#00994C"/>
<path d="M34.8491 0.00108337H0V26.2507H34.8491V0.00108337Z" fill="#002580"/>
<path d="M31.1566 23.7812L27.8792 21.3897L24.6018 23.7812L25.8537 19.9117L22.5763 17.5203H26.6274L27.8792 13.6508L29.1311 17.5203H33.1822L29.9048 19.9117L31.1566 23.7812Z" fill="white"/>
<path d="M31.1566 11.5314L27.8792 9.13998L24.6018 11.5314L25.8537 7.66198L22.5763 5.27054H26.6274L27.8792 1.40109L29.1311 5.27054H33.1822L29.9048 7.66198L31.1566 11.5314Z" fill="white"/>
<path d="M10.2472 11.5314L6.96982 9.13998L3.69242 11.5314L4.94427 7.66198L1.66687 5.27054H5.71796L6.96982 1.40109L8.22167 5.27054H12.2728L8.99536 7.66198L10.2472 11.5314Z" fill="white"/>
<path d="M10.2472 23.7812L6.96982 21.3897L3.69242 23.7812L4.94427 19.9117L1.66687 17.5203H5.71796L6.96982 13.6508L8.22167 17.5203H12.2728L8.99536 19.9117L10.2472 23.7812Z" fill="white"/>
<path d="M19.8824 16.5237L17.4244 14.7301L14.9663 16.5237L15.9052 13.6216L13.4471 11.828H16.4855L17.4244 8.92592L18.3633 11.828H21.4016L18.9435 13.6216L19.8824 16.5237Z" fill="white"/>
</g>
<defs>
<clipPath id="clip0_1_1924">
<rect width="100" height="70" fill="white"/>
</clipPath>
</defs>
</svg>
