<svg width="100" height="67" viewBox="0 0 100 67" fill="none" xmlns="http://www.w3.org/2000/svg">
<g clip-path="url(#clip0_1_1925)">
<path d="M100 0H0V67H100V0Z" fill="white"/>
<path d="M100 0H0V7H100V0Z" fill="#FF0000"/>
<path d="M100 30H0V37H100V30Z" fill="#FF0000"/>
<path d="M100 59H0V67H100V59Z" fill="#FF0000"/>
<path d="M100 15H0V22H100V15Z" fill="black"/>
<path d="M100 44H0V52H100V44Z" fill="black"/>
<path d="M33 0H0V33H33V0Z" fill="#190096"/>
<path d="M16.5 5L19.0819 12.9463H27.4371L20.6776 17.8574L23.2595 25.8037L16.5 20.8926L9.74047 25.8037L12.3224 17.8574L5.56285 12.9463H13.9181L16.5 5Z" fill="white"/>
</g>
<defs>
<clipPath id="clip0_1_1925">
<rect width="100" height="66.6667" fill="white"/>
</clipPath>
</defs>
</svg>
