<svg width="100" height="70" viewBox="0 0 100 70" fill="none" xmlns="http://www.w3.org/2000/svg">
<g clip-path="url(#clip0_1_1929)">
<path d="M99.9818 1.52588e-05H0.0181046V70H99.9818V1.52588e-05Z" fill="white"/>
<path d="M50.0001 15.5744L59.988 32.8839L69.9759 50.1935H50.0001H30.0243L40.0122 32.8839L50.0001 15.5744Z" fill="#FF0000"/>
<path d="M31.9711 43.3797L28.4585 41.3483L28.5854 41.1367L28.7547 40.8827L31.8442 42.6602L32.8599 40.8827L33.0715 41.0097L33.2831 41.1367L31.9711 43.3797ZM33.5794 40.5865L30.0667 38.555L30.1936 38.3434L30.3629 38.0895L33.8756 40.1209L33.7487 40.3749L33.5794 40.5865ZM34.3412 39.3168L30.8285 37.2854L30.9554 37.0315L31.7172 35.7195C31.8865 35.4232 32.0981 35.254 32.352 35.127C32.606 35.0423 32.8599 35.0847 33.1138 35.2116C33.4101 35.3809 33.5794 35.6348 33.6217 35.9311V36.1427C33.7487 36.0581 33.8333 36.0157 33.9603 35.9311C34.2565 35.8041 34.5528 35.8465 34.849 36.0157C35.1876 36.185 35.3569 36.439 35.4415 36.7775C35.4838 37.1161 35.3992 37.497 35.1876 37.8779L34.4681 39.0629L34.3412 39.3168ZM31.5056 37.0315L32.606 37.6663L33.0715 36.8199C33.2408 36.5659 33.2831 36.3543 33.2831 36.185C33.2408 36.0157 33.1138 35.8465 32.9445 35.7195C32.7753 35.6348 32.606 35.6348 32.4367 35.6772C32.3097 35.7618 32.1404 35.8888 32.0135 36.1427L31.5056 37.0315ZM32.9869 37.8779L34.2142 38.5974L34.7644 37.624C34.9337 37.37 34.976 37.1161 34.9337 36.9468C34.9337 36.7352 34.8067 36.6082 34.5528 36.4813C34.3835 36.3543 34.1719 36.3543 34.0026 36.3966C33.8333 36.4813 33.664 36.6929 33.537 36.9468L32.9869 37.8779ZM36.2456 35.9734L32.7329 33.942L34.2142 31.3604L34.4258 31.4873L34.6374 31.6143L33.4524 33.7304L34.5104 34.3229L35.6108 32.4184L35.8224 32.5454L36.034 32.6723L34.9337 34.5768L36.1187 35.254L37.346 33.1379L37.5576 33.2648L37.7692 33.3918L36.2456 35.9734ZM38.1501 32.7147L34.6374 30.6832L34.7644 30.4293L35.5685 29.0327C35.7801 28.6518 36.034 28.4402 36.3303 28.3132C36.5842 28.2286 36.8805 28.2709 37.1767 28.4402C37.5153 28.6095 37.6846 28.8634 37.7269 29.1596C37.7692 29.2443 37.7692 29.3289 37.7692 29.4136L37.8539 29.3289C38.1078 29.202 38.3617 29.202 38.658 29.3712L39.2928 29.7098C39.4198 29.7945 39.5044 29.7945 39.5467 29.7945C39.6314 29.7945 39.6737 29.7945 39.7583 29.7521L39.843 29.7945L39.5044 30.387C39.4621 30.3446 39.3774 30.3446 39.2505 30.26C39.1235 30.2177 38.9965 30.133 38.8273 30.0907L38.531 29.9214C38.3194 29.7945 38.1501 29.7521 37.9808 29.7945C37.8539 29.8368 37.6846 30.0061 37.5576 30.2177L36.9228 31.3604L38.4464 32.2491L38.2771 32.4607L38.1501 32.7147ZM36.4996 31.1064L37.1767 29.9214C37.3037 29.7098 37.346 29.5405 37.3037 29.3712C37.2614 29.202 37.1344 29.075 36.9228 28.948C36.7535 28.8211 36.5419 28.8211 36.4149 28.8634C36.2456 28.9057 36.1187 29.0327 35.9494 29.2866L35.3146 30.4293L36.4996 31.1064ZM40.6894 28.3555L37.5576 26.5357L36.8805 27.7207L36.6688 27.6361L36.4572 27.5091L38.1078 24.6312L38.3194 24.7582L38.531 24.8851L37.8539 26.0702L40.9433 27.8477L40.8164 28.1016L40.6894 28.3555ZM41.7051 26.5357L38.9542 23.15L39.1235 22.896L39.2928 22.6421L43.525 23.4039L43.398 23.6578L43.2287 23.9117L42.0014 23.6578L41.1973 25.0968L42.0014 26.0278L41.8744 26.2818L41.7051 26.5357ZM39.6314 23.2346L40.8587 24.6735L41.4935 23.5732L39.6314 23.2346ZM42.5092 19.3833C42.2976 19.2564 42.0437 19.2564 41.8744 19.341C41.6628 19.4256 41.4512 19.5949 41.3242 19.8489C41.1549 20.1028 41.1126 20.3567 41.1126 20.5683C41.1549 20.7376 41.2396 20.9069 41.4512 21.0339C41.5782 21.1185 41.7051 21.1185 41.8321 21.0762C41.9591 20.9916 42.1283 20.8646 42.3399 20.6107L42.8478 20.1028C43.1441 19.8065 43.3557 19.6373 43.6096 19.5949C43.8635 19.5103 44.1175 19.5949 44.3714 19.7642C44.71 19.9335 44.8792 20.1874 44.9216 20.526C44.9639 20.9069 44.8792 21.2878 44.6253 21.711C44.3714 22.1342 44.0751 22.4305 43.6942 22.5998C43.3557 22.7267 42.9748 22.6844 42.5939 22.4728V22.4305L42.8478 22.0073C43.1017 22.1342 43.3557 22.1766 43.5673 22.0496C43.8212 21.9649 44.0328 21.7533 44.2021 21.4571C44.3714 21.1608 44.456 20.9069 44.456 20.6953C44.456 20.4837 44.3291 20.3144 44.1598 20.2298C43.9905 20.1028 43.8212 20.1028 43.6942 20.1451C43.525 20.1874 43.3557 20.3567 43.1017 20.6107L42.5939 21.1608C42.3399 21.4148 42.1283 21.5841 41.9167 21.6264C41.7051 21.6687 41.4935 21.6264 41.2396 21.4994C40.901 21.3301 40.7317 21.0339 40.6471 20.6953C40.6048 20.3567 40.6894 19.9758 40.901 19.5949C41.1126 19.214 41.4089 18.9601 41.7474 18.8331C42.086 18.7062 42.4246 18.7485 42.7632 18.9178L42.5092 19.3833Z" fill="black"/>
<path d="M41.7049 55.9492V52.3519H40.3507V52.1403V51.8864H43.6517V52.1403V52.3519H42.2551V55.9492H42.0012H41.7049ZM43.821 55.9492L45.3446 51.8864H45.6409H45.9794L47.4184 55.9492H47.1221H46.8259L46.4026 54.7642H44.7944L44.3712 55.9492H44.075H43.821ZM45.6409 52.4789L44.9637 54.2564H46.2334L45.6409 52.4789ZM48.4341 55.9492H48.1802H47.9262V51.8864H48.3071H48.688L49.873 55.3144L51.0157 51.8864H51.3966H51.8198V55.9492H51.5659H51.2696V52.5212L50.1269 55.9492H49.873H49.6191L48.4341 52.5212V55.9492ZM52.7086 55.9492V51.8864H55.6711V52.1403V52.3519H53.2587V53.6215H55.4595V53.8332V54.0871H53.2587V55.4414H55.7134V55.6953V55.9492H52.7086ZM56.9407 55.9492H56.6868H56.4329V51.8864H56.7714H57.11L59.1415 55.1874V51.8864H59.3954H59.6493V55.9492H59.3531H59.0568L56.9407 52.6058V55.9492Z" fill="black"/>
<path d="M55.2902 22.0073L55.4171 21.2032C55.1209 21.0339 54.8669 20.78 54.6553 20.4414C54.3591 19.9335 54.2744 19.4257 54.4437 18.9178C54.613 18.4099 54.9516 17.9867 55.5018 17.6481C56.0519 17.3519 56.6021 17.2249 57.11 17.3519C57.6602 17.4789 58.0411 17.7751 58.3373 18.283C58.6336 18.7908 58.7182 19.341 58.5489 19.8489C58.3796 20.3567 58.0411 20.78 57.4909 21.0762C56.9407 21.4148 56.3905 21.4994 55.8827 21.3725H55.798V21.4994C55.7557 21.8803 55.7134 22.0496 55.7134 22.0496L55.2902 22.0073ZM55.5864 20.1451L56.0096 20.1874L55.8827 20.8223L55.9673 20.8646C56.3482 20.9069 56.7714 20.8223 57.1946 20.6107C57.6178 20.3567 57.9141 20.0182 58.0411 19.6373C58.168 19.2987 58.1257 18.9178 57.9141 18.5369C57.7025 18.156 57.4062 17.9444 57.0253 17.9021C56.6444 17.8174 56.2212 17.9021 55.798 18.156C55.3748 18.4099 55.0785 18.7062 54.9516 19.0871C54.8246 19.468 54.8669 19.8489 55.0785 20.1874C55.1632 20.3991 55.3325 20.5683 55.5018 20.653L55.5864 20.1451ZM58.9721 24.7159C58.5066 24.9698 58.1257 25.0121 57.7025 24.9275C57.3216 24.8428 57.0253 24.5466 56.7714 24.1234C56.5175 23.6578 56.4328 23.2769 56.5175 22.896C56.6444 22.5151 56.8984 22.1766 57.3639 21.9226L59.5646 20.653L59.7339 20.8646L59.8609 21.1185L57.6602 22.3882C57.3216 22.5998 57.1523 22.8114 57.0677 23.0653C56.983 23.3193 57.0253 23.5732 57.1946 23.8694C57.3639 24.1657 57.5755 24.335 57.8295 24.4196C58.0834 24.4619 58.3796 24.3773 58.7182 24.208L60.9189 22.9384L61.0459 23.1923L61.1729 23.4039L58.9721 24.7159ZM59.1837 28.1016L60.1995 27.5091L59.4377 26.1971L58.2103 26.3664L58.0411 26.1125L57.9141 25.8586L62.2732 25.266L62.9504 26.4934L64.0507 28.3979L63.8391 28.5248L63.6275 28.6518L62.5272 26.7473L61.4691 27.3821L62.4848 29.1173L62.2732 29.2443L62.0616 29.3712L61.0459 27.5937L59.8609 28.2709L61.0036 30.26L60.792 30.387L60.5804 30.5139L59.4377 28.5248L59.1837 28.1016ZM62.0193 25.8162L59.9879 26.1125L60.6227 27.2552L62.2732 26.2818L62.0193 25.8162ZM65.4473 33.1802C65.6589 33.0109 65.7859 32.8416 65.8282 32.63C65.8282 32.3761 65.7859 32.1645 65.6589 31.9105C65.4897 31.6143 65.3204 31.445 65.1511 31.3604C64.9395 31.2757 64.7702 31.318 64.5586 31.445C64.4316 31.4873 64.347 31.6143 64.347 31.7413C64.3047 31.8682 64.347 32.0798 64.4739 32.4184L64.6432 33.0956C64.7702 33.4764 64.8125 33.7727 64.7279 34.0266C64.6432 34.2382 64.4739 34.4498 64.22 34.5768C63.8814 34.7884 63.5429 34.7884 63.2466 34.6615C62.908 34.5345 62.6118 34.2806 62.4002 33.8573C62.1039 33.3918 62.0193 32.9686 62.1039 32.5877C62.1463 32.2068 62.3579 31.9105 62.7388 31.6989H62.7811L63.035 32.1222C62.7811 32.2914 62.6118 32.5031 62.5695 32.757C62.5695 33.0109 62.6118 33.3072 62.8234 33.6034C62.9927 33.8997 63.162 34.1113 63.3313 34.1959C63.5429 34.2806 63.7122 34.2806 63.9238 34.1536C64.093 34.069 64.1777 33.942 64.22 33.7727C64.22 33.6457 64.1777 33.3918 64.093 33.0532L63.8814 32.3761C63.7545 31.9952 63.7545 31.7413 63.7968 31.5297C63.8391 31.318 64.0084 31.1488 64.22 31.0218C64.5586 30.8102 64.8972 30.7679 65.2357 30.8948C65.5743 31.0218 65.8282 31.2757 66.0398 31.6566C66.2938 32.0375 66.3784 32.4184 66.2938 32.757C66.2515 33.0956 66.0398 33.3918 65.7013 33.6034L65.4473 33.1802ZM63.6275 35.8041L67.1402 33.7727L68.6215 36.3543L68.4099 36.439L68.1982 36.5659L67.0132 34.4922L65.9129 35.0847L67.0556 37.0315L66.844 37.1584L66.6323 37.2431L65.4897 35.3386L64.347 36.0158L65.5743 38.1318L65.3627 38.2588L65.1511 38.3858L63.6275 35.8041ZM65.532 39.0629L69.0447 37.0315L69.1716 37.2854L69.9758 38.682C70.1874 39.0629 70.272 39.4015 70.2297 39.6554C70.1874 39.9517 70.0181 40.2056 69.6795 40.3749C69.3832 40.5442 69.087 40.5865 68.7907 40.5018C68.7061 40.4595 68.6638 40.4172 68.5791 40.3749V40.5018C68.5791 40.7558 68.4522 41.0097 68.1559 41.179L67.5211 41.5599C67.4365 41.6445 67.3518 41.6869 67.3518 41.7292C67.3095 41.7715 67.2672 41.8561 67.3095 41.9408L67.2248 41.9831L66.8863 41.3906C66.8863 41.3906 66.9709 41.306 67.0979 41.2213C67.1825 41.1367 67.3095 41.052 67.4788 40.9674L67.7327 40.7981C67.9443 40.6711 68.0713 40.5442 68.1136 40.3749C68.1559 40.2056 68.1136 40.0363 67.9866 39.7824L67.3095 38.682L65.7859 39.5284L65.6589 39.3168L65.532 39.0629ZM67.7327 38.4281L68.4099 39.6131C68.5368 39.8247 68.6638 39.9517 68.8331 39.994C69.0024 40.0786 69.1716 40.0363 69.3832 39.9093C69.5949 39.7824 69.7218 39.6554 69.7218 39.4861C69.7641 39.3168 69.7218 39.1052 69.5949 38.8936L68.9177 37.7509L67.7327 38.4281ZM67.3518 42.237L71.6686 41.5599L71.7956 41.8138L71.9649 42.1101L69.1716 45.3688L69.0447 45.1149L68.8754 44.861L69.6795 43.9299L68.8754 42.5333L67.6481 42.7449L67.5211 42.491L67.3518 42.237ZM71.2877 42.1101L69.3832 42.4486L70.0181 43.549L71.2877 42.1101Z" fill="black"/>
</g>
<defs>
<clipPath id="clip0_1_1929">
<rect width="100" height="70" fill="white"/>
</clipPath>
</defs>
</svg>
