<svg width="100" height="70" viewBox="0 0 100 70" fill="none" xmlns="http://www.w3.org/2000/svg">
<g clip-path="url(#clip0_1_1927)">
<path d="M100 0H0V70H100V0Z" fill="#28166F"/>
<path d="M8.5 35L50 61.5L91.5 35L50 8.5L8.5 35Z" fill="white"/>
<path d="M50 52.5C59.665 52.5 67.5 44.665 67.5 35C67.5 25.335 59.665 17.5 50 17.5C40.335 17.5 32.5 25.335 32.5 35C32.5 44.665 40.335 52.5 50 52.5Z" fill="#00923F"/>
<path d="M50 18L53.8167 29.7467L66.168 29.7467L56.1756 37.0066L59.9923 48.7533L50 41.4934L40.0077 48.7533L43.8244 37.0066L33.832 29.7467L46.1833 29.7467L50 18Z" fill="#F3E718"/>
</g>
<defs>
<clipPath id="clip0_1_1927">
<rect width="100" height="70" fill="white"/>
</clipPath>
</defs>
</svg>
