<svg width="100" height="70" viewBox="0 0 100 70" fill="none" xmlns="http://www.w3.org/2000/svg">
<g clip-path="url(#clip0_1_1931)">
<path d="M33 0H0V70H33V0Z" fill="black"/>
<path d="M100 0H33V70H100V0Z" fill="#F00000"/>
<path d="M54.1667 38.1666V31.85H55.4667L58.0667 36.0666V31.85H59.1667V38.1666H57.9667L55.3667 34.05V38.1666H54.1667ZM60.5667 38.1666V31.85H65.2667V32.9167H61.8667V34.3167H64.9667V35.3833H61.8667V37.1H65.3667V38.1666H60.5667ZM69.3667 35.8333V34.7833H72.1667V37.3C71.8667 37.55 71.4667 37.7833 70.9667 37.9833C70.4667 38.1666 69.9667 38.2666 69.4667 38.2666C68.7667 38.2666 68.1667 38.1333 67.6667 37.85C67.2667 37.5833 66.8667 37.1833 66.5667 36.6666C66.3667 36.15 66.2667 35.5833 66.2667 34.9833C66.2667 34.3333 66.3667 33.75 66.6667 33.2333C66.9667 32.7167 67.3667 32.3333 67.8667 32.05C68.2667 31.85 68.7667 31.75 69.3667 31.75C70.1667 31.75 70.7667 31.9 71.1667 32.2333C71.6667 32.5667 71.9667 33.0167 72.0667 33.6L70.7667 33.8333C70.6667 33.5333 70.5667 33.2833 70.2667 33.1C70.0667 32.9167 69.7667 32.8333 69.3667 32.8333C68.7667 32.8333 68.3667 33 68.0667 33.35C67.6667 33.7167 67.5667 34.2333 67.5667 34.9333C67.5667 35.6833 67.6667 36.25 68.0667 36.6166C68.3667 37 68.7667 37.1833 69.3667 37.1833C69.6667 37.1833 69.8667 37.1333 70.1667 37.0333C70.4667 36.9166 70.6667 36.7833 70.8667 36.65V35.8333H69.3667ZM73.0667 35.05C73.0667 34.4 73.1667 33.8667 73.3667 33.4333C73.4667 33.1 73.6667 32.8167 73.9667 32.55C74.1667 32.3 74.4667 32.1167 74.7667 32C75.1667 31.8333 75.5667 31.75 76.0667 31.75C77.0667 31.75 77.7667 32.0333 78.3667 32.6C78.8667 33.1833 79.1667 33.9833 79.1667 35.0167C79.1667 36.0333 78.8667 36.8333 78.3667 37.4C77.7667 37.9833 77.0667 38.2666 76.1667 38.2666C75.1667 38.2666 74.4667 37.9833 73.8667 37.4C73.3667 36.8333 73.0667 36.05 73.0667 35.05ZM74.3667 35C74.3667 35.7166 74.5667 36.25 74.8667 36.6333C75.1667 37 75.5667 37.1833 76.0667 37.1833C76.6667 37.1833 77.0667 37 77.3667 36.6333C77.6667 36.2666 77.8667 35.7166 77.8667 34.9833C77.8667 34.25 77.6667 33.7167 77.3667 33.3667C77.0667 33 76.6667 32.8333 76.0667 32.8333C75.5667 32.8333 75.1667 33 74.8667 33.3833C74.5667 33.7333 74.3667 34.2833 74.3667 35Z" fill="white"/>
</g>
<defs>
<clipPath id="clip0_1_1931">
<rect width="100" height="70" fill="white"/>
</clipPath>
</defs>
</svg>
