<svg width="100" height="67" viewBox="0 0 100 67" fill="none" xmlns="http://www.w3.org/2000/svg">
<g clip-path="url(#clip0_1_1933)">
<path d="M0 0H100V40H0V0Z" fill="#3155A4"/>
<path d="M12.7778 50C12.7778 40.1281 16.6994 30.6604 23.6799 23.6799C30.6604 16.6994 40.128 12.7778 50 12.7778C59.8719 12.7778 69.3396 16.6994 76.3201 23.6799C83.3006 30.6604 87.2222 40.1281 87.2222 50" stroke="#C34342" stroke-width="2"/>
<path d="M15 50C15 40.7174 18.6875 31.815 25.2513 25.2513C31.815 18.6875 40.7174 15 50 15C59.2826 15 68.185 18.6875 74.7487 25.2513C81.3125 31.815 85 40.7174 85 50" stroke="#FFB511" stroke-width="2"/>
<path d="M17.2222 50C17.2222 41.3068 20.6756 32.9696 26.8226 26.8226C32.9696 20.6756 41.3068 17.2222 50 17.2222C54.3044 17.2222 58.5667 18.07 62.5435 19.7173C66.5203 21.3645 70.1337 23.7789 73.1774 26.8226C79.3244 32.9696 82.7778 41.3068 82.7778 50" stroke="#00AD4A" stroke-width="2"/>
<path d="M0 40H100V66.6667H0V40Z" fill="white"/>
<path d="M45 50.8333H55M50 45V61.6667V45Z" stroke="#C34342" stroke-width="2"/>
<path d="M50 23.3333L50.5439 25.0356L51.5098 23.5321L51.5945 25.3172L52.9167 24.1149L52.5365 25.861L54.1248 25.0419L53.3057 26.6302L55.0518 26.25L53.8495 27.5722L55.6346 27.6569L54.131 28.6228L55.8334 29.1667L54.131 29.7105L55.6346 30.6765L53.8495 30.7612L55.0518 32.0833L53.3057 31.7032L54.1248 33.2915L52.5365 32.4723L52.9167 34.2185L51.5945 33.0162L51.5098 34.8012L50.5439 33.2977L50 35L49.4562 33.2977L48.4902 34.8012L48.4055 33.0162L47.0834 34.2185L47.4635 32.4723L45.8752 33.2915L46.6944 31.7032L44.9482 32.0833L46.1505 30.7612L44.3655 30.6765L45.869 29.7105L44.1667 29.1667L45.869 28.6228L44.3655 27.6569L46.1505 27.5722L44.9482 26.25L46.6944 26.6302L45.8752 25.0419L47.4635 25.861L47.0834 24.1149L48.4055 25.3172L48.4902 23.5321L49.4562 25.0356L50 23.3333Z" fill="#FFB511"/>
<path d="M50.0001 3.33333L51.6247 8.33333L47.3714 5.24316H52.6287L48.3755 8.33333L50.0001 3.33333Z" fill="#FFB511"/>
</g>
<defs>
<clipPath id="clip0_1_1933">
<rect width="100" height="66.6667" fill="white"/>
</clipPath>
</defs>
</svg>
