<svg width="100" height="67" viewBox="0 0 100 67" fill="none" xmlns="http://www.w3.org/2000/svg">
<g clip-path="url(#clip0_1_1934)">
<path d="M100 0H0V67H100V0Z" fill="#FFD500"/>
<path d="M100 0H0V5H100V0Z" fill="#56A134"/>
<path d="M100 10H0V15H100V10Z" fill="#56A134"/>
<path d="M100 21H0V26H100V21Z" fill="#56A134"/>
<path d="M100 31H0V36H100V31Z" fill="#56A134"/>
<path d="M100 41H0V46H100V41Z" fill="#56A134"/>
<path d="M100 51H0V56H100V51Z" fill="#56A134"/>
<path d="M100 62H0V67H100V62Z" fill="#56A134"/>
<path d="M38.4615 0H0V25.641H38.4615V0Z" fill="#0B1097"/>
<path d="M3.18359 24H2.91992V22.3198C2.85645 22.3804 2.77295 22.4409 2.66943 22.5015C2.56689 22.562 2.47461 22.6074 2.39258 22.6377V22.3828C2.54004 22.3135 2.66895 22.2295 2.7793 22.1309C2.88965 22.0322 2.96777 21.9365 3.01367 21.8438H3.18359V24ZM3.86182 23.4331L4.12549 23.3979C4.15576 23.5474 4.20703 23.6553 4.2793 23.7217C4.35254 23.7871 4.44141 23.8198 4.5459 23.8198C4.66992 23.8198 4.77441 23.7769 4.85938 23.6909C4.94531 23.605 4.98828 23.4985 4.98828 23.3716C4.98828 23.2505 4.94873 23.1509 4.86963 23.0728C4.79053 22.9937 4.68994 22.9541 4.56787 22.9541C4.51807 22.9541 4.45605 22.9639 4.38184 22.9834L4.41113 22.752C4.42871 22.7539 4.44287 22.7549 4.45361 22.7549C4.56592 22.7549 4.66699 22.7256 4.75684 22.667C4.84668 22.6084 4.8916 22.5181 4.8916 22.396C4.8916 22.2993 4.85889 22.2192 4.79346 22.1558C4.72803 22.0923 4.64355 22.0605 4.54004 22.0605C4.4375 22.0605 4.35205 22.0928 4.28369 22.1572C4.21533 22.2217 4.17139 22.3184 4.15186 22.4473L3.88818 22.4004C3.92041 22.2236 3.99365 22.0869 4.10791 21.9902C4.22217 21.8926 4.36426 21.8438 4.53418 21.8438C4.65137 21.8438 4.75928 21.8691 4.85791 21.9199C4.95654 21.9697 5.03174 22.0381 5.0835 22.125C5.13623 22.2119 5.1626 22.3042 5.1626 22.4019C5.1626 22.4946 5.1377 22.5791 5.08789 22.6553C5.03809 22.7314 4.96436 22.792 4.8667 22.8369C4.99365 22.8662 5.09229 22.9272 5.1626 23.02C5.23291 23.1118 5.26807 23.2271 5.26807 23.3657C5.26807 23.5532 5.19971 23.7124 5.06299 23.8433C4.92627 23.9731 4.75342 24.0381 4.54443 24.0381C4.35596 24.0381 4.19922 23.9819 4.07422 23.8696C3.9502 23.7573 3.87939 23.6118 3.86182 23.4331ZM6.47217 24V21.8525H7.21191C7.37891 21.8525 7.50635 21.8628 7.59424 21.8833C7.71729 21.9116 7.82227 21.9629 7.90918 22.0371C8.02246 22.1328 8.10693 22.2554 8.1626 22.4048C8.21924 22.5532 8.24756 22.7231 8.24756 22.9146C8.24756 23.0776 8.22852 23.2222 8.19043 23.3481C8.15234 23.4741 8.10352 23.5786 8.04395 23.6616C7.98438 23.7437 7.91895 23.8086 7.84766 23.8564C7.77734 23.9033 7.69189 23.939 7.59131 23.9634C7.4917 23.9878 7.37695 24 7.24707 24H6.47217ZM6.75635 23.7466H7.21484C7.35645 23.7466 7.46729 23.7334 7.54736 23.707C7.62842 23.6807 7.69287 23.6436 7.74072 23.5957C7.80811 23.5283 7.86035 23.438 7.89746 23.3247C7.93555 23.2104 7.95459 23.0723 7.95459 22.9102C7.95459 22.6855 7.91748 22.5132 7.84326 22.3931C7.77002 22.272 7.68066 22.1909 7.5752 22.1499C7.49902 22.1206 7.37646 22.106 7.20752 22.106H6.75635V23.7466ZM8.646 24V21.8525H10.1987V22.106H8.93018V22.7637H10.1182V23.0156H8.93018V23.7466H10.2485V24H8.646ZM11.4673 24V21.8525H11.895L12.4033 23.373C12.4502 23.5146 12.4844 23.6206 12.5059 23.6909C12.5303 23.6128 12.5684 23.498 12.6201 23.3467L13.1343 21.8525H13.5166V24H13.2427V22.2026L12.6187 24H12.3623L11.7412 22.1719V24H11.4673ZM13.7393 24L14.564 21.8525H14.8701L15.749 24H15.4253L15.1748 23.3496H14.2769L14.041 24H13.7393ZM14.3589 23.1182H15.0869L14.8628 22.5234C14.7944 22.3428 14.7437 22.1943 14.7104 22.0781C14.6831 22.2158 14.6445 22.3525 14.5947 22.4883L14.3589 23.1182ZM15.9805 24V21.8525H16.9326C17.124 21.8525 17.2695 21.8721 17.3691 21.9111C17.4688 21.9492 17.5483 22.0171 17.6079 22.1147C17.6675 22.2124 17.6973 22.3203 17.6973 22.4385C17.6973 22.5908 17.6479 22.7192 17.5493 22.8237C17.4507 22.9282 17.2983 22.9946 17.0923 23.0229C17.1675 23.0591 17.2246 23.0947 17.2637 23.1299C17.3467 23.2061 17.4253 23.3013 17.4995 23.4155L17.873 24H17.5156L17.2314 23.5532C17.1484 23.4243 17.0801 23.3257 17.0264 23.2573C16.9727 23.189 16.9243 23.1411 16.8813 23.1138C16.8394 23.0864 16.7964 23.0674 16.7524 23.0566C16.7202 23.0498 16.6675 23.0464 16.5942 23.0464H16.2646V24H15.9805ZM16.2646 22.8003H16.8755C17.0054 22.8003 17.1069 22.7871 17.1802 22.7607C17.2534 22.7334 17.3091 22.6904 17.3472 22.6318C17.3853 22.5723 17.4043 22.5078 17.4043 22.4385C17.4043 22.3369 17.3672 22.2534 17.293 22.188C17.2197 22.1226 17.1035 22.0898 16.9443 22.0898H16.2646V22.8003ZM19.6763 23.2471L19.9604 23.3188C19.9009 23.5522 19.7935 23.7305 19.6382 23.8535C19.4839 23.9756 19.2949 24.0366 19.0713 24.0366C18.8398 24.0366 18.6514 23.9897 18.5059 23.896C18.3613 23.8013 18.251 23.6646 18.1748 23.4858C18.0996 23.3071 18.062 23.1152 18.062 22.9102C18.062 22.6865 18.1045 22.4917 18.1895 22.3257C18.2754 22.1587 18.397 22.0322 18.5542 21.9463C18.7124 21.8594 18.8862 21.8159 19.0757 21.8159C19.2905 21.8159 19.4712 21.8706 19.6177 21.98C19.7642 22.0894 19.8662 22.2432 19.9238 22.4414L19.644 22.5073C19.5942 22.3511 19.522 22.2373 19.4272 22.166C19.3325 22.0947 19.2134 22.0591 19.0698 22.0591C18.9048 22.0591 18.7666 22.0986 18.6553 22.1777C18.5449 22.2568 18.4673 22.3633 18.4224 22.4971C18.3774 22.6299 18.355 22.7671 18.355 22.9087C18.355 23.0913 18.3813 23.251 18.4341 23.3877C18.4878 23.5234 18.5708 23.625 18.6831 23.6924C18.7954 23.7598 18.917 23.7935 19.0479 23.7935C19.207 23.7935 19.3418 23.7476 19.4521 23.6558C19.5625 23.564 19.6372 23.4277 19.6763 23.2471ZM18.8208 24.2256L18.897 23.9663H19.0933L19.0449 24.123C19.1279 24.1328 19.1904 24.1582 19.2324 24.1992C19.2744 24.2412 19.2954 24.2876 19.2954 24.3384C19.2954 24.4116 19.2603 24.4761 19.1899 24.5317C19.1196 24.5884 19.0137 24.6167 18.8721 24.6167C18.792 24.6167 18.7217 24.6108 18.6611 24.5991L18.6772 24.4277C18.7397 24.4316 18.7856 24.4336 18.8149 24.4336C18.9067 24.4336 18.9712 24.4209 19.0083 24.3955C19.0366 24.376 19.0508 24.3521 19.0508 24.3237C19.0508 24.3062 19.0449 24.2905 19.0332 24.2769C19.0225 24.2632 19.002 24.2515 18.9717 24.2417C18.9414 24.2319 18.8911 24.2266 18.8208 24.2256ZM20.2256 22.9541C20.2256 22.5977 20.3213 22.3188 20.5127 22.1177C20.7041 21.9155 20.9512 21.8145 21.2539 21.8145C21.4521 21.8145 21.6309 21.8618 21.79 21.9565C21.9492 22.0513 22.0703 22.1836 22.1533 22.3535C22.2373 22.5225 22.2793 22.7144 22.2793 22.9292C22.2793 23.147 22.2354 23.3418 22.1475 23.5137C22.0596 23.6855 21.9351 23.8159 21.7739 23.9048C21.6128 23.9927 21.439 24.0366 21.2524 24.0366C21.0503 24.0366 20.8696 23.9878 20.7104 23.8901C20.5513 23.7925 20.4307 23.6592 20.3486 23.4902C20.2666 23.3213 20.2256 23.1426 20.2256 22.9541ZM20.5186 22.9585C20.5186 23.2173 20.5879 23.4214 20.7266 23.5708C20.8662 23.7192 21.041 23.7935 21.251 23.7935C21.4648 23.7935 21.6406 23.7183 21.7783 23.5679C21.917 23.4175 21.9863 23.2041 21.9863 22.9277C21.9863 22.7529 21.9565 22.6006 21.897 22.4707C21.8384 22.3398 21.752 22.2388 21.6377 22.1675C21.5244 22.0952 21.397 22.0591 21.2554 22.0591C21.0542 22.0591 20.8809 22.1284 20.7354 22.2671C20.5908 22.4048 20.5186 22.6353 20.5186 22.9585ZM23.4819 24V21.8525H24.2217C24.3887 21.8525 24.5161 21.8628 24.604 21.8833C24.7271 21.9116 24.832 21.9629 24.9189 22.0371C25.0322 22.1328 25.1167 22.2554 25.1724 22.4048C25.229 22.5532 25.2573 22.7231 25.2573 22.9146C25.2573 23.0776 25.2383 23.2222 25.2002 23.3481C25.1621 23.4741 25.1133 23.5786 25.0537 23.6616C24.9941 23.7437 24.9287 23.8086 24.8574 23.8564C24.7871 23.9033 24.7017 23.939 24.6011 23.9634C24.5015 23.9878 24.3867 24 24.2568 24H23.4819ZM23.7661 23.7466H24.2246C24.3662 23.7466 24.4771 23.7334 24.5571 23.707C24.6382 23.6807 24.7026 23.6436 24.7505 23.5957C24.8179 23.5283 24.8701 23.438 24.9072 23.3247C24.9453 23.2104 24.9644 23.0723 24.9644 22.9102C24.9644 22.6855 24.9272 22.5132 24.853 22.3931C24.7798 22.272 24.6904 22.1909 24.585 22.1499C24.5088 22.1206 24.3862 22.106 24.2173 22.106H23.7661V23.7466ZM25.6558 24V21.8525H27.2085V22.106H25.9399V22.7637H27.1279V23.0156H25.9399V23.7466H27.2583V24H25.6558ZM29.3721 24H29.1084V22.3198C29.0449 22.3804 28.9614 22.4409 28.8579 22.5015C28.7554 22.562 28.6631 22.6074 28.5811 22.6377V22.3828C28.7285 22.3135 28.8574 22.2295 28.9678 22.1309C29.0781 22.0322 29.1562 21.9365 29.2021 21.8438H29.3721V24ZM30.4546 22.8354C30.3452 22.7954 30.2642 22.7383 30.2114 22.6641C30.1587 22.5898 30.1323 22.501 30.1323 22.3975C30.1323 22.2412 30.1885 22.1099 30.3008 22.0034C30.4131 21.897 30.5625 21.8438 30.749 21.8438C30.9365 21.8438 31.0874 21.8984 31.2017 22.0078C31.3159 22.1162 31.373 22.2485 31.373 22.4048C31.373 22.5044 31.3467 22.5913 31.2939 22.6655C31.2422 22.7388 31.1631 22.7954 31.0566 22.8354C31.1885 22.8784 31.2886 22.9478 31.3569 23.0435C31.4263 23.1392 31.4609 23.2534 31.4609 23.3862C31.4609 23.5698 31.396 23.7241 31.2661 23.8491C31.1362 23.9741 30.9653 24.0366 30.7534 24.0366C30.5415 24.0366 30.3706 23.9741 30.2407 23.8491C30.1108 23.7231 30.0459 23.5664 30.0459 23.3789C30.0459 23.2393 30.0811 23.1226 30.1514 23.0288C30.2227 22.9341 30.3237 22.8696 30.4546 22.8354ZM30.4019 22.3887C30.4019 22.4902 30.4346 22.5732 30.5 22.6377C30.5654 22.7021 30.6504 22.7344 30.7549 22.7344C30.8564 22.7344 30.9395 22.7026 31.0039 22.6392C31.0693 22.5747 31.1021 22.4961 31.1021 22.4033C31.1021 22.3066 31.0684 22.2256 31.001 22.1602C30.9346 22.0938 30.8516 22.0605 30.752 22.0605C30.6514 22.0605 30.5679 22.0928 30.5015 22.1572C30.4351 22.2217 30.4019 22.2988 30.4019 22.3887ZM30.3169 23.3804C30.3169 23.4556 30.3345 23.5283 30.3696 23.5986C30.4058 23.6689 30.459 23.7236 30.5293 23.7627C30.5996 23.8008 30.6753 23.8198 30.7563 23.8198C30.8823 23.8198 30.9863 23.7793 31.0684 23.6982C31.1504 23.6172 31.1914 23.5142 31.1914 23.3892C31.1914 23.2622 31.1489 23.1572 31.064 23.0742C30.98 22.9912 30.8745 22.9497 30.7476 22.9497C30.6235 22.9497 30.5205 22.9907 30.4385 23.0728C30.3574 23.1548 30.3169 23.2573 30.3169 23.3804ZM33.1045 23.7466V24H31.6851C31.6831 23.9365 31.6934 23.8755 31.7158 23.8169C31.752 23.7202 31.8096 23.625 31.8887 23.5312C31.9688 23.4375 32.084 23.3291 32.2344 23.2061C32.4678 23.0146 32.6255 22.8633 32.7075 22.752C32.7896 22.6396 32.8306 22.5337 32.8306 22.4341C32.8306 22.3296 32.793 22.2417 32.7178 22.1704C32.6436 22.0981 32.5464 22.062 32.4263 22.062C32.2993 22.062 32.1978 22.1001 32.1216 22.1763C32.0454 22.2524 32.0068 22.3579 32.0059 22.4927L31.7349 22.4648C31.7534 22.2627 31.8232 22.1089 31.9443 22.0034C32.0654 21.897 32.228 21.8438 32.4321 21.8438C32.6382 21.8438 32.8013 21.9009 32.9214 22.0151C33.0415 22.1294 33.1016 22.271 33.1016 22.4399C33.1016 22.5259 33.084 22.6104 33.0488 22.6934C33.0137 22.7764 32.9551 22.8638 32.873 22.9556C32.792 23.0474 32.6567 23.1733 32.4673 23.3335C32.3091 23.4663 32.2075 23.5566 32.1626 23.6045C32.1177 23.6514 32.0806 23.6987 32.0513 23.7466H33.1045ZM33.3901 23.4331L33.6538 23.3979C33.6841 23.5474 33.7354 23.6553 33.8076 23.7217C33.8809 23.7871 33.9697 23.8198 34.0742 23.8198C34.1982 23.8198 34.3027 23.7769 34.3877 23.6909C34.4736 23.605 34.5166 23.4985 34.5166 23.3716C34.5166 23.2505 34.4771 23.1509 34.3979 23.0728C34.3188 22.9937 34.2183 22.9541 34.0962 22.9541C34.0464 22.9541 33.9844 22.9639 33.9102 22.9834L33.9395 22.752C33.957 22.7539 33.9712 22.7549 33.9819 22.7549C34.0942 22.7549 34.1953 22.7256 34.2852 22.667C34.375 22.6084 34.4199 22.5181 34.4199 22.396C34.4199 22.2993 34.3872 22.2192 34.3218 22.1558C34.2563 22.0923 34.1719 22.0605 34.0684 22.0605C33.9658 22.0605 33.8804 22.0928 33.812 22.1572C33.7437 22.2217 33.6997 22.3184 33.6802 22.4473L33.4165 22.4004C33.4487 22.2236 33.522 22.0869 33.6362 21.9902C33.7505 21.8926 33.8926 21.8438 34.0625 21.8438C34.1797 21.8438 34.2876 21.8691 34.3862 21.9199C34.4849 21.9697 34.5601 22.0381 34.6118 22.125C34.6646 22.2119 34.6909 22.3042 34.6909 22.4019C34.6909 22.4946 34.666 22.5791 34.6162 22.6553C34.5664 22.7314 34.4927 22.792 34.395 22.8369C34.522 22.8662 34.6206 22.9272 34.6909 23.02C34.7612 23.1118 34.7964 23.2271 34.7964 23.3657C34.7964 23.5532 34.728 23.7124 34.5913 23.8433C34.4546 23.9731 34.2817 24.0381 34.0728 24.0381C33.8843 24.0381 33.7275 23.9819 33.6025 23.8696C33.4785 23.7573 33.4077 23.6118 33.3901 23.4331Z" fill="white"/>
<path d="M19 0L21.4697 7.60081H29.4616L22.996 12.2984L25.4656 19.8992L19 15.2016L12.5344 19.8992L15.004 12.2984L8.53838 7.60081H16.5303L19 0Z" fill="white"/>
</g>
<defs>
<clipPath id="clip0_1_1934">
<rect width="100" height="66.6667" fill="white"/>
</clipPath>
</defs>
</svg>
