<svg width="100" height="70" viewBox="0 0 100 70" fill="none" xmlns="http://www.w3.org/2000/svg">
<g clip-path="url(#clip0_1_1932)">
<path d="M99.9999 0H0V69.9395H99.9999V0Z" fill="white"/>
<path fill-rule="evenodd" clip-rule="evenodd" d="M33.5487 0L100 36.3538V0H33.5487ZM0.00012207 33.5858V69.9395H66.4515L0.00012207 33.5858Z" fill="#008C43"/>
<path fill-rule="evenodd" clip-rule="evenodd" d="M66.9249 35.0907L66.6461 35.2152C65.4397 34.6318 64.227 34.0877 63.0083 33.5845C61.7896 33.0814 60.5648 32.6191 59.3345 32.1994C58.1043 31.7796 56.8683 31.4024 55.6272 31.0691C54.386 30.7358 53.1398 30.4465 51.8885 30.2029C50.6372 29.9592 49.381 29.7613 48.1203 29.6104C46.8597 29.4596 45.5944 29.3561 44.325 29.3012C43.0556 29.2463 41.7822 29.2399 40.5049 29.2841C39.8662 29.3062 39.2266 29.3411 38.586 29.3885C37.9455 29.436 37.3041 29.4962 36.6618 29.5694L36.6264 29.5225C36.5191 30.2398 36.4621 30.9638 36.4559 31.6892C36.4559 35.7956 38.0815 39.7339 40.975 42.6376C43.8686 45.5413 47.7931 47.1726 51.8853 47.1726C55.3861 47.1696 58.7819 45.972 61.5148 43.7764C64.2478 41.5809 66.1555 38.5179 66.9246 35.0906L66.9249 35.0907Z" fill="#2649A5"/>
<path fill-rule="evenodd" clip-rule="evenodd" d="M67.299 31.2381L66.9512 31.0953C65.8062 30.5109 64.6483 29.9747 63.4795 29.485C62.3106 28.9954 61.1305 28.552 59.9414 28.1533C58.7524 27.7546 57.5542 27.4006 56.3488 27.0891C55.1434 26.7775 53.9308 26.5086 52.7128 26.2804C51.4947 26.0522 50.2713 25.8647 49.0444 25.716C47.8175 25.5673 46.587 25.4571 45.355 25.3841C44.123 25.311 42.8895 25.275 41.6561 25.2737C40.4228 25.2726 39.1896 25.3064 37.9587 25.3732H37.8122C37.2259 26.694 36.8268 28.0906 36.6267 29.5225L36.6621 29.5694C37.3044 29.4962 37.9458 29.436 38.5863 29.3886C39.2268 29.3411 39.8665 29.3062 40.5052 29.2841C41.7825 29.24 43.0559 29.2464 44.3253 29.3013C45.5947 29.3562 46.8599 29.4596 48.1206 29.6105C49.3813 29.7613 50.6375 29.9593 51.8888 30.2029C53.1401 30.4465 54.3863 30.7358 55.6274 31.0691C56.8686 31.4024 58.1046 31.7796 59.3348 32.1994C60.5651 32.6192 61.7899 33.0814 63.0086 33.5846C64.2273 34.0877 65.44 34.6319 66.6464 35.2152L66.8723 35.3243L66.9249 35.0907C67.1798 33.9749 67.3106 32.8341 67.3149 31.6893C67.3092 31.5388 67.3064 31.3885 67.2989 31.2382L67.299 31.2381Z" fill="white"/>
<path d="M42.3497 26.0343L42.2497 28.8206L42.9684 28.8463L43.0009 27.9388L43.4482 27.955C43.6515 27.9623 43.822 27.9402 43.96 27.8889C44.0993 27.8377 44.2266 27.7593 44.3415 27.6535C44.4255 27.5753 44.4913 27.4775 44.5392 27.3605C44.5871 27.2423 44.6135 27.1209 44.618 26.9962C44.6237 26.8352 44.5988 26.6965 44.543 26.5796C44.4885 26.4627 44.4063 26.3654 44.2967 26.2878C44.2053 26.2233 44.0989 26.1737 43.9777 26.1394C43.8578 26.1039 43.7094 26.0832 43.5322 26.0768L42.3497 26.0343ZM46.3896 26.2128L45.1629 28.9201L45.8854 28.972L46.1182 28.4235L47.1494 28.4976L47.3013 29.0735L48.0427 29.1269L47.2151 26.2721L46.3896 26.2128ZM49.24 26.4515L48.8603 29.2136L49.5689 29.3113L49.7082 28.2984L50.0366 28.3436L50.6502 29.46L51.5203 29.5795L50.7612 28.2692C50.9485 28.208 51.0979 28.1197 51.2096 28.004C51.3225 27.8885 51.3931 27.7286 51.4211 27.5246C51.4416 27.3762 51.4277 27.249 51.3793 27.1428C51.3323 27.0355 51.261 26.9436 51.1656 26.8675C51.0715 26.7916 50.967 26.7364 50.852 26.7017C50.7371 26.667 50.5981 26.6383 50.4348 26.6159L49.24 26.4515ZM43.0496 26.5805L43.1732 26.5849C43.2917 26.5891 43.3863 26.5942 43.4573 26.6005C43.5283 26.6056 43.6007 26.6245 43.6744 26.6572C43.7298 26.6816 43.7778 26.7231 43.8181 26.782C43.8585 26.8396 43.8773 26.9078 43.8745 26.9864C43.8716 27.0663 43.8585 27.134 43.8352 27.1894C43.8133 27.2436 43.7787 27.2898 43.7311 27.3281C43.6758 27.3711 43.6079 27.3986 43.5275 27.4107C43.4484 27.4228 43.3477 27.4266 43.2254 27.4222L43.0198 27.4148L43.0496 26.5805ZM46.7419 26.9534L47.0122 27.9754L46.3286 27.9261L46.7419 26.9534ZM49.8787 27.0572L50.1366 27.0929C50.2219 27.1047 50.2966 27.1172 50.3602 27.131C50.424 27.1435 50.4784 27.1633 50.5239 27.1897C50.5893 27.2277 50.633 27.2732 50.6546 27.3266C50.6763 27.38 50.6822 27.4411 50.6726 27.5104C50.6619 27.5883 50.6415 27.6493 50.6116 27.693C50.583 27.7357 50.5415 27.7727 50.4868 27.8043C50.4294 27.8367 50.3617 27.8532 50.2835 27.8538C50.2053 27.8544 50.1093 27.847 49.9955 27.8314L49.7766 27.8013L49.8787 27.0572ZM53.5357 27.1493L51.9383 29.6559L52.6464 29.8093L52.9544 29.2995L53.9646 29.5184L54.0337 30.1102L54.76 30.2678L54.3443 27.3245L53.5357 27.1493ZM56.3518 27.8107L55.5546 30.4826L56.1862 30.6708L56.7332 28.8372L57.3201 31.0092L57.9842 31.2075L58.7814 28.5356L58.1497 28.3471L57.693 29.8778L57.1755 28.0565L56.3518 27.8107ZM53.7796 27.9323L53.9027 28.982L53.2329 28.8369L53.7796 27.9323ZM61.4319 28.3657L60.7422 28.8941L61.1738 29.0546L62.035 28.6298L62.048 28.5947L61.4319 28.3657ZM60.7014 29.2127L58.7642 31.4668L59.4434 31.7196L59.8208 31.2585L60.7894 31.6187L60.7737 32.2144L61.4706 32.4735L61.4771 29.5013L60.7014 29.2127ZM60.8318 30.0223L60.8044 31.0791L60.1621 30.8402L60.8318 30.0223Z" fill="#008C43" stroke="#F9F9F9" stroke-width="0.1"/>
<path fill-rule="evenodd" clip-rule="evenodd" d="M51.8856 16.2059C48.9085 16.2086 45.9957 17.0755 43.4986 18.7021C41.0014 20.3287 39.0266 22.6456 37.8122 25.3732H37.9587C39.1896 25.3064 40.4228 25.2726 41.6562 25.2738C42.8895 25.2749 44.123 25.3111 45.355 25.3841C46.587 25.4572 47.8175 25.5673 49.0444 25.716C50.2713 25.8648 51.4947 26.0522 52.7128 26.2804C53.9308 26.5086 55.1434 26.7776 56.3488 27.0891C57.5542 27.4007 58.7524 27.7546 59.9414 28.1533C61.1305 28.552 62.3106 28.9954 63.4795 29.4851C64.6483 29.9748 65.8062 30.5109 66.9512 31.0954L67.299 31.2382C67.1821 27.2132 65.5072 23.3922 62.6296 20.5858C59.7521 17.7794 55.8982 16.2084 51.8856 16.2059Z" fill="#2649A5"/>
<path fill-rule="evenodd" clip-rule="evenodd" d="M51.9956 18.427L51.4114 20.3164L49.4359 20.4063L51.0524 21.5458L50.5272 23.4523L52.1104 22.2674L53.7617 23.3558L53.1238 21.4838L54.6692 20.25L52.6919 20.278L51.9956 18.427ZM41.8877 31.5377L41.4298 33.0471L39.8546 33.1273L41.1487 34.0289L40.7383 35.5519L41.9957 34.5998L43.3172 35.4607L42.8006 33.9708L44.0276 32.9801L42.4506 33.0111L41.8877 31.5377ZM52.2354 33.3719L51.8327 34.737L50.4121 34.8202L51.5858 35.6251L51.2261 37.002L52.3543 36.1343L53.5525 36.902L53.076 35.561L54.1765 34.6585L52.7538 34.6972L52.2354 33.3719ZM59.6078 33.7445L59.1457 35.2383L57.5835 35.3094L58.8616 36.2107L58.4465 37.7183L59.6983 36.7813L61.0041 37.6419L60.4996 36.1617L61.7217 35.1858L60.158 35.2082L59.6078 33.7445ZM51.6041 41.0974L51.1834 42.4849L49.7353 42.5587L50.9249 43.3874L50.5476 44.7873L51.7035 43.9123L52.9184 44.7038L52.4434 43.334L53.5714 42.4232L52.1219 42.4516L51.6041 41.0974Z" fill="white"/>
<path fill-rule="evenodd" clip-rule="evenodd" d="M48.2863 56.9492C47.9516 56.8868 47.229 56.6059 47.229 56.5381C47.229 56.3351 48.8426 55.3028 50.6091 54.3758C51.2013 54.0651 51.6665 53.7798 51.643 53.7419C51.5525 53.5953 48.9503 52.5404 48.6793 52.5404C48.5302 52.5404 48.3455 53.0491 48.4018 53.3051C48.436 53.4612 48.5237 53.5562 48.7021 53.6308C49.1497 53.8178 49.2381 54.1977 48.9216 54.5739C48.7044 54.832 48.5353 54.8608 48.2134 54.6943C47.9706 54.5687 47.8698 54.2703 47.9552 53.9301C47.9849 53.8114 48.0154 53.4926 48.0228 53.2217C48.0303 52.9508 48.0628 52.6357 48.0947 52.5215C48.1404 52.3595 48.1272 52.3138 48.0363 52.3138C47.862 52.3138 47.6468 52.6294 47.4976 53.1036C47.3754 53.4923 47.3744 53.5403 47.4856 53.7101C47.6389 53.944 47.6403 54.2712 47.4914 54.4873C47.401 54.6164 47.299 54.6552 47.0499 54.6552C46.638 54.6552 46.476 54.4888 46.476 54.0656C46.476 53.7556 46.4914 53.7352 46.9133 53.4792C46.9635 53.4488 47.2309 52.6467 47.226 52.5414C47.2203 52.4403 47.2146 52.4402 47.1689 52.5403C46.972 52.9711 46.5717 53.5559 46.3727 53.7035C46.0978 53.9074 45.9254 53.9655 45.3053 54.0628C44.0824 54.2548 43.8956 54.2273 43.3547 53.7759C43.2373 53.6779 43.0786 53.5977 43.0022 53.5977C42.7935 53.5977 42.2339 53.3319 42.0198 53.1311C41.8086 52.9331 41.6422 52.6657 41.6422 52.5245C41.6422 52.4731 41.4977 52.3066 41.3212 52.1544L41.0002 51.8777L41.0179 51.1796C41.0276 50.7957 41.0745 50.435 41.1216 50.378C41.2276 50.2503 41.58 50.2424 41.7026 50.3651C41.8147 50.4772 41.8143 50.466 41.6906 50.0521C41.6043 49.7636 41.5117 49.6607 41.0309 49.3196C40.7232 49.1013 40.4154 48.921 40.3469 48.9189C40.2783 48.9166 40.0465 49.1074 39.8315 49.3426C39.5293 49.6732 39.4521 49.806 39.4912 49.9279C39.5186 50.0147 39.5595 50.181 39.5815 50.2976C39.6781 50.811 38.8855 51.1049 38.5511 50.6797C38.2718 50.3247 38.3759 49.9865 38.8366 49.7514C38.9939 49.6712 39.2132 49.4684 39.3241 49.3009C39.435 49.1333 39.6281 48.9206 39.7532 48.8281C39.9742 48.6647 40.046 48.5373 39.9172 48.5373C39.8824 48.5373 39.7252 48.6478 39.5679 48.7828C39.4106 48.9178 39.0908 49.1723 38.8571 49.3484C38.4495 49.6557 38.4102 49.6687 37.8891 49.6694C37.5904 49.6699 37.325 49.6363 37.2994 49.5947C37.2737 49.5531 37.1311 49.5192 36.9826 49.5192C36.3667 49.5192 35.7421 49.1581 35.4925 48.6579C35.4323 48.5373 35.2213 48.3164 35.0236 48.167C34.563 47.8188 34.3789 47.501 34.374 47.0458C34.374 46.8235 34.3166 46.6105 34.2297 46.4864C34.0681 46.2556 34.0342 45.526 34.1783 45.3818C34.2274 45.3328 34.3402 45.1476 34.4294 44.9702C34.5365 44.7567 34.6491 44.6391 34.762 44.6226C34.9779 44.5911 35.2046 44.7927 35.2444 45.052C35.2615 45.1619 35.2804 44.886 35.2866 44.4388C35.2969 43.7128 35.2798 43.5978 35.1281 43.3635C34.9194 43.0414 34.8257 43.0345 34.618 43.3262C34.4818 43.5175 34.4642 43.6157 34.5062 43.9516C34.5473 44.2827 34.5307 44.3811 34.408 44.5329C34.0917 44.9234 33.3343 44.6463 33.3343 44.1401C33.3343 43.8901 33.6304 43.5524 33.8498 43.5524C34.0206 43.5524 34.6265 42.68 34.5657 42.5216C34.4636 42.2557 33.6363 42.5706 33.6363 42.8753C33.6363 43.1539 33.4241 43.4618 33.1976 43.5115C32.5664 43.6501 32.1712 42.9714 32.6212 42.5214C32.7734 42.3692 32.8657 42.3366 33.0555 42.3678C33.556 42.4502 34.3729 41.8437 33.9697 41.689C33.8511 41.6435 32.8344 41.936 32.696 42.0555C32.6566 42.0895 32.4543 42.1174 32.2466 42.1174C31.9547 42.1174 31.7777 42.0622 31.4686 41.8748C31.2484 41.7414 31.0684 41.6055 31.0684 41.5727C31.0684 41.54 31.0165 41.5132 30.9535 41.5132C30.5534 41.5132 29.8599 40.7131 29.8599 40.2516C29.8599 40.1258 29.7966 39.9419 29.7192 39.8428C29.3032 39.3102 29.1403 38.622 29.3415 38.2463C29.3889 38.1581 29.4215 37.8559 29.4144 37.5747L29.4012 37.0634L29.8505 36.607C30.3087 36.1416 30.4317 36.0877 30.7031 36.2329C30.8473 36.3101 30.8552 36.3728 30.8303 37.2464C30.8052 38.1237 30.8137 38.189 30.9737 38.3732C31.1008 38.5194 31.1437 38.6631 31.1437 38.9431C31.1437 39.2435 31.1745 39.3339 31.2987 39.4005C31.5103 39.5137 31.7473 39.9203 31.7476 40.1706C31.7476 40.3219 31.8069 40.4068 31.9707 40.4916C32.2525 40.6373 32.2768 40.636 32.2758 40.4746C32.2758 40.4019 32.1467 40.2065 31.9898 40.0403C31.8329 39.8742 31.6552 39.5857 31.5949 39.3994C31.5346 39.213 31.3915 38.8796 31.2768 38.6584C31.1175 38.3515 31.0681 38.1502 31.0681 37.8077C31.0681 37.559 31.0345 37.3591 30.9926 37.3591C30.8504 37.3591 30.9071 36.5482 31.0678 36.2846C31.1508 36.1486 31.2188 35.9676 31.2189 35.8825C31.2189 35.7973 31.2589 35.6879 31.3076 35.6393C31.3747 35.5721 31.375 35.4823 31.3076 35.2654C31.2596 35.1084 31.2114 34.8949 31.2004 34.7911C31.1684 34.4891 30.7785 34.4908 30.4327 34.7945C30.1707 35.0245 30.1627 35.0468 30.2067 35.4219C30.2461 35.7591 30.2301 35.8306 30.0871 35.9601C29.8813 36.1462 29.4036 36.1597 29.2283 35.9844C29.1502 35.9063 29.1032 35.7358 29.1032 35.5303C29.1032 35.2473 29.134 35.1832 29.3225 35.0718C29.4432 35.0005 29.5877 34.9422 29.6436 34.9422C29.6996 34.9422 29.8379 34.826 29.9512 34.6841C30.0644 34.5421 30.2954 34.365 30.4643 34.2904C30.7547 34.1623 30.762 34.1514 30.5983 34.0902C30.2854 33.9733 29.8241 34.0942 29.6418 34.3408C29.5092 34.5202 29.4197 34.5645 29.1907 34.5645C28.6421 34.5645 28.3936 34.0596 28.731 33.6306C28.9127 33.3997 29.2729 33.3624 29.5367 33.5472C29.6497 33.6263 29.9167 33.668 30.3844 33.6795L31.0669 33.6962V33.4865C31.0669 33.2308 30.9591 33.1836 30.0851 33.0574C29.732 33.0064 29.3395 32.9214 29.213 32.8685C28.9316 32.7509 28.6211 32.3926 28.422 31.9556C28.3399 31.7755 28.2396 31.6076 28.1991 31.5825C28.1585 31.5574 28.0672 31.4143 27.9961 31.2645C27.8457 30.9476 27.8266 30.0926 27.9664 29.9245C28.0259 29.8527 28.0391 29.6982 28.0052 29.471C27.9132 28.8572 28.0172 28.4821 28.3853 28.1036C28.5663 27.9174 28.7357 27.6682 28.7616 27.55C28.8586 27.1086 29.2415 26.8823 30.1432 26.7335C30.4825 26.6775 30.6403 26.8211 30.5888 27.1387L30.5488 27.3861L30.7443 27.2049C30.9247 27.0376 30.9323 27.0057 30.8434 26.7911C30.7752 26.6264 30.6963 26.5585 30.573 26.5585C30.4729 26.5585 30.3292 26.4701 30.2354 26.3508C29.796 25.7922 30.5372 25.0232 31.0524 25.5032C31.2713 25.7071 31.3319 25.983 31.218 26.2579C31.1427 26.4395 31.1439 26.5063 31.2242 26.603C31.3132 26.7101 31.3308 26.7041 31.3905 26.5463C31.4271 26.4491 31.4895 26.1729 31.5289 25.9323C31.5871 25.5775 31.5786 25.4639 31.485 25.3302C31.3297 25.1086 31.342 24.8237 31.5169 24.5965C31.6294 24.4501 31.7294 24.4094 31.9764 24.4094C32.3407 24.4094 32.5782 24.6282 32.5782 24.964C32.5782 25.1971 32.3886 25.5011 32.2433 25.5011C32.077 25.5011 31.9705 25.6931 31.9014 26.1172C31.8495 26.435 31.8591 26.5448 31.9454 26.634C32.0424 26.7342 32.0852 26.7123 32.3138 26.4452C32.4561 26.279 32.5737 26.0866 32.5753 26.0176C32.581 25.8706 32.9927 25.5011 33.1542 25.5011C33.331 25.5011 33.6883 25.7106 33.7396 25.8444C33.8275 26.0732 33.787 26.3111 33.6249 26.5171C33.4783 26.7035 33.4247 26.7203 33.0486 26.6972C32.6695 26.674 32.6205 26.6897 32.4766 26.8813L32.3193 27.0909L32.5242 27.2809L32.7291 27.471V27.2564C32.7291 27.1384 32.7702 27.0011 32.8198 26.9513C32.9442 26.8268 33.2739 26.8374 33.4511 26.9715C33.5318 27.0325 33.673 27.0835 33.765 27.0848C34.0473 27.0888 34.4379 27.4986 34.5378 27.8954C34.5869 28.0908 34.7083 28.3317 34.8074 28.4308C35.0766 28.6999 35.1745 29.0754 35.1049 29.5709C35.0723 29.8042 35.0535 30.2728 35.0638 30.6123C35.0849 31.3209 35.0798 31.3339 34.4111 32.2387C34.0132 32.7772 33.8567 32.9272 33.5469 33.0672C33.187 33.2298 33.1772 33.2419 33.3453 33.3146C33.4426 33.3566 33.5636 33.4426 33.6142 33.5057C33.7435 33.6669 33.7329 34.0466 33.5937 34.2456C33.3714 34.5629 32.5782 34.4131 32.5782 34.0539C32.5782 34.008 32.5188 33.9523 32.4461 33.93C32.2941 33.8834 31.7609 33.9922 31.6634 34.0898C31.603 34.1502 31.738 34.9614 31.8571 35.253C31.917 35.3998 32.2131 35.548 32.5941 35.6218C32.8478 35.671 32.8674 35.6633 32.8017 35.5407C32.6975 35.346 32.7125 35.1257 32.8371 35.0224C32.8964 34.9732 33.1323 34.9187 33.3614 34.9013C33.5904 34.8839 33.8054 34.865 33.8391 34.8592C34.0866 34.8169 34.2983 34.9071 34.5556 35.1644C34.7193 35.3281 34.9725 35.5015 35.1182 35.5495C35.5246 35.6837 35.87 36.0784 36.0138 36.5731C36.0827 36.8098 36.2335 37.126 36.3492 37.2757C36.6498 37.6648 36.7547 37.9823 36.7064 38.3567C36.5519 39.5521 36.4971 39.8118 36.3403 40.0899C36.2343 40.278 36.0323 40.4767 35.8244 40.5974C35.6364 40.7064 35.2881 40.9093 35.0502 41.0483C34.8123 41.1873 34.6184 41.3402 34.6194 41.3882C34.6194 41.4362 34.6815 41.5539 34.7553 41.6499L34.8895 41.8243L35.5057 41.2156C36.185 40.5444 36.3541 40.4834 36.7032 40.7837C37.2435 41.2485 36.5778 42.1335 36.0105 41.7044C35.9299 41.6434 35.8181 41.5924 35.7621 41.5911C35.6071 41.5877 35.222 42.0363 35.222 42.2205C35.222 42.3099 35.4044 42.6207 35.6273 42.9111C36.0129 43.4134 36.0466 43.4383 36.3187 43.4212C36.6808 43.3984 36.696 43.3801 36.5443 43.1486C36.3643 42.8738 36.4879 42.7016 37.0717 42.4142C37.4741 42.2161 37.6229 42.18 37.9054 42.2118C38.0945 42.2331 38.3118 42.3072 38.3883 42.3765C38.4816 42.4609 38.5913 42.4864 38.7211 42.4538C39.122 42.3532 39.701 42.6565 40.053 43.1514C40.1584 43.2996 40.4184 43.532 40.6307 43.6678C41.0469 43.9341 41.337 44.3966 41.3431 44.8036C41.3431 44.9255 41.3956 45.1612 41.4552 45.3274C41.5151 45.4935 41.5646 45.8303 41.5652 46.0757C41.5652 46.4838 41.539 46.5578 41.2476 46.9442C41.0723 47.1766 40.8344 47.4783 40.7189 47.6147C40.6034 47.7512 40.509 47.8933 40.509 47.9305C40.509 47.9678 40.7677 48.1872 41.084 48.4181C41.7202 48.8828 41.8249 48.8956 42.3319 48.5712C42.6057 48.396 43.1741 48.3332 43.3413 48.4597C43.383 48.4911 43.657 48.5359 43.9507 48.5593C44.2923 48.5865 44.5805 48.6584 44.7511 48.759C44.8977 48.8455 45.1919 48.968 45.4049 49.0313C45.6277 49.0974 45.9394 49.2737 46.1386 49.4461C46.5809 49.8289 46.7443 49.8479 46.603 49.5003C46.5345 49.3318 46.4457 49.248 46.3195 49.2328C46.0418 49.1996 45.7783 49.0536 45.5773 48.8216C45.4246 48.6455 45.3373 48.6129 45.018 48.6129C44.73 48.6129 44.58 48.5674 44.3904 48.4229C44.174 48.2578 44.1028 48.2416 43.8472 48.299C43.3977 48.4 42.3793 48.3203 42.2649 48.1751C42.1068 47.9743 42.153 47.8732 42.6255 47.3842L43.0804 46.9135L43.5885 46.9063C43.8679 46.9023 44.1922 46.8598 44.3092 46.8119C44.7353 46.6371 45.2194 46.7329 45.7582 47.0986C45.8828 47.1832 46.0721 47.2526 46.179 47.2529C46.2857 47.2532 46.5576 47.3468 46.7831 47.4611C47.2014 47.6729 47.2029 47.6748 47.9543 48.8961C48.2623 49.3968 48.2675 49.6953 47.9839 50.5734C47.8394 51.0204 47.765 51.3644 47.805 51.4005C47.9063 51.4921 48.3825 51.6409 48.4282 51.5952C48.4499 51.5735 48.4625 51.303 48.4562 50.9942C48.4453 50.4727 48.4562 50.4216 48.6412 50.278C48.9076 50.0685 49.2046 50.0813 49.421 50.3116C49.7585 50.6709 49.5385 51.2904 49.0535 51.3467C48.8892 51.3657 48.8551 51.4081 48.8551 51.5931C48.8551 51.7799 48.8985 51.8322 49.1195 51.9122C49.5024 52.0509 52.1986 53.0591 52.5631 53.2L52.8723 53.3195L54.3607 52.6845L55.8491 52.0494L56.0837 51.5605C56.3178 51.073 56.3182 51.07 56.2245 50.5031C56.1725 50.1904 56.0993 49.9023 56.0614 49.8629C55.9433 49.7398 55.9797 49.6779 56.4532 49.1954C56.7066 48.9373 56.9654 48.6497 57.0284 48.5562C57.1712 48.3442 57.3521 48.3354 57.3521 48.5405C57.3521 48.6879 57.5462 49.7209 57.6236 49.9853C57.6476 50.0662 57.5473 50.2151 57.3445 50.4007C56.914 50.7946 56.5968 51.2425 56.5968 51.4565C56.5968 51.6713 56.6362 51.6745 57.0169 51.4899C57.3644 51.3214 57.5544 51.1232 57.8271 50.6445L58.025 50.297L58.5383 50.2534C59.2173 50.1958 59.2778 50.1655 59.3898 49.8259C59.506 49.4741 59.4788 49.2571 59.2049 48.3485C59.1713 48.2365 59.2824 48.0508 59.6343 47.631C59.8953 47.3194 60.1396 47.0475 60.177 47.0268C60.2141 47.006 60.3043 47.2269 60.3768 47.5177C60.4492 47.8085 60.5429 48.154 60.5849 48.2856C60.6558 48.5079 60.638 48.5508 60.331 48.8898C59.9531 49.3076 59.7373 49.7053 59.7999 49.8685C59.8818 50.0819 60.8264 49.2914 60.8264 49.0094C60.8264 48.8564 61.1202 48.6861 61.5114 48.6122C61.9768 48.5243 62.1469 48.3587 62.2161 47.9258C62.2808 47.5213 62.2104 47.1663 61.9594 46.6352C61.8701 46.4461 61.8878 46.4002 62.2224 45.9554C62.4197 45.6931 62.6148 45.3934 62.6559 45.2896L62.7305 45.1008L62.8331 45.3274C63.1373 45.9996 63.3337 46.607 63.2726 46.6865C62.7235 47.4002 62.4357 48.0086 62.6471 48.0086C62.9119 48.0086 63.5454 47.2804 63.5454 46.9762C63.5454 46.8709 63.7613 46.7591 64.3951 46.5362L64.7539 46.41V46.0409C64.7539 45.677 64.6322 45.38 64.2798 44.8833C64.1449 44.6932 64.1384 44.6457 64.2284 44.5057C64.4045 44.2312 64.7492 43.5191 64.7517 43.4247C64.7574 43.2113 64.9067 43.269 65.0291 43.5318C65.1021 43.6885 65.257 43.9735 65.3734 44.165C65.4897 44.3565 65.5849 44.5629 65.5849 44.6237C65.5849 44.6844 65.4808 44.9262 65.3537 45.161C65.1906 45.4621 65.1292 45.6677 65.1459 45.8582L65.1693 46.1283L65.4746 45.8411C65.711 45.6188 65.8027 45.458 65.881 45.1288C65.9798 44.7134 65.9922 44.6989 66.4254 44.4918C66.859 44.2846 66.8687 44.2732 66.868 43.9728C66.868 43.7213 66.7972 43.5725 66.4801 43.1503L66.0929 42.6348L66.1866 42.3195C66.238 42.146 66.3106 41.926 66.3479 41.8306C66.385 41.7352 66.4155 41.5757 66.4155 41.4763C66.4155 41.2747 66.4947 41.1946 66.617 41.2727C66.6615 41.3011 66.8777 41.5596 67.0975 41.8472C67.4964 42.3691 67.497 42.3707 67.4054 42.678C67.229 43.2705 67.1794 43.611 67.2381 43.8263L67.2974 44.0434L67.5255 43.8014C67.7489 43.5645 67.8506 43.1999 67.8506 42.6363C67.8506 42.4595 67.9239 42.3724 68.2606 42.1488C68.4862 41.999 68.6879 41.8316 68.709 41.7768C68.8089 41.5165 68.531 41.0813 67.9991 40.665C67.7417 40.4636 67.7416 40.4634 67.8338 40.1187C67.8847 39.929 67.9261 39.6404 67.9261 39.4773C67.9261 39.3141 67.9517 39.1653 67.9826 39.1466C68.0134 39.1278 68.2707 39.3281 68.5536 39.5916L69.068 40.0706L68.9883 40.3576C68.878 40.755 68.888 41.1552 69.0128 41.3256C69.1126 41.462 69.1258 41.4562 69.282 41.2078C69.4194 40.9895 69.4406 40.8675 69.4115 40.4631C69.3767 39.982 69.3784 39.9777 69.6942 39.6323C69.9965 39.3017 70.0075 39.273 69.926 39.0331C69.8384 38.7756 69.5904 38.5086 69.1535 38.2012L68.908 38.0286V37.3539C68.908 36.8313 68.9314 36.6793 69.0121 36.6793C69.0693 36.6793 69.1574 36.7291 69.2079 36.7899C69.2582 36.8508 69.479 37.0196 69.6981 37.165L70.0966 37.4295L70.0596 37.9468C70.0316 38.336 70.0533 38.5237 70.1469 38.7047C70.2153 38.8369 70.2892 38.9452 70.311 38.9452C70.3327 38.9452 70.3975 38.8332 70.4547 38.6962C70.5331 38.5086 70.5428 38.3188 70.4941 37.9258C70.4286 37.3977 70.4621 37.2401 70.6788 37.0604C70.7434 37.0068 70.7962 36.8666 70.7962 36.7488C70.7962 36.5195 70.5332 36.2624 69.9874 35.9582L69.701 35.7986L69.6328 35.1428C69.5951 34.7821 69.5814 34.4699 69.6025 34.4491C69.6231 34.4282 69.8956 34.5646 70.2075 34.752L70.7745 35.0929L70.8236 35.6239C70.8964 36.4071 71.1313 36.6932 71.3225 36.2317C71.4145 36.0094 71.3992 35.9162 71.1583 35.2357C71.101 35.074 71.1291 34.9737 71.3154 34.6803L71.5424 34.3223L71.3825 34.0783C71.2945 33.9441 71.1181 33.7918 70.9904 33.7399C70.8627 33.688 70.6903 33.6175 70.6072 33.5832C70.5241 33.5489 70.4029 33.5042 70.3378 33.4839C70.2651 33.4612 70.1821 33.2768 70.1222 33.005C70.0686 32.7619 69.9884 32.4858 69.9437 32.3915C69.7939 32.0751 69.9711 32.0572 70.6063 32.3244L71.2034 32.5755L71.3391 33.1274C71.4137 33.4308 71.5131 33.7254 71.56 33.782C71.815 34.0892 72.0061 33.644 71.8272 33.1597C71.7674 32.9977 71.6738 32.7559 71.6193 32.6225C71.5307 32.4055 71.5379 32.3467 71.6869 32.0677C71.9062 31.6569 71.8992 31.5992 71.5978 31.3345C71.4171 31.1759 71.1957 31.081 70.8432 31.0109C70.4522 30.9332 70.3343 30.8779 70.298 30.7555C70.2723 30.6696 70.1653 30.4031 70.0597 30.1634C69.9541 29.9237 69.8863 29.7089 69.9091 29.686C69.9319 29.6632 70.2397 29.702 70.5931 29.7721L71.2355 29.8997L71.4017 30.3557C71.5598 30.7893 71.836 31.1657 71.996 31.1657C72.1246 31.1657 72.1637 30.8891 72.0667 30.6646C72.0153 30.5456 71.8783 30.3061 71.7623 30.1325C71.5238 29.7756 71.5157 29.7152 71.6419 29.2429C71.7258 28.9296 71.7198 28.8905 71.5638 28.7243C71.3572 28.5044 70.9383 28.3715 70.4474 28.3701C70.087 28.3689 70.0738 28.3608 69.8738 28.0113C69.7613 27.8146 69.6098 27.5616 69.5372 27.449C69.4646 27.3364 69.4208 27.2291 69.4397 27.2104C69.4586 27.1917 69.7721 27.1952 70.1362 27.2181L70.7981 27.2597L71.0663 27.7014C71.4422 28.32 71.8537 28.5815 71.8531 28.2013C71.8531 27.9934 71.6539 27.6628 71.325 27.3228L71.0779 27.0674L71.1298 26.3169C71.1584 25.9041 71.2144 25.4802 71.2545 25.3748C71.3239 25.1922 71.3508 25.2192 71.824 25.9442L72.3208 26.7053L72.1883 27.2667C72.0744 27.7501 72.0701 27.8622 72.1575 28.0727L72.2588 28.3172L72.4337 28.0987C72.5796 27.9163 72.6085 27.7911 72.6089 27.3399V26.7995L73.0431 26.5569C73.282 26.4235 73.5348 26.2639 73.6049 26.2024C73.8177 26.0155 73.8721 26.1487 73.8343 26.7638C73.7978 27.3624 73.7228 27.6159 73.5828 27.6159C73.3796 27.6159 72.81 28.1091 72.6783 28.399C72.4979 28.7963 72.4985 28.9505 72.6841 29.33C72.8317 29.6356 72.8317 29.6391 72.6841 29.9447C72.5908 30.1377 72.5355 30.4091 72.5355 30.6738C72.5355 31.066 72.5458 31.0901 72.6803 31.0181C72.8284 30.9388 73.0391 30.3996 73.0794 29.9964C73.1 29.791 73.1573 29.7482 73.7265 29.5131C74.0699 29.3712 74.3692 29.2734 74.3915 29.2957C74.4138 29.3181 74.3796 29.5405 74.3147 29.7899C74.25 30.0394 74.1972 30.3159 74.1972 30.4044C74.1972 30.5065 74.1282 30.5915 74.0081 30.6371C73.279 30.9143 72.9695 31.1352 72.7716 31.5196C72.6622 31.7319 72.6631 32.0888 72.7716 32.3313C72.8462 32.4951 72.831 32.5623 72.6641 32.8069C72.4205 33.1637 72.2882 33.9918 72.487 33.9155C72.5907 33.8757 72.9427 33.2281 73.0836 32.818C73.1076 32.7477 73.2492 32.6742 73.4151 32.6456C73.5741 32.6182 73.8651 32.5567 74.0618 32.5089C74.2583 32.461 74.436 32.4387 74.4566 32.4593C74.4908 32.4937 74.0811 33.4972 73.9438 33.7148C73.9112 33.7667 73.7967 33.8093 73.6897 33.8093C73.3062 33.8093 72.8989 33.9909 72.6018 34.2945C72.3173 34.5852 72.3032 34.6213 72.3465 34.9448C72.3864 35.2424 72.367 35.3146 72.1992 35.4956C72.093 35.6102 71.9861 35.7959 71.9616 35.9084C71.937 36.0208 71.8875 36.2063 71.8515 36.3206C71.8007 36.4813 71.811 36.5283 71.8949 36.5283C72.0025 36.5283 72.3055 36.1484 72.5419 35.717C72.6574 35.5064 72.6962 35.4924 73.2882 35.4467C73.6316 35.4202 73.9401 35.4155 73.9737 35.4363C74.0074 35.4571 73.8739 35.7368 73.6775 36.0578L73.3204 36.6416L72.7858 36.6636C72.2962 36.6837 72.2245 36.7084 71.9341 36.957C71.6503 37.1999 71.6192 37.2593 71.6383 37.5222C71.6554 37.7628 71.6205 37.8518 71.4451 38.0146C71.2328 38.2115 70.8297 39.0038 70.904 39.0781C71.0078 39.1818 71.5585 38.6305 71.841 38.1401C71.9012 38.0357 73.2132 38.0957 73.2132 38.2029C73.2132 38.2399 73.0517 38.4886 72.8544 38.7556L72.4957 39.2411L71.9051 39.244C71.3766 39.2468 71.2802 39.2706 70.9889 39.471C70.6175 39.7265 70.5696 39.816 70.5696 40.255C70.5696 40.5397 70.5412 40.5886 70.2807 40.7495C70.0073 40.9185 69.5878 41.4655 69.5878 41.653C69.5878 41.9085 70.3109 41.4569 70.5438 41.0559L70.683 40.8163L71.242 40.8625C71.5494 40.8879 71.8807 40.9087 71.9784 40.9087C72.0759 40.9087 72.1549 40.9341 72.1538 40.9653C72.1538 40.9965 71.9522 41.2419 71.7083 41.5107L71.2648 41.9994L70.646 41.9759C70.1167 41.9559 69.9795 41.9776 69.6979 42.127C69.3477 42.3128 69.2659 42.4319 69.1622 42.9069C69.1085 43.1515 69.042 43.2339 68.7948 43.3601C68.4395 43.5415 68.3948 43.5813 68.1539 43.9298C68.0535 44.0752 67.9366 44.2178 67.8941 44.2467C67.76 44.3383 68.0391 44.3937 68.2432 44.3161C68.3488 44.276 68.6214 44.0914 68.8491 43.9061L69.2629 43.569L69.9553 43.7683C70.3465 43.8809 70.639 44.0044 70.6276 44.0523C70.5968 44.1814 69.5666 44.9852 69.4304 44.9862C69.3647 44.9867 69.2876 44.9639 69.2591 44.9354C69.1565 44.8328 68.6379 44.6873 68.3706 44.6862C68.2203 44.6856 67.9261 44.7563 67.7168 44.8432C67.3877 44.98 67.3162 45.0496 67.1885 45.3569C67.0641 45.6562 66.9944 45.7266 66.7471 45.8031C66.5055 45.8778 65.7358 46.4959 65.7358 46.6152C65.7358 46.6337 65.8222 46.6488 65.9277 46.6488C66.1205 46.6488 66.5929 46.4389 66.9443 46.1971C67.1283 46.0704 67.1501 46.0751 67.7922 46.3769C68.1547 46.5472 68.4516 46.7206 68.4521 46.7621C68.4521 46.8634 67.1131 47.5694 67.0656 47.4926C67.0244 47.4259 66.5065 47.1657 66.1474 47.0313C65.9657 46.9633 65.8224 46.9697 65.4706 47.0613C65.2251 47.1252 65.0003 47.22 64.9709 47.2719C64.9417 47.3239 64.8125 47.5108 64.6842 47.6873C64.4944 47.9486 64.4062 48.0083 64.2112 48.0083C63.9619 48.0083 63.2848 48.41 63.2067 48.6042C63.1474 48.7517 63.6885 48.6708 64.2085 48.4544L64.6071 48.2886L64.8882 48.5138C65.0429 48.6377 65.3151 48.8308 65.4932 48.9429C65.6713 49.055 65.7986 49.1763 65.7762 49.2125C65.754 49.2487 65.5402 49.3394 65.3014 49.414C65.0627 49.4886 64.7823 49.5935 64.6785 49.6471C64.4295 49.7756 64.4224 49.7745 64.1745 49.5659C63.8755 49.3145 63.4648 49.0932 63.1817 49.031C62.7347 48.9328 62.5095 49.0428 62.1692 49.5253C61.9959 49.771 61.8354 49.9748 61.8124 49.9781C61.7895 49.9816 61.5933 49.9932 61.3767 50.0041C61.1009 50.0181 60.8919 50.0842 60.6796 50.2246C60.5129 50.335 60.3418 50.4252 60.2994 50.4252C60.2572 50.4252 60.2223 50.4735 60.2223 50.5325C60.2223 50.7032 60.5996 50.7366 61.0908 50.6094C61.3401 50.5449 61.6228 50.4726 61.7191 50.4488C61.8472 50.4172 61.9587 50.4666 62.1346 50.6328C62.2667 50.7577 62.5387 50.983 62.7391 51.1333L63.1034 51.4067L62.8902 51.4879C62.7729 51.5326 62.5755 51.5895 62.4515 51.6144C62.3276 51.6393 62.0668 51.7179 61.872 51.7891L61.5179 51.9185L61.3044 51.693C60.894 51.2597 60.5138 51.0542 60.0215 50.9996L59.5563 50.948L59.1951 51.3663L58.834 51.7847H58.368C57.9928 51.7847 57.8117 51.8313 57.4383 52.0239C57.1833 52.1555 56.9745 52.2899 56.9745 52.3226C56.9745 52.3553 57.1019 52.4061 57.2577 52.4353C57.5032 52.4815 57.8855 52.437 58.6361 52.2761C58.7941 52.2422 58.9283 52.3356 59.4584 52.849C60.1345 53.5036 60.1531 53.5911 59.618 53.599C59.4727 53.6013 59.1328 53.663 58.8628 53.7363L58.3718 53.8697L57.8684 53.3702C57.3993 52.9046 57.3319 52.8645 56.8779 52.7808C56.6099 52.7315 56.3266 52.6912 56.2483 52.6912C56.1106 52.6914 54.208 53.6151 54.0779 53.7449C54.0425 53.7802 54.2465 53.9197 54.5311 54.055C55.9479 54.7286 58.4851 56.2966 58.4851 56.4987C58.4851 56.555 58.2896 56.6814 58.0508 56.7797C57.6871 56.9294 57.4855 56.9584 56.8097 56.9584C56.02 56.9584 55.9979 56.9539 55.7711 56.7366C55.6437 56.6146 55.5395 56.4694 55.5395 56.414C55.5395 56.22 55.1422 55.7155 54.7572 55.4204C54.3863 55.1362 54.1955 55.021 53.2895 54.5343L52.8899 54.3197L52.3831 54.5793C51.2125 55.179 50.5057 55.7509 50.2389 56.3142C49.9672 56.8878 49.8636 56.9486 49.1253 56.9675C48.7691 56.9766 48.3926 56.968 48.2887 56.9489L48.2863 56.9492ZM49.7615 56.6605C50.0863 56.5248 50.0966 56.3654 49.7884 56.2379C49.3442 56.0539 47.8765 56.1957 47.6718 56.4423C47.5978 56.5314 47.6981 56.5739 48.3239 56.7177C48.6701 56.7973 49.5143 56.7637 49.7613 56.6605H49.7615ZM57.6858 56.6651C58.1176 56.5514 58.2094 56.4187 57.9027 56.3515C57.7856 56.3258 57.5968 56.2697 57.4832 56.2268C57.1849 56.114 56.1747 56.1227 55.9556 56.2398C55.6656 56.3951 55.6583 56.5379 55.9345 56.658C56.2425 56.7919 57.1901 56.7957 57.6859 56.6651L57.6858 56.6651ZM45.4257 52.5406C45.4623 52.5406 45.4918 52.5121 45.4918 52.4772C45.4918 52.3686 45.1207 52.2385 44.8108 52.2385C44.5603 52.2385 44.1781 52.0877 43.8679 51.8664C43.8262 51.8368 43.6461 51.7664 43.4674 51.71C43.2774 51.6501 42.9355 51.4248 42.6443 51.1677C42.1043 50.691 41.8701 50.5785 42.2386 50.9728C42.3645 51.1074 42.5062 51.3113 42.5537 51.4259C42.6144 51.5725 42.6944 51.6343 42.8235 51.6343C43.0702 51.6343 43.4063 51.816 43.5889 52.0482C43.7085 52.2002 43.8057 52.2385 44.0719 52.2385C44.3114 52.2385 44.4782 52.2929 44.6652 52.432C44.8568 52.5745 44.9825 52.6143 45.1425 52.583C45.2619 52.5597 45.3894 52.5406 45.4257 52.5406V52.5406ZM47.4764 52.1801C47.5335 52.1082 47.5215 52.096 47.4284 52.1316C47.3602 52.1577 47.3071 52.252 47.3104 52.341C47.3161 52.4515 47.3298 52.4669 47.3584 52.3896C47.3812 52.3273 47.4345 52.233 47.4764 52.1801ZM46.8959 52.1069C46.8434 52.0545 46.7003 52.161 46.7003 52.2522C46.7003 52.3023 46.7436 52.2966 46.8153 52.237C46.8787 52.1845 46.9149 52.1259 46.8959 52.1069V52.1069ZM47.3587 50.6723C47.3415 50.5575 47.3267 50.6335 47.3261 50.8412C47.3261 51.0489 47.3398 51.1429 47.3575 51.05C47.3752 50.9571 47.3757 50.7871 47.3575 50.6723H47.3587ZM39.4117 48.3866C39.4374 48.345 39.3883 48.311 39.3029 48.311C39.2174 48.311 39.1474 48.345 39.1474 48.3866C39.1474 48.4281 39.1965 48.4621 39.2562 48.4621C39.3161 48.4621 39.3861 48.4281 39.4117 48.3866ZM37.9649 48.1187C37.9403 48.0545 37.755 47.9182 37.5531 47.816C37.3513 47.7137 37.0751 47.5046 36.9394 47.3514C36.8037 47.1981 36.5192 46.901 36.307 46.6911C36.0728 46.4594 35.8682 46.1677 35.7861 45.9483C35.6108 45.4807 35.4821 45.3944 35.5471 45.788C35.5739 45.9502 35.5962 46.1396 35.5968 46.209C35.5968 46.2783 35.7144 46.4072 35.8572 46.4954C36.0236 46.5983 36.1777 46.7904 36.2861 47.0303C36.3792 47.2362 36.5019 47.4047 36.5589 47.4047C36.7677 47.4047 37.0977 47.6344 37.2553 47.8893C37.374 48.0813 37.4813 48.1589 37.6591 48.1811C37.7923 48.1977 37.9257 48.2167 37.9555 48.2234C37.9852 48.23 37.9898 48.1829 37.9652 48.1187L37.9649 48.1187ZM40.2544 47.3088C40.2338 47.2577 40.2178 47.3178 40.2195 47.4424C40.2195 47.5671 40.2378 47.6089 40.2572 47.5354C40.2766 47.4619 40.2749 47.36 40.2515 47.3088H40.2544ZM40.0807 45.8043C40.047 45.5955 39.9626 45.4814 39.7129 45.3053C39.4921 45.1497 39.3724 45.0013 39.3368 44.8393C39.2951 44.6483 39.2077 44.564 38.8926 44.4095C38.669 44.2998 38.4314 44.1115 38.3393 43.9711C38.2038 43.7643 38.117 43.7168 37.7972 43.6744C37.5878 43.6466 37.396 43.5909 37.3711 43.5505C37.346 43.5102 37.2912 43.4772 37.2489 43.4772C37.1019 43.4772 37.6008 43.8335 37.8711 43.9216C38.0292 43.9731 38.3896 44.2465 38.7317 44.5745C39.0554 44.8849 39.3454 45.1388 39.376 45.1388C39.4069 45.1388 39.523 45.3254 39.6346 45.5533C39.8034 45.8985 40.036 46.1636 40.1074 46.0922C40.1171 46.0827 40.1074 45.9532 40.0806 45.8043H40.0807ZM35.4166 45.3103C35.3915 45.2852 35.3738 45.3299 35.3772 45.4095C35.383 45.4975 35.3989 45.5154 35.4229 45.4551C35.4446 45.4006 35.4423 45.3354 35.4172 45.3103L35.4166 45.3103ZM37.1081 43.4017C37.1081 43.3601 37.0722 43.3261 37.0281 43.3261C36.9842 43.3261 36.9691 43.3601 36.995 43.4017C37.0207 43.4432 37.0566 43.4772 37.075 43.4772C37.0932 43.4772 37.1081 43.4432 37.1081 43.4017ZM33.6338 41.241C33.6338 41.2247 33.5403 41.2118 33.4261 41.2125C33.2749 41.2136 33.2474 41.232 33.3248 41.281C33.421 41.3419 33.6338 41.3144 33.6338 41.241V41.241ZM34.8423 40.5457C34.8423 40.4508 34.82 40.4564 34.7314 40.5738C34.5863 40.7656 34.5848 40.8778 34.7314 40.7582C34.7937 40.7065 34.8447 40.6108 34.8447 40.5457L34.8423 40.5457ZM35.1129 39.0519C35.1534 38.8364 35.13 38.751 34.9899 38.6019C34.8668 38.4709 34.8071 38.2987 34.7826 38.0039C34.7529 37.6454 34.7156 37.5649 34.5043 37.4037C34.3412 37.2793 34.2284 37.1039 34.1643 36.8748C34.0856 36.5939 34.0091 36.4973 33.7406 36.34C33.5605 36.2344 33.3788 36.0892 33.3369 36.0173C33.2678 35.8988 33.2605 35.8983 33.2584 36.0121C33.2584 36.0812 33.4524 36.3371 33.6923 36.5807C33.9917 36.8848 34.1602 37.1297 34.2296 37.3615C34.285 37.5473 34.3948 37.7895 34.4732 37.8997C34.5516 38.01 34.6156 38.1374 34.6156 38.183C34.6156 38.2285 34.6493 38.2657 34.6912 38.2657C34.7329 38.2657 34.7667 38.3696 34.7667 38.4966C34.7667 38.8248 34.9232 39.4042 34.9991 39.3573C35.0345 39.3356 35.0854 39.1981 35.1129 39.0519V39.0519ZM33.1807 35.8488C33.1807 35.8072 33.1447 35.7733 33.1007 35.7733C33.0567 35.7733 33.0417 35.8072 33.0676 35.8488C33.0932 35.8904 33.1292 35.9243 33.1476 35.9243C33.1658 35.9243 33.1807 35.8904 33.1807 35.8488ZM32.2342 33.5248C32.4407 33.5029 32.7126 33.4222 32.8385 33.3454L33.0673 33.2059L32.2931 33.2056C31.5324 33.2053 31.519 33.2084 31.519 33.3815C31.519 33.6023 31.5908 33.6773 31.7416 33.6139C31.8062 33.5868 32.0278 33.5467 32.2342 33.5248V33.5248ZM32.1654 32.7168C32.2762 32.633 32.2844 32.6059 32.1985 32.6059C32.1362 32.6059 32.0193 32.6558 31.9386 32.7168C31.8279 32.8005 31.8197 32.8277 31.9055 32.8277C31.9678 32.8277 32.0848 32.7778 32.1654 32.7168H32.1654ZM30.7637 32.6766C30.7637 32.6351 30.7042 32.6016 30.6315 32.6022C30.5186 32.6034 30.5159 32.6141 30.6127 32.6766C30.7552 32.7687 30.7637 32.7687 30.7637 32.6766ZM29.9351 31.0202C29.85 30.8149 29.875 29.084 29.9642 28.9947C29.9887 28.9704 30.0081 28.8893 30.0081 28.8144C30.0081 28.7395 30.0761 28.5572 30.1592 28.4093C30.2423 28.2613 30.3103 28.0492 30.3103 27.9378C30.3103 27.7494 30.2994 27.7559 30.1593 28.0315C30.0762 28.1944 29.9573 28.3562 29.8949 28.3911C29.8141 28.4364 29.7815 28.5826 29.7815 28.9014C29.7815 29.1627 29.729 29.458 29.6556 29.6124C29.5368 29.8614 29.5375 29.8942 29.6676 30.1822C29.7798 30.4309 29.7891 30.5234 29.7178 30.6794C29.5902 30.9595 29.6097 31.1362 29.8004 31.4291L29.9704 31.6901L29.9949 31.4569C30.0086 31.3286 29.9812 31.1321 29.935 31.0202H29.9351ZM33.1582 31.4753C33.305 31.2889 33.3146 31.232 33.2402 30.9895C33.1668 30.7503 33.1785 30.6707 33.3316 30.3731C33.4842 30.0763 33.4946 30.0075 33.41 29.8495C33.347 29.7318 33.3252 29.499 33.3481 29.1895C33.3783 28.7776 33.36 28.68 33.2129 28.4848C33.1189 28.3602 33.0274 28.1562 33.0094 28.0316C32.9803 27.8287 32.9757 27.8349 32.9654 28.0914C32.9592 28.2488 33.0244 28.5952 33.1103 28.861C33.2292 29.2291 33.2472 29.3802 33.1858 29.4949C33.1413 29.5778 33.1052 29.8984 33.1052 30.2075C33.1052 30.5165 33.0544 30.9139 32.9919 31.0905C32.8693 31.4379 32.8449 31.6972 32.9353 31.6906C32.9667 31.6883 33.0668 31.5914 33.1584 31.4753H33.1582ZM32.8486 27.5611C32.8235 27.5361 32.8058 27.5807 32.8092 27.6603C32.8149 27.7482 32.8309 27.7661 32.8548 27.7059C32.8765 27.6514 32.8743 27.5862 32.8491 27.5611L32.8486 27.5611ZM30.4317 27.4856C30.4066 27.4605 30.3889 27.5051 30.3918 27.5847C30.3975 27.6727 30.4134 27.6906 30.4374 27.6304C30.4591 27.5758 30.4568 27.5107 30.4317 27.4856V27.4856Z" fill="#008C43"/>
<path d="M44.1853 53.3411C44.1854 53.1732 42.9996 52.8604 42.7402 52.96C42.5277 53.0415 42.5137 53.02 42.6623 52.841C42.8118 52.6608 42.7229 52.5518 42.155 52.219C41.4582 51.8106 41.2626 51.6244 41.7117 51.7967C41.9314 51.881 41.9297 51.8449 41.6952 51.4521L41.4334 51.0133L41.7719 51.3909C41.9581 51.5986 42.1694 51.7516 42.2415 51.7308C42.3136 51.71 42.3726 51.7867 42.3726 51.9011C42.3726 52.0156 42.4797 52.1981 42.6107 52.3068C42.808 52.4706 42.8722 52.4673 42.986 52.2876C43.101 52.1059 43.1236 52.1106 43.1255 52.3166C43.1255 52.604 43.3699 52.823 43.8454 52.9688C44.1095 53.0497 44.1879 53.0118 44.1972 52.7984C44.2063 52.5855 44.2286 52.5747 44.2954 52.7505C44.3428 52.8751 44.4564 53.027 44.5478 53.088C44.787 53.2478 45.5786 53.2296 45.478 53.0667C45.4312 52.9913 45.5225 52.9635 45.6802 53.0047C45.838 53.046 46.1609 52.9559 46.3979 52.8044C46.8157 52.5375 46.8221 52.5375 46.6084 52.8067C46.4872 52.9593 46.2152 53.1518 46.0041 53.2345C45.5802 53.4005 44.185 53.4824 44.1852 53.3412L44.1853 53.3411ZM45.9033 51.5271C45.9752 51.2102 45.9199 51.1016 45.6154 50.9629C45.2984 50.8185 45.1905 50.8389 44.9384 51.091C44.7455 51.284 44.6385 51.3209 44.6385 51.1945C44.6385 51.0865 44.7083 50.9283 44.7937 50.843C44.8998 50.7368 44.8314 50.6344 44.5774 50.5186C44.266 50.3767 44.1372 50.403 43.7803 50.6811L43.3546 51.0128L43.6243 50.5948C43.8895 50.1837 43.8882 50.1745 43.5487 50.0464C43.3383 49.9669 43.0855 49.9777 42.9014 50.074C42.6396 50.2108 42.6248 50.2009 42.7906 50C42.9525 49.8035 42.9113 49.7388 42.5213 49.5773C41.9491 49.3403 42.0224 49.2079 42.6035 49.4288C42.9265 49.5516 43.0567 49.5437 43.1509 49.3953C43.2448 49.2472 43.275 49.2581 43.2767 49.4407C43.2767 49.5728 43.4489 49.7582 43.6566 49.8529C43.98 50.0002 44.0347 49.9874 44.0366 49.7638C44.0366 49.6202 44.1079 49.4007 44.1923 49.2761C44.3094 49.103 44.3264 49.1386 44.264 49.4272C44.1719 49.8536 44.2777 50.0593 44.7114 50.2966C44.9659 50.4358 45.0401 50.3997 45.2047 50.0571C45.3112 49.8353 45.3655 49.7727 45.3253 49.9181C45.1324 50.616 45.8831 51.1133 46.3182 50.5759C46.5727 50.2616 46.574 50.2623 46.4958 50.6713C46.4296 51.0177 46.4861 51.1106 46.8496 51.2551C47.0874 51.3496 47.2009 51.4572 47.1016 51.4943C47.0023 51.5313 46.7854 51.4891 46.6196 51.4002C46.3728 51.2681 46.2724 51.3006 46.0663 51.5792L45.8144 51.9196L45.9033 51.5271ZM47.5941 49.9559C47.5359 49.6457 47.406 49.4272 47.2799 49.4272C47.1617 49.4272 47.0992 49.3379 47.1411 49.2288C47.2553 48.9311 46.6665 48.4688 46.2965 48.5656C46.0443 48.6315 46.0149 48.6071 46.1503 48.444C46.3708 48.1782 45.8172 47.8582 45.3059 47.9559C45.11 47.9934 44.986 47.9654 45.0304 47.8937C45.1711 47.6659 44.6103 47.5589 44.162 47.7281C43.9245 47.8178 43.7686 47.8289 43.8156 47.7528C43.8624 47.6767 43.7779 47.6091 43.6279 47.6026C43.4677 47.5956 43.4331 47.559 43.5443 47.5141C43.6487 47.4721 43.6885 47.3639 43.6329 47.2738C43.5645 47.1632 43.6254 47.1504 43.8208 47.2342C44.3859 47.477 45.0914 47.5085 45.0963 47.2911C45.102 47.1543 45.1522 47.1741 45.2548 47.3501C45.5099 47.788 46.281 48.1205 46.5411 47.9047C46.7166 47.759 46.7439 47.7655 46.6779 47.9375C46.5657 48.23 47.3275 49.1271 47.5995 49.0227C47.7449 48.9669 47.7857 49.0145 47.726 49.17C47.6775 49.2964 47.7055 49.6438 47.7877 49.9421C47.87 50.2405 47.8826 50.4846 47.8157 50.4846C47.7486 50.4846 47.6489 50.2467 47.5944 49.9559H47.5941ZM37.6922 49.2625C37.6922 48.9768 36.612 48.5782 36.3088 48.7507C36.1492 48.8415 36.1431 48.8247 36.2813 48.675C36.4201 48.5247 36.3634 48.4021 36.0222 48.1151C35.7821 47.9129 35.4506 47.7374 35.2858 47.725C35.0561 47.7077 35.0246 47.656 35.151 47.5037C35.2746 47.3549 35.2223 47.1736 34.9428 46.7807C34.6684 46.3951 34.5889 46.1261 34.6425 45.7647L34.7154 45.2731L34.8895 45.8773C35.0076 46.2873 35.096 46.4087 35.1643 46.255C35.2384 46.0885 35.2615 46.1085 35.2515 46.3305C35.2441 46.4967 35.2458 46.7087 35.2572 46.8018C35.2852 47.0758 36.3498 48.2187 36.5769 48.2187C36.6915 48.2187 36.7852 48.2758 36.7852 48.3455C36.7852 48.566 37.5997 48.8719 37.6651 48.676C37.7005 48.5696 37.7933 48.6022 37.9103 48.7622C38.0682 48.9781 38.1754 48.9928 38.5748 48.8536C38.8367 48.7623 39.051 48.749 39.051 48.8239C39.051 48.8989 38.7961 49.0072 38.4846 49.0645C38.173 49.1217 37.8682 49.2438 37.8072 49.3356C37.7362 49.4424 37.6953 49.416 37.6938 49.2625L37.6922 49.2625ZM39.4955 47.6815C39.3774 47.5391 39.1504 47.4667 38.9453 47.5059C38.5812 47.5755 38.4565 47.3897 38.7851 47.2671C38.9168 47.218 38.873 47.0917 38.6404 46.8497C38.3456 46.543 38.2581 46.5237 37.8851 46.6834L37.4633 46.8641L37.7974 46.5777C38.1172 46.3036 38.12 46.2809 37.8611 46.0466C37.5417 45.7576 37.068 45.7288 36.8138 45.9831C36.6728 46.1241 36.6325 46.1209 36.6325 45.9689C36.6325 45.8614 36.7712 45.7372 36.9408 45.6929C37.3746 45.5794 37.2294 45.3031 36.6321 45.1058C36.3218 45.0032 36.2093 44.9089 36.3414 44.8621C36.5092 44.8027 36.4734 44.6917 36.1793 44.3606L35.8017 43.9354L36.2797 44.2655C36.6288 44.5065 36.7783 44.5443 36.8342 44.4056C36.8765 44.3011 36.9161 44.3581 36.9227 44.5321C36.9295 44.7062 37.062 44.9638 37.2176 45.1046C37.485 45.3466 37.5048 45.3438 37.581 45.0525C37.6255 44.883 37.7495 44.7444 37.857 44.7444C38.009 44.7444 38.0121 44.7847 37.8713 44.9256C37.6198 45.1771 37.6449 45.5015 37.9411 45.8289C38.1784 46.091 38.208 46.0921 38.4777 45.848C38.7525 45.5993 38.7576 45.6042 38.6143 45.981C38.4893 46.3099 38.5242 46.4274 38.8331 46.7176C39.0352 46.9075 39.2006 46.9903 39.2006 46.9017C39.2006 46.813 39.3016 46.7017 39.4249 46.6543C39.6108 46.583 39.6184 46.6177 39.4695 46.8563C39.3222 47.0921 39.3407 47.2009 39.5714 47.4559C39.7265 47.6272 39.8181 47.8026 39.7751 47.8456C39.7323 47.8887 39.6063 47.8148 39.4957 47.6815L39.4955 47.6815ZM40.7619 46.6959C40.9128 46.296 40.8992 46.2025 40.6652 46.0314C40.464 45.8843 40.4444 45.8137 40.5898 45.7611C40.881 45.6558 40.3896 44.8134 40.0534 44.8418C39.8389 44.8599 39.8268 44.8243 39.9833 44.6356C40.1396 44.4473 40.1114 44.3581 39.8209 44.1229C39.6274 43.9662 39.3707 43.8381 39.2504 43.8381C39.13 43.8381 39.0715 43.7735 39.1202 43.6946C39.259 43.4701 38.6476 43.2177 38.1839 43.308C37.8488 43.3733 37.8256 43.3624 38.0675 43.2534C38.393 43.1068 38.3975 43.109 37.3123 42.8796C37.1337 42.8418 37.211 42.8085 37.5011 42.7981C37.7824 42.7881 37.993 42.7 37.9944 42.5918C37.9944 42.4683 38.0349 42.4577 38.1076 42.5613C38.1687 42.6484 38.4465 42.879 38.7252 43.0737C39.0961 43.3329 39.262 43.3788 39.3447 43.245C39.4192 43.1244 39.5212 43.216 39.6449 43.5148C39.885 44.0944 40.3368 44.5047 40.5738 44.3582C40.69 44.2864 40.7187 44.3077 40.6519 44.4158C40.5937 44.51 40.6262 44.8548 40.7242 45.182C40.8577 45.6271 40.9639 45.7554 41.1466 45.6915C41.3451 45.6222 41.3555 45.6443 41.202 45.8098C41.0982 45.9217 41.0132 46.164 41.0132 46.3483C41.0132 46.7711 40.8668 47.1613 40.7081 47.1613C40.6411 47.1613 40.6652 46.9519 40.7617 46.6959L40.7619 46.6959ZM32.6451 41.7486C32.5409 41.5799 31.8324 41.4271 31.7536 41.5564C31.7228 41.6066 31.708 41.5836 31.7205 41.5052C31.7553 41.2834 30.7694 40.4797 30.5949 40.5876C30.3157 40.7601 30.4309 40.5752 30.8357 40.2013C31.2046 39.8604 31.2255 39.8567 31.1364 40.1473C31.069 40.3673 31.153 40.5647 31.4198 40.8156C31.6283 41.0115 31.7989 41.1129 31.7989 41.041C31.7989 40.9691 31.8838 41.0214 31.9876 41.1573C32.0915 41.2931 32.4088 41.4251 32.6928 41.4505C33.1403 41.4906 33.1773 41.5228 32.9705 41.6929C32.8339 41.8053 32.6951 41.8291 32.6453 41.7486L32.6451 41.7486ZM32.3836 40.8547C32.1958 40.6151 32.2011 40.6097 32.4407 40.7976C32.5861 40.9117 32.7051 41.0306 32.7051 41.062C32.7051 41.1863 32.581 41.1063 32.3836 40.8547ZM33.7854 40.5805C33.6475 40.2779 33.5348 40.2135 33.2703 40.2862C32.958 40.3721 32.9522 40.3627 33.1959 40.1661C33.5257 39.9 33.5298 39.6995 33.2119 39.3817C33.0517 39.2215 32.8239 39.1627 32.5699 39.2159L32.1762 39.2983L32.5539 39.1216C32.7616 39.0244 32.9577 38.9263 32.9898 38.9037C33.1607 38.783 32.4999 38.0975 32.2105 38.0956C31.9473 38.0938 31.9218 38.0631 32.0935 37.9545C32.2141 37.8781 32.3663 37.8487 32.4317 37.8891C32.6029 37.9949 32.3922 37.4468 32.1929 37.2671C32.1006 37.184 32.0184 37.014 32.0101 36.8894C32.0015 36.7648 31.9485 36.4929 31.8916 36.2852C31.8104 35.9886 31.8471 36.0135 32.0629 36.4009C32.2876 36.8046 32.3743 36.8595 32.5398 36.703C32.707 36.5448 32.715 36.5644 32.586 36.8164C32.4747 37.0338 32.4833 37.2205 32.6163 37.4686C32.782 37.7784 32.8237 37.7904 32.9988 37.5794C33.1069 37.4491 33.2599 37.3426 33.3387 37.3426C33.4176 37.3426 33.3753 37.4494 33.2447 37.58C32.9904 37.8342 32.9596 38.1483 33.1429 38.6165C33.2216 38.8173 33.2918 38.8527 33.3678 38.7298C33.4286 38.6315 33.5892 38.551 33.7248 38.551C33.9323 38.551 33.9255 38.5846 33.6815 38.7629C33.4391 38.9402 33.417 39.0452 33.5465 39.4049C33.6555 39.7075 33.7887 39.822 33.9963 39.791C34.2372 39.7549 34.25 39.7745 34.0666 39.8975C33.8828 40.0207 33.8736 40.1315 34.0158 40.508C34.2261 41.065 34.034 41.1256 33.7855 40.5805H33.7854ZM35.4119 40.2207C35.6343 39.8371 35.6707 39.6481 35.5504 39.5032C35.4327 39.3613 35.4344 39.3063 35.5567 39.3063C35.8114 39.3063 35.7606 38.4655 35.4925 38.243C35.3336 38.1111 35.3119 38.0162 35.4247 37.9465C35.6222 37.8244 35.3175 37.0405 35.0726 37.0405C34.989 37.0405 34.9666 36.9945 35.0229 36.9384C35.1564 36.8049 34.5244 36.1341 34.2651 36.1341C34.1549 36.1341 34.0818 36.0709 34.1026 35.9937C34.1232 35.9165 34.0045 35.7428 33.8383 35.6078C33.541 35.3661 33.5414 35.3647 33.8662 35.5216C34.2978 35.7301 34.4049 35.7227 34.2948 35.4922C34.2452 35.3883 34.2949 35.4297 34.3992 35.5841C35.0327 36.4985 35.1509 36.6006 35.3678 36.4206C35.5421 36.276 35.5638 36.2912 35.483 36.5017C35.3394 36.876 35.728 37.9468 36.0075 37.9468C36.1885 37.9468 36.1999 37.9872 36.059 38.1281C35.8369 38.3501 35.8167 39.4574 36.0344 39.4574C36.2019 39.4574 36.1843 39.4848 35.4977 40.2882L35.1104 40.7414L35.4119 40.2207ZM30.3747 39.781C30.244 39.5282 30.0181 39.2449 29.8727 39.1514C29.6217 38.99 29.6218 38.9856 29.8727 39.0643C30.1541 39.152 30.1446 38.9133 29.8265 37.9039C29.751 37.6644 29.7508 37.5184 29.826 37.5649C29.8987 37.6099 30.0297 37.4592 30.1172 37.2302C30.2607 36.8543 30.2682 36.8726 30.1943 37.4181C30.1332 37.8689 30.1532 37.9648 30.2724 37.7958C30.4801 37.5017 30.4839 37.7282 30.2781 38.1135C30.1066 38.4339 30.2262 39.0593 30.4343 38.9307C30.5036 38.8878 30.5267 38.9818 30.4852 39.1396C30.4441 39.2974 30.4909 39.5752 30.587 39.757C30.6843 39.9388 30.7295 40.122 30.6873 40.1641C30.6451 40.2063 30.5037 40.0339 30.3729 39.781H30.3747ZM29.4662 32.4963C29.2219 32.2637 28.95 32.1133 28.862 32.1622C28.774 32.211 28.7817 32.1645 28.8791 32.0592C29.074 31.8483 28.906 31.2977 28.4983 30.8094C28.3342 30.6129 28.3264 30.545 28.468 30.545C28.6009 30.545 28.6397 30.3514 28.5965 29.903C28.5622 29.5465 28.6216 29.0931 28.7307 28.8834C28.8386 28.6757 28.9273 28.3148 28.9278 28.0814C28.9283 27.8295 28.9918 27.6961 29.084 27.7531C29.1694 27.8059 29.3792 27.6909 29.5503 27.4976C29.8072 27.2074 29.8012 27.2365 29.5161 27.6648C29.1945 28.1479 29.191 28.1762 29.4652 28.0782C29.6928 27.9969 29.6761 28.0384 29.3917 28.2612C29.1893 28.4196 29.0006 28.7434 28.9722 28.9807C28.9437 29.218 28.881 29.6677 28.8324 29.9802C28.765 30.4148 28.7925 30.536 28.9498 30.4959C29.0628 30.4671 29.1044 30.472 29.0421 30.5068C28.8873 30.5934 28.9031 31.328 29.0655 31.584C29.138 31.6985 29.2665 31.7494 29.3512 31.6971C29.4437 31.6399 29.4743 31.7196 29.4279 31.897C29.3719 32.1109 29.4815 32.2717 29.8278 32.4821C30.1286 32.665 30.2321 32.7994 30.1079 32.8457C29.9995 32.8861 29.7109 32.7288 29.4666 32.4963H29.4662ZM32.751 32.7317C32.984 32.599 33.2249 32.3547 33.2862 32.1888C33.3958 31.8927 33.4032 31.8933 33.6935 32.224C33.856 32.4092 33.8998 32.5084 33.7907 32.4444C33.6775 32.3781 33.4828 32.4241 33.3375 32.5516C33.1973 32.6745 32.9127 32.8196 32.705 32.874C32.3471 32.9678 32.3494 32.9604 32.7512 32.7317H32.751ZM31.1968 32.3906C31.1968 32.0188 31.1094 31.8606 30.8546 31.7582C30.5206 31.6239 30.5215 31.6214 30.9059 31.612C31.2442 31.6037 31.2934 31.5409 31.2701 31.1483C31.2404 30.6521 31.2512 30.6696 30.8169 30.4067C30.5424 30.2405 30.5527 30.2318 30.9303 30.3118C31.3103 30.3922 31.3457 30.3613 31.3457 29.9485C31.3457 29.6149 31.2373 29.4348 30.9303 29.258L30.5149 29.0188L30.9303 29.105C31.3087 29.1836 31.3457 29.1517 31.3457 28.7478C31.3457 28.5039 31.2948 28.2758 31.2323 28.241C31.17 28.2061 31.2038 28.1983 31.3079 28.2237C31.4302 28.2535 31.5057 28.0719 31.5221 27.708L31.5472 27.1462L31.606 27.7047C31.6523 28.1463 31.7182 28.2466 31.9205 28.1842C32.1479 28.114 32.1469 28.1241 31.9119 28.2753C31.7665 28.3688 31.6475 28.6118 31.6475 28.8154C31.6475 29.1142 31.7276 29.1889 32.063 29.203C32.3769 29.2163 32.4046 29.2383 32.1762 29.2932C31.7841 29.3876 31.7067 29.4779 31.5887 29.9786C31.5002 30.3536 31.5314 30.3951 31.909 30.4059L32.3273 30.4178L31.9119 30.5696C31.5883 30.6877 31.4965 30.8187 31.4965 31.1619C31.4965 31.479 31.5706 31.6037 31.7609 31.607C32.0126 31.6116 32.0126 31.619 31.7609 31.7656C31.6155 31.8503 31.4954 32.0351 31.4942 32.1764C31.4942 32.3177 31.4259 32.5352 31.3454 32.6598C31.2344 32.8315 31.1984 32.7663 31.1967 32.3906L31.1968 32.3906ZM33.6114 31.9961C33.6114 31.9535 33.6893 31.7476 33.7846 31.5385C33.9212 31.2386 33.9132 31.1033 33.7469 30.8988C33.561 30.6703 33.5671 30.6512 33.7983 30.7378C34.0317 30.8253 34.0591 30.7268 34.046 29.8501C34.034 29.0492 33.9705 28.8074 33.708 28.5623C33.4161 28.2897 33.413 28.2713 33.6766 28.3719C33.9558 28.4787 33.9574 28.468 33.7143 28.1211C33.3612 27.617 33.3971 27.4604 33.7783 27.8416C34.1135 28.1769 34.1854 28.3874 34.2042 29.0884C34.2133 29.4242 34.2707 29.4988 34.4637 29.4248C34.6643 29.3478 34.6775 29.3708 34.533 29.5449C34.4347 29.6633 34.3361 30.0734 34.3139 30.4561C34.2916 30.8388 34.1925 31.2329 34.0936 31.3319C33.9946 31.4308 33.9136 31.5961 33.9136 31.6992C33.9136 31.8023 33.8457 31.9287 33.7626 31.9801C33.6795 32.0314 33.6115 32.0386 33.6115 31.9961L33.6114 31.9961Z" fill="#29993C"/>
</g>
<defs>
<clipPath id="clip0_1_1932">
<rect width="100" height="69.9395" fill="white"/>
</clipPath>
</defs>
</svg>
