<svg width="100" height="70" viewBox="0 0 100 70" fill="none" xmlns="http://www.w3.org/2000/svg">
<g clip-path="url(#clip0_1_1942)">
<path d="M100 0H0V17.5H100V0Z" fill="#00923F"/>
<path d="M100 35H0V52.5H100V35Z" fill="#00923F"/>
<path d="M100 17.5H0V35H100V17.5Z" fill="#F8C300"/>
<path d="M100 52.5H0V70H100V52.5Z" fill="#F8C300"/>
<path d="M35 0H0V35H35V0Z" fill="#28166F"/>
<path d="M22.2023 23.9721L17.5 20.5557L12.7977 23.9721L14.5938 18.4443L9.89156 15.0279H15.7039L17.5 9.49999L19.2961 15.0279H25.1085L20.4062 18.4443L22.2023 23.9721Z" fill="white"/>
<path d="M8.35112 32.2361L5.99998 30.5279L3.64884 32.2361L4.5469 29.4721L2.19576 27.7639H5.10192L5.99998 25L6.89804 27.7639H9.80421L7.45307 29.4721L8.35112 32.2361Z" fill="white"/>
<path d="M31.3511 9.23608L29 7.52787L26.6488 9.23608L27.5469 6.47214L25.1958 4.76393H28.1019L29 2L29.898 4.76393H32.8042L30.4531 6.47214L31.3511 9.23608Z" fill="white"/>
<path d="M8.35112 9.23608L5.99998 7.52787L3.64884 9.23608L4.5469 6.47214L2.19576 4.76393H5.10192L5.99998 2L6.89804 4.76393H9.80421L7.45307 6.47214L8.35112 9.23608Z" fill="white"/>
<path d="M31.3511 32.2361L29 30.5279L26.6488 32.2361L27.5469 29.4721L25.1958 27.7639H28.1019L29 25L29.898 27.7639H32.8042L30.4531 29.4721L31.3511 32.2361Z" fill="white"/>
</g>
<defs>
<clipPath id="clip0_1_1942">
<rect width="100" height="70" fill="white"/>
</clipPath>
</defs>
</svg>
