<svg width="100" height="67" viewBox="0 0 100 67" fill="none" xmlns="http://www.w3.org/2000/svg">
<path d="M100 0H0V4.64789H100V0Z" fill="#212125"/>
<path d="M100 18.5916H0V24.169H100V18.5916Z" fill="#212125"/>
<path d="M100 47.4084H0V52.0563H100V47.4084Z" fill="#212125"/>
<path d="M100 38.1127H0V41.831H100V38.1127Z" fill="#212125"/>
<path d="M100 9.29578H0V13.9437H100V9.29578Z" fill="#212125"/>
<path d="M100 27.8873H0V33.4648H100V27.8873Z" fill="#212125"/>
<path d="M100 56.7042H0V61.3521H100V56.7042Z" fill="#212125"/>
<path d="M100 4.64789H0V9.29578H100V4.64789Z" fill="white"/>
<path d="M100 24.169H0V27.8873H100V24.169Z" fill="white"/>
<path d="M100 52.0563H0V56.7042H100V52.0563Z" fill="white"/>
<path d="M100 41.831H0V47.4085H100V41.831Z" fill="white"/>
<path d="M100 13.9437H0V18.5916H100V13.9437Z" fill="white"/>
<path d="M100 33.4648H0V38.1127H100V33.4648Z" fill="white"/>
<path d="M100 61.3521H0V66H100V61.3521Z" fill="white"/>
<path d="M38 0H0V24H38V0Z" fill="#C40008"/>
<path d="M19 22C24.5228 22 29 17.5228 29 12C29 6.47715 24.5228 2 19 2C13.4772 2 9 6.47715 9 12C9 17.5228 13.4772 22 19 22Z" fill="white"/>
<path d="M11.1841 10.4992C11.2082 10.5419 11.2565 10.5633 11.2926 10.5953C11.3168 10.6273 11.3409 10.67 11.365 10.7128C11.3891 10.7555 11.4373 10.7875 11.4373 10.8302C11.4373 10.8623 11.377 10.8836 11.365 10.9156C11.365 10.937 11.365 10.9584 11.377 10.9904L11.4132 11.0224C11.4614 11.0224 11.4735 10.9797 11.5097 10.9584H11.5699C11.5941 10.969 11.5941 11.0117 11.6182 11.0117C11.6302 11.0224 11.6543 10.9797 11.6785 10.9904C11.7026 10.9904 11.7267 11.0011 11.7387 11.0224C11.7749 11.0651 11.7628 11.1185 11.799 11.1612C11.8231 11.1933 11.8714 11.204 11.9196 11.2146C11.9558 11.2146 12.004 11.204 12.0281 11.1826C12.0643 11.1506 12.0643 11.1078 12.0884 11.0865C12.1125 11.0651 12.1487 11.0758 12.1728 11.0651C12.1969 11.0545 12.221 11.0331 12.2572 11.0224C12.2692 11.0117 12.3054 10.9797 12.3174 10.9904C12.3536 11.0331 12.3416 11.0865 12.3416 11.1292C12.3536 11.2573 12.3054 11.3962 12.3536 11.5136C12.3657 11.5563 12.438 11.5456 12.4862 11.535C12.5345 11.5243 12.5706 11.4816 12.6189 11.4816C12.6791 11.4709 12.7394 11.4816 12.7877 11.4816C12.86 11.4923 12.9444 11.4923 13.0167 11.4923C13.1011 11.5029 13.1855 11.5136 13.2699 11.4923C13.3061 11.4923 13.3423 11.4495 13.3543 11.4175C13.3784 11.3962 13.3543 11.3534 13.3784 11.3321C13.3905 11.3214 13.4387 11.3214 13.4628 11.3214C13.4869 11.3214 13.499 11.3534 13.511 11.3428C13.5593 11.3321 13.5954 11.3001 13.6196 11.2787C13.6557 11.2467 13.6678 11.1933 13.704 11.1719C13.7281 11.1612 13.7522 11.204 13.7642 11.1933C13.8004 11.1719 13.8125 11.1292 13.8366 11.0972C13.8727 11.0651 13.921 11.0331 13.9571 11.0224C14.0174 11.0011 14.0898 10.9904 14.15 10.9797C14.1862 10.9797 14.2103 10.969 14.2465 10.969C14.2827 10.969 14.3188 10.9797 14.355 10.9797C14.3791 10.9797 14.4032 10.9584 14.4273 10.9584C14.4394 10.9477 14.4635 10.9263 14.4756 10.9477C14.5117 10.9797 14.5238 11.0438 14.5238 11.0865C14.5238 11.1292 14.4756 11.1506 14.4756 11.1826C14.4635 11.2253 14.4756 11.268 14.4876 11.3001C14.4997 11.3321 14.5359 11.3428 14.5479 11.3748C14.56 11.4068 14.56 11.4389 14.5479 11.4709C14.5359 11.4923 14.4876 11.4816 14.4876 11.5029C14.4876 11.5456 14.5117 11.5777 14.5238 11.6097C14.5479 11.6524 14.5479 11.6951 14.5841 11.7379C14.6202 11.7912 14.6685 11.8446 14.7288 11.8767C14.777 11.9087 14.8373 11.9087 14.8855 11.9301C14.9096 11.9514 14.8975 12.0048 14.9337 12.0262C14.9699 12.0475 15.0181 12.0475 15.0543 12.0368C15.1025 12.0368 15.1387 12.0262 15.1749 12.0155C15.1869 12.0155 15.199 11.9941 15.2231 11.9941C15.2713 12.0048 15.3316 12.0368 15.3798 12.0582C15.416 12.0796 15.428 12.1223 15.4642 12.1436C15.5004 12.1543 15.5365 12.1329 15.5607 12.1543C15.6089 12.165 15.633 12.2184 15.6812 12.229C15.7174 12.2504 15.7656 12.2611 15.8018 12.2611C15.8259 12.2718 15.8621 12.2504 15.8862 12.2718C15.9344 12.3038 15.9585 12.3679 16.0188 12.3999C16.055 12.4212 16.1153 12.4319 16.1755 12.4212C16.1997 12.4106 16.1997 12.3572 16.2358 12.3572C16.2841 12.3465 16.3202 12.3785 16.3684 12.3892C16.4046 12.4106 16.4408 12.4319 16.477 12.4533C16.5252 12.4746 16.5975 12.4853 16.6216 12.528C16.6457 12.5601 16.5975 12.6135 16.6096 12.6562C16.6216 12.7096 16.6699 12.7523 16.694 12.8057C16.706 12.8377 16.694 12.8911 16.694 12.9338C16.694 12.9445 16.706 12.9552 16.694 12.9658C16.6578 12.9765 16.6216 12.9552 16.5975 12.9658C16.5855 12.9765 16.5975 13.0085 16.6096 13.0192C16.6216 13.0406 16.6578 13.0513 16.6699 13.0833C16.694 13.126 16.706 13.1794 16.706 13.2328C16.7181 13.2755 16.706 13.3182 16.7181 13.3502C16.7301 13.393 16.7663 13.4357 16.8025 13.4463C16.8989 13.4677 17.0074 13.4463 17.116 13.4463C17.2124 13.457 17.3089 13.457 17.4053 13.457C17.4294 13.4677 17.4897 13.4357 17.4897 13.4677C17.5018 13.4997 17.4294 13.5211 17.4174 13.5638C17.4174 13.5958 17.4535 13.6172 17.4656 13.6385C17.4897 13.6813 17.4897 13.7347 17.5138 13.7667C17.5379 13.7987 17.5741 13.8094 17.6103 13.8308C17.6464 13.8628 17.6706 13.8948 17.7067 13.9269C17.7429 13.9589 17.7791 14.0016 17.8032 14.0443C17.8273 14.087 17.8273 14.1297 17.8273 14.1831C17.8273 14.2258 17.8152 14.2686 17.7911 14.3113C17.7791 14.3647 17.7429 14.418 17.7188 14.4714C17.7067 14.5355 17.6826 14.5889 17.6585 14.6423C17.6464 14.6743 17.6103 14.717 17.6223 14.7491C17.6344 14.7811 17.6826 14.7811 17.7067 14.7918C17.7188 14.8131 17.7308 14.8345 17.7188 14.8452C17.7067 14.8665 17.6706 14.8452 17.6464 14.8665C17.6223 14.8879 17.6103 14.9306 17.6223 14.9626C17.6223 15.0053 17.6585 15.0374 17.6706 15.0801C17.6826 15.1014 17.6947 15.1228 17.7067 15.1548C17.7188 15.1762 17.7429 15.1975 17.7429 15.2296C17.755 15.2723 17.755 15.315 17.7429 15.3684C17.7429 15.3897 17.7308 15.4111 17.7188 15.4431C17.7188 15.4645 17.7308 15.4965 17.7308 15.5179C17.7308 15.5499 17.7067 15.582 17.7067 15.614C17.7067 15.646 17.7067 15.6887 17.7429 15.7101C17.7791 15.7208 17.8152 15.6781 17.8514 15.6781C17.8876 15.6781 17.9358 15.6887 17.984 15.6887C18.0202 15.6994 18.0684 15.6887 18.1046 15.6994C18.1408 15.6994 18.1649 15.7208 18.189 15.7208C18.2131 15.7314 18.2493 15.7421 18.2734 15.7421C18.2975 15.7314 18.2975 15.6674 18.3337 15.6781C18.3698 15.6781 18.3698 15.7314 18.406 15.7528C18.4542 15.7742 18.5266 15.7528 18.5748 15.7742C18.611 15.8062 18.6351 15.8703 18.6471 15.913C18.6833 15.9984 18.6833 16.0731 18.7074 16.1586C18.7195 16.2013 18.7195 16.2653 18.7677 16.2974C18.7918 16.3187 18.8521 16.3187 18.9003 16.3294C18.9606 16.3294 19.0209 16.3081 19.0691 16.3187C19.1173 16.3294 19.1897 16.3508 19.2017 16.3935C19.2258 16.4469 19.1535 16.5003 19.1535 16.5537C19.1535 16.5964 19.1897 16.6284 19.1776 16.6711C19.1776 16.7031 19.1415 16.7352 19.1415 16.7779C19.1294 16.7993 19.1776 16.8099 19.1656 16.8313C19.1535 16.8526 19.1173 16.842 19.1053 16.8633C19.0932 16.8847 19.0932 16.9167 19.1053 16.9487C19.1053 16.9808 19.1053 17.0128 19.1415 17.0235C19.1897 17.0342 19.262 16.9808 19.3102 17.0021C19.3705 17.0342 19.3946 17.1089 19.4188 17.1623C19.4429 17.1943 19.4549 17.2371 19.4549 17.2691C19.4429 17.2904 19.4067 17.3011 19.4067 17.3225C19.3946 17.3545 19.4188 17.3865 19.4188 17.4293C19.4188 17.4613 19.4067 17.4933 19.3946 17.5254C19.3705 17.5681 19.3585 17.6001 19.3223 17.6321C19.2982 17.6535 19.2741 17.6642 19.2379 17.6749C19.2017 17.6855 19.1535 17.6749 19.1053 17.6855C19.0571 17.7069 19.0209 17.7496 18.9847 17.771C18.9485 17.7923 18.9244 17.8243 18.8883 17.8457C18.84 17.8777 18.7798 17.8991 18.7195 17.9311C18.6954 17.9525 18.6833 17.9845 18.6471 18.0166C18.623 18.0486 18.5869 18.0806 18.5627 18.1127C18.5386 18.134 18.5266 18.1554 18.5025 18.1767C18.4663 18.2088 18.4301 18.2194 18.3939 18.2408C18.3698 18.2728 18.3578 18.3155 18.3337 18.3369C18.3096 18.3689 18.2734 18.3796 18.2493 18.4116C18.2252 18.4437 18.2252 18.4971 18.189 18.5291C18.1528 18.5611 18.0925 18.5505 18.0684 18.5825C18.0323 18.6038 18.0323 18.6466 18.0202 18.6786C18.0081 18.6999 17.984 18.732 18.0081 18.7427C18.0323 18.764 18.0684 18.7213 18.0925 18.732C18.1166 18.732 18.1287 18.764 18.1408 18.764C18.1649 18.764 18.1769 18.7427 18.189 18.732C18.201 18.7213 18.201 18.6999 18.2131 18.6893C18.2372 18.6786 18.2734 18.6679 18.2975 18.6679C18.3216 18.6679 18.3216 18.6999 18.3457 18.7106C18.3578 18.7213 18.3819 18.7213 18.3939 18.732C18.4181 18.7533 18.406 18.7854 18.4301 18.8067C18.4542 18.8281 18.5025 18.8281 18.5145 18.8388C18.5386 18.8601 18.5386 18.8922 18.5507 18.9135C18.5627 18.9455 18.5748 18.9776 18.5869 18.9883C18.5989 18.9989 18.623 18.9989 18.6471 18.9883C18.6592 18.9883 18.6833 18.9776 18.7074 18.9669C18.7195 18.9562 18.7315 18.9562 18.7315 18.9455C18.7436 18.9349 18.7315 18.9135 18.7315 18.9028C18.7436 18.8922 18.7556 18.8922 18.7677 18.8922C18.7918 18.8922 18.84 18.8922 18.84 18.9135C18.8521 18.9349 18.8039 18.9562 18.7918 18.9776C18.7918 18.9989 18.8039 19.0203 18.8159 19.031C18.8521 19.0737 18.9003 19.1164 18.9606 19.1377C18.9968 19.1591 19.0571 19.1591 19.0932 19.1805C19.1294 19.2018 19.1656 19.2338 19.1897 19.2552C19.2138 19.2872 19.2258 19.3193 19.262 19.3406C19.2982 19.3727 19.3585 19.3727 19.3946 19.4154C19.4429 19.4474 19.4429 19.5115 19.479 19.5542C19.5755 19.6716 19.7081 19.6076 19.6117 19.7464C19.6117 19.7571 19.5875 19.7678 19.5755 19.7784C19.5514 19.7891 19.5393 19.7891 19.5273 19.7998C19.5152 19.8211 19.5031 19.8318 19.5031 19.8532C19.5031 19.8745 19.4911 19.9066 19.5031 19.9386C19.5031 19.96 19.5273 19.9813 19.5393 19.992C19.5634 20.0027 19.5755 20.0027 19.5996 19.992C19.6117 19.992 19.6237 19.9706 19.6358 19.96C19.6719 19.9493 19.7081 19.9386 19.7322 19.9279C19.7684 19.9066 19.8166 19.8852 19.8407 19.8532C19.8648 19.8318 19.8648 19.7998 19.8648 19.7678C19.8769 19.7464 19.8769 19.725 19.8769 19.7037C19.889 19.6823 19.901 19.661 19.901 19.6396C19.9251 19.5969 19.9613 19.5542 19.9613 19.5115C19.9734 19.4901 19.9372 19.4688 19.9372 19.4367C19.9372 19.4154 19.9613 19.4047 19.9613 19.394C19.9734 19.362 19.9734 19.33 19.9975 19.2979C20.0216 19.2552 20.0698 19.2018 20.106 19.1591C20.1301 19.1377 20.1663 19.1377 20.1783 19.1271C20.2024 19.1164 20.2145 19.1057 20.2265 19.0844C20.2386 19.063 20.2265 19.031 20.2386 18.9989C20.2507 18.9669 20.2868 18.9455 20.2989 18.9135C20.3109 18.8922 20.3351 18.8815 20.3351 18.8494C20.3351 18.8388 20.3109 18.8281 20.3109 18.8174C20.2868 18.796 20.2748 18.7747 20.2627 18.7427C20.2627 18.732 20.2507 18.7213 20.2627 18.7106C20.2989 18.7106 20.3351 18.7106 20.3592 18.732C20.3953 18.764 20.3833 18.8067 20.4074 18.8388C20.4315 18.8601 20.4556 18.8708 20.4677 18.8708C20.4918 18.8708 20.4797 18.8494 20.4797 18.8388C20.4918 18.8281 20.4797 18.796 20.4918 18.8067C20.5159 18.8067 20.5159 18.8388 20.54 18.8494C20.5521 18.8494 20.5641 18.8174 20.5762 18.8281C20.5882 18.8388 20.5882 18.8601 20.5762 18.8815C20.5641 18.8922 20.5159 18.8815 20.5038 18.9028C20.4918 18.9135 20.5159 18.9455 20.5038 18.9669C20.4918 18.9883 20.4677 18.9989 20.4436 19.031C20.4315 19.0416 20.4436 19.063 20.4194 19.0737C20.3833 19.095 20.323 19.0737 20.2989 19.1057C20.2748 19.1377 20.323 19.1911 20.3109 19.2232C20.2989 19.2445 20.2507 19.2338 20.2265 19.2445C20.2024 19.2552 20.1904 19.2766 20.1783 19.2872C20.1421 19.3193 20.0819 19.3406 20.0457 19.3727C20.0336 19.394 20.0336 19.4261 20.0457 19.4474C20.0698 19.4688 20.118 19.4794 20.1421 19.4581C20.1663 19.4581 20.1663 19.4154 20.1904 19.394C20.2145 19.3727 20.2507 19.3513 20.2748 19.33C20.323 19.3086 20.3592 19.2872 20.3953 19.2552C20.4315 19.2338 20.4436 19.2018 20.4677 19.1805C20.5038 19.1484 20.54 19.1484 20.5641 19.1271C20.6003 19.0844 20.6244 19.0416 20.6485 18.9883C20.6726 18.9669 20.6967 18.9349 20.6967 18.9028C20.7209 18.8601 20.7209 18.8174 20.7329 18.7747C20.7329 18.764 20.7209 18.7427 20.7329 18.732C20.745 18.7106 20.7811 18.7106 20.7932 18.6893C20.8053 18.6786 20.8053 18.6572 20.8173 18.6466C20.8414 18.6145 20.8776 18.6145 20.8897 18.5825C20.9017 18.5611 20.8655 18.5291 20.8655 18.5077C20.8655 18.4971 20.8655 18.4757 20.8776 18.4757C20.9017 18.4757 20.9258 18.4971 20.962 18.4971C20.9861 18.4864 20.9982 18.4544 21.0102 18.4437C21.0343 18.4116 21.0584 18.3903 21.0826 18.3689C21.1308 18.3476 21.179 18.3476 21.2272 18.3262C21.2513 18.3049 21.2755 18.2728 21.2996 18.2408C21.3116 18.2194 21.3357 18.1981 21.3478 18.1767C21.3599 18.134 21.3478 18.0913 21.3599 18.0593C21.3719 18.0059 21.4081 17.9632 21.4081 17.9098C21.4201 17.8777 21.384 17.8671 21.384 17.835C21.396 17.803 21.4443 17.771 21.4443 17.7282C21.4443 17.7069 21.4081 17.6855 21.4081 17.6642C21.396 17.6215 21.396 17.5788 21.396 17.536C21.396 17.4933 21.396 17.4613 21.4081 17.4186C21.4081 17.3652 21.4201 17.3225 21.4443 17.2691C21.4563 17.2371 21.5166 17.2264 21.5166 17.1837C21.5166 17.1623 21.4684 17.1516 21.4443 17.1303V17.0982C21.4563 17.0876 21.4684 17.0769 21.4804 17.0662C21.5286 17.0662 21.5769 17.141 21.6251 17.1303C21.6974 17.1196 21.6854 17.0235 21.7216 16.9808C21.7698 16.9381 21.818 16.9167 21.8783 16.8847C21.9386 16.842 22.0109 16.8099 22.0833 16.7672C22.1194 16.7459 22.1556 16.7138 22.1918 16.6925C22.2159 16.6711 22.24 16.6498 22.2762 16.6391C22.3123 16.6177 22.3606 16.607 22.4088 16.5857C22.4449 16.5643 22.4811 16.5216 22.5293 16.5216C22.5776 16.5109 22.6379 16.543 22.6861 16.543C22.7343 16.543 22.7946 16.543 22.8308 16.5216C22.879 16.5003 22.891 16.4469 22.9272 16.4255C22.9634 16.3935 23.0237 16.3935 23.0598 16.3615C23.0839 16.3401 23.0719 16.3081 23.096 16.276C23.1081 16.2547 23.1201 16.2333 23.1442 16.2226C23.1804 16.2226 23.2166 16.244 23.2527 16.2547C23.2768 16.2547 23.313 16.276 23.3492 16.276C23.3733 16.276 23.3974 16.2333 23.4336 16.2226C23.4577 16.2226 23.4939 16.2226 23.518 16.2333C23.5421 16.244 23.5421 16.276 23.5662 16.2974C23.5783 16.3081 23.6024 16.3187 23.6265 16.3187C23.6868 16.3081 23.7591 16.3081 23.8073 16.276C23.8314 16.2653 23.8194 16.2226 23.8435 16.212C23.8676 16.212 23.8797 16.2547 23.9038 16.2653C23.94 16.276 24.0002 16.276 24.0364 16.2867C24.0726 16.2974 24.0846 16.3401 24.1088 16.3294C24.169 16.3187 24.2293 16.2867 24.2655 16.244C24.2896 16.212 24.2655 16.1586 24.2896 16.1372C24.3137 16.1052 24.3619 16.1052 24.3861 16.0838C24.4704 16.0518 24.5548 16.0304 24.6151 15.977C24.6392 15.9664 24.6272 15.9343 24.6272 15.913C24.6272 15.8916 24.591 15.8916 24.591 15.8809C24.591 15.8596 24.6151 15.8275 24.6392 15.8275C24.6634 15.8275 24.6875 15.8809 24.6995 15.8596C24.7236 15.8382 24.6875 15.7955 24.6995 15.7528C24.6995 15.7421 24.7116 15.7208 24.7236 15.6994C24.7598 15.6567 24.796 15.614 24.8442 15.5713C24.8804 15.5286 24.9407 15.4859 24.9768 15.4431C24.9889 15.4218 24.9889 15.3897 25.013 15.3684C25.0612 15.315 25.1215 15.2509 25.1697 15.1975C25.23 15.1442 25.2903 15.1014 25.3265 15.0481C25.3626 14.9947 25.3626 14.9306 25.3747 14.8665C25.3867 14.8238 25.3747 14.7704 25.3867 14.717C25.3988 14.6636 25.4109 14.6103 25.447 14.5675C25.4711 14.5035 25.5194 14.4501 25.5555 14.3967C25.5917 14.3647 25.6399 14.3326 25.652 14.2899C25.6761 14.2472 25.652 14.1938 25.664 14.1511C25.6761 14.055 25.7123 13.9696 25.7484 13.8948C25.7726 13.8201 25.8208 13.756 25.8449 13.6919C25.8569 13.6706 25.8811 13.6492 25.8811 13.6279C25.8811 13.5852 25.8569 13.5531 25.8569 13.5104C25.8569 13.4784 25.8931 13.4463 25.8931 13.4143C25.8811 13.3609 25.8328 13.3182 25.8328 13.2648C25.8328 13.2221 25.8569 13.1687 25.8811 13.126C25.8931 13.0513 25.9413 12.9872 25.9413 12.9231C25.9413 12.859 25.869 12.8163 25.869 12.7523C25.869 12.6989 25.9172 12.6455 25.9413 12.5921C25.9534 12.5601 25.9534 12.528 25.9655 12.5067C25.9896 12.4853 26.0378 12.4746 26.0378 12.4533C26.0378 12.4212 25.9896 12.3999 25.9896 12.3679C25.9896 12.3465 26.0257 12.3145 26.0499 12.3251C26.0981 12.3465 26.074 12.4212 26.1222 12.4426C26.1584 12.464 26.2186 12.4319 26.2548 12.4106C26.291 12.3892 26.3151 12.3465 26.3513 12.3251C26.4116 12.2718 26.4839 12.2504 26.5321 12.197C26.5803 12.1543 26.6045 12.0902 26.6406 12.0368V12.0262C26.6406 11.9941 26.6527 11.9514 26.6647 11.9194C26.6768 11.8873 26.713 11.8553 26.725 11.8126C26.7371 11.7912 26.713 11.7699 26.725 11.7592C26.7491 11.7485 26.7732 11.7912 26.7853 11.7806C26.8215 11.7592 26.8215 11.7058 26.8456 11.6738C26.8818 11.6418 26.93 11.6097 26.9782 11.5777C27.0505 11.5136 27.1229 11.4495 27.2073 11.3962C27.2435 11.3748 27.2796 11.3534 27.3158 11.3214C27.3399 11.3001 27.3278 11.2573 27.352 11.236C27.3761 11.2253 27.4122 11.236 27.4364 11.2253C27.4605 11.204 27.4846 11.1826 27.4966 11.1506C27.5087 11.1399 27.4846 11.1078 27.4966 11.0865C27.5449 11.0331 27.6172 11.0011 27.6654 10.9477C27.7137 10.905 27.7619 10.8516 27.786 10.7982C27.8342 10.7341 27.8463 10.67 27.8824 10.5953C27.9186 10.5206 27.9668 10.4458 27.991 10.3604C28.003 10.275 28.003 10.1895 27.991 10.1148C27.991 10.008 27.991 9.91191 27.9789 9.80513C27.9668 9.75174 27.9548 9.68767 27.9427 9.6236C27.9307 9.58089 27.9307 9.53817 27.9186 9.48478C27.8824 9.39936 27.8463 9.31393 27.7981 9.23919C27.7739 9.20715 27.7378 9.1858 27.7016 9.17512C27.6051 9.14309 27.5087 9.13241 27.4122 9.12173C27.3399 9.11105 27.2676 9.14309 27.1952 9.13241C27.1108 9.11105 27.0385 9.05766 26.9662 9.02563C26.8818 8.97224 26.8215 8.91885 26.7491 8.87613C26.6647 8.82274 26.5924 8.76935 26.5201 8.70529C26.4477 8.6519 26.3874 8.58783 26.3151 8.52376C26.2548 8.48105 26.1945 8.42766 26.1222 8.39562C26.0499 8.35291 25.9534 8.35291 25.869 8.32088C25.8208 8.28884 25.7726 8.24613 25.7123 8.22477C25.6399 8.20342 25.5676 8.20342 25.4953 8.19274C25.4229 8.19274 25.3385 8.20342 25.2662 8.2141C25.218 8.22477 25.1697 8.26749 25.1094 8.26749C25.0492 8.25681 25.0009 8.20342 24.9407 8.18206C24.9045 8.17138 24.8563 8.15003 24.808 8.15003C24.7598 8.13935 24.6995 8.17138 24.6513 8.1607C24.6272 8.15003 24.6151 8.10731 24.591 8.10731C24.5428 8.08596 24.4825 8.10731 24.4343 8.09664C24.4102 8.08596 24.4102 8.04325 24.3861 8.03257C24.3258 8.01121 24.2534 8.01121 24.1931 7.98986C24.1811 7.98986 24.169 7.95782 24.1449 7.95782C24.1208 7.9685 24.1329 8.02189 24.1088 8.03257C24.0726 8.04325 24.0364 8.02189 24.0123 8.00053C23.9882 7.98986 24.0002 7.93647 23.9761 7.94714C23.94 7.9685 23.952 8.02189 23.9279 8.05392C23.9038 8.0646 23.8797 8.0646 23.8556 8.05392C23.8314 8.05392 23.8073 8.03257 23.7953 8.02189C23.7712 8.01121 23.7471 8.00053 23.7229 8.01121C23.6988 8.04325 23.6988 8.09664 23.6868 8.13935C23.6627 8.17138 23.6506 8.20342 23.6144 8.23545C23.5903 8.25681 23.5421 8.26749 23.518 8.29952C23.4939 8.34223 23.5059 8.48105 23.4818 8.43833C23.4577 8.38494 23.4818 8.32088 23.5059 8.26749C23.5059 8.24613 23.53 8.2141 23.5421 8.18206C23.5541 8.1607 23.5421 8.13935 23.5541 8.11799C23.5662 8.08596 23.5903 8.05392 23.6144 8.02189C23.6265 8.00053 23.6506 7.97918 23.6747 7.95782C23.6868 7.94714 23.7229 7.93647 23.7229 7.92579C23.7109 7.90443 23.6868 7.88308 23.6627 7.88308C23.6385 7.89375 23.6144 7.94714 23.5903 7.92579C23.5662 7.91511 23.6024 7.88308 23.6144 7.86172C23.6265 7.84036 23.6627 7.82968 23.6627 7.80833C23.6627 7.77629 23.6385 7.75494 23.6144 7.73358C23.6024 7.7229 23.5662 7.73358 23.5541 7.7229C23.53 7.69087 23.518 7.64816 23.4939 7.6268C23.4818 7.61612 23.4577 7.6268 23.4456 7.61612C23.4215 7.61612 23.4095 7.58409 23.3854 7.59477C23.3492 7.59477 23.3251 7.61612 23.313 7.64816C23.301 7.68019 23.3612 7.73358 23.3251 7.74426C23.2768 7.75494 23.2527 7.69087 23.2407 7.65884C23.2286 7.6268 23.2889 7.60545 23.2889 7.57341C23.2768 7.55206 23.2527 7.54138 23.2166 7.54138C23.2045 7.5307 23.2045 7.56273 23.1925 7.56273C23.1683 7.55206 23.1925 7.50934 23.1683 7.50934C23.1322 7.49867 23.096 7.5307 23.0598 7.5307C23.0237 7.5307 22.9875 7.48799 22.9513 7.48799C22.9393 7.48799 22.9272 7.5307 22.9152 7.52002C22.891 7.49867 22.9152 7.44528 22.891 7.4346C22.8549 7.42392 22.8187 7.48799 22.7825 7.47731C22.7464 7.46663 22.7464 7.39188 22.6981 7.37053C22.6379 7.33849 22.5776 7.33849 22.5052 7.32782C22.4449 7.30646 22.3847 7.27443 22.3244 7.26375C22.3003 7.26375 22.3606 7.31714 22.3364 7.30646C22.2882 7.30646 22.24 7.25307 22.1918 7.24239C22.1556 7.24239 22.1435 7.2851 22.1315 7.2851C22.0953 7.30646 22.0591 7.29578 22.035 7.31714C21.9989 7.32782 21.9868 7.35985 21.9627 7.38121C21.9265 7.41324 21.8903 7.44528 21.8542 7.47731C21.8301 7.49867 21.7818 7.52002 21.7818 7.54138C21.7818 7.59477 21.8903 7.6268 21.8542 7.65884C21.8301 7.69087 21.7698 7.61612 21.7336 7.61612C21.6854 7.6268 21.6613 7.68019 21.6251 7.70155C21.601 7.71223 21.5889 7.70155 21.5769 7.70155C21.5286 7.70155 21.4804 7.69087 21.4322 7.71223C21.384 7.7229 21.3478 7.77629 21.2996 7.79765C21.2634 7.80833 21.2272 7.79765 21.1911 7.79765C21.1428 7.79765 21.0946 7.76562 21.0464 7.77629C21.0102 7.79765 21.0223 7.88308 20.974 7.8724C20.9017 7.8724 20.8897 7.76562 20.8294 7.75494C20.7932 7.74426 20.7932 7.82968 20.757 7.84036C20.7209 7.85104 20.6967 7.80833 20.6967 7.77629C20.7088 7.74426 20.7811 7.74426 20.8053 7.70155C20.8173 7.66951 20.8173 7.61612 20.8053 7.58409C20.7932 7.55206 20.7811 7.50934 20.745 7.50934C20.6485 7.50934 20.5641 7.56273 20.4677 7.59477C20.3833 7.61612 20.2868 7.65884 20.2024 7.66951C20.1421 7.68019 20.0819 7.70155 20.0336 7.66951C20.0095 7.65884 20.0698 7.61612 20.0939 7.60545C20.1542 7.58409 20.2386 7.61612 20.2989 7.58409C20.3471 7.54138 20.3471 7.47731 20.3712 7.41324C20.3712 7.40256 20.3712 7.38121 20.3833 7.37053C20.4315 7.29578 20.4797 7.21036 20.54 7.14629C20.6124 7.06086 20.6847 6.9968 20.7691 6.92205C20.8053 6.89002 20.8655 6.86866 20.9017 6.82595C20.974 6.77256 21.0223 6.70849 21.0705 6.64442C21.1187 6.59103 21.179 6.52696 21.1911 6.45222C21.1911 6.4095 21.1549 6.36679 21.1187 6.34544C21.0464 6.3134 20.962 6.35611 20.9017 6.32408C20.8535 6.30272 20.8414 6.24933 20.8294 6.20662C20.8173 6.18526 20.8414 6.16391 20.8414 6.13187C20.8294 6.08916 20.8053 6.04645 20.7811 6.00374C20.745 5.93967 20.7088 5.88628 20.6847 5.81153C20.6726 5.74746 20.6726 5.6834 20.6606 5.61933C20.6485 5.57662 20.6606 5.52322 20.6365 5.48051C20.6003 5.41644 20.5521 5.32034 20.4677 5.30966C20.4194 5.30966 20.528 5.41644 20.5038 5.45916C20.4797 5.49119 20.4436 5.38441 20.4074 5.39509C20.323 5.44848 20.2748 5.54458 20.2145 5.61933C20.1542 5.71543 20.0939 5.81153 20.0336 5.90763C20.0095 5.96103 19.9854 6.00374 19.9613 6.04645C19.9372 6.08916 19.9372 6.14255 19.901 6.16391C19.8528 6.19594 19.7804 6.2173 19.7202 6.20662C19.6599 6.19594 19.6478 6.13187 19.5996 6.1212C19.5755 6.11052 19.5514 6.15323 19.5273 6.15323C19.5031 6.15323 19.479 6.11052 19.4549 6.11052C19.3826 6.1212 19.3464 6.19594 19.2861 6.19594C19.2258 6.20662 19.1897 6.15323 19.1294 6.13187C19.1173 6.13187 19.0932 6.16391 19.0812 6.15323C19.0209 6.1212 18.9847 6.02509 18.9124 6.02509C18.8159 6.01442 18.7195 6.11052 18.623 6.1212C18.5748 6.1212 18.5386 6.04645 18.5025 6.05713C18.4422 6.06781 18.3939 6.11052 18.3819 6.16391C18.3819 6.2173 18.4663 6.26001 18.4663 6.3134C18.4663 6.33476 18.4181 6.35611 18.3939 6.34544C18.3337 6.32408 18.2975 6.24933 18.2372 6.23865C18.2131 6.22798 18.2613 6.29204 18.2372 6.3134C18.2131 6.33476 18.1528 6.35611 18.1046 6.35611C18.0684 6.35611 18.0323 6.3134 17.984 6.3134C17.9237 6.30272 17.8393 6.29204 17.7791 6.32408C17.755 6.33476 17.8152 6.38815 17.7791 6.39883C17.7188 6.43086 17.6223 6.39883 17.55 6.42018C17.5259 6.42018 17.5741 6.46289 17.55 6.47357C17.5138 6.48425 17.4777 6.44154 17.4535 6.45222C17.3812 6.48425 17.3691 6.56967 17.2968 6.59103C17.2486 6.61239 17.1762 6.58035 17.128 6.559C17.0557 6.52696 16.9833 6.48425 16.9351 6.43086C16.8989 6.39883 16.8869 6.35611 16.8748 6.3134C16.8748 6.27069 16.923 6.22798 16.911 6.18526C16.8989 6.15323 16.8266 6.14255 16.8145 6.11052C16.7904 6.05713 16.7784 5.98238 16.7784 5.92899C16.7904 5.89696 16.8387 5.88628 16.8507 5.86492C16.8748 5.83289 16.8387 5.80085 16.8628 5.76882C16.8989 5.72611 16.9833 5.72611 16.9954 5.6834C17.0195 5.61933 16.9713 5.56594 16.9592 5.50187C16.9472 5.45916 16.923 5.41644 16.911 5.38441C16.8869 5.36305 16.8748 5.33102 16.8507 5.32034C16.8266 5.30966 16.7784 5.33102 16.7543 5.30966C16.706 5.26695 16.6819 5.21356 16.6819 5.16017C16.6699 5.11746 16.7301 5.08542 16.7181 5.04271C16.706 5.02136 16.6578 5 16.6216 5C16.5855 5.01068 16.5734 5.05339 16.5372 5.07475C16.5131 5.08542 16.489 5.08542 16.4649 5.07475C16.4287 5.06407 16.4046 5 16.3926 5.02136C16.3684 5.05339 16.4287 5.08542 16.4287 5.11746C16.4408 5.14949 16.4408 5.18153 16.4167 5.20288C16.3805 5.2456 16.3323 5.27763 16.272 5.29899C16.2117 5.33102 16.1273 5.33102 16.067 5.36305C16.0309 5.38441 16.0309 5.4378 15.9947 5.45916C15.9465 5.48051 15.8741 5.48051 15.8259 5.49119C15.7536 5.50187 15.6933 5.46983 15.633 5.49119C15.5727 5.51255 15.5245 5.54458 15.4883 5.58729C15.4763 5.61933 15.5124 5.65136 15.5004 5.6834C15.4883 5.70475 15.4522 5.69407 15.4401 5.6834C15.4039 5.66204 15.3919 5.60865 15.3557 5.59797C15.3195 5.57662 15.2713 5.59797 15.2351 5.58729C15.1628 5.57662 15.0905 5.55526 15.0302 5.52322C14.9819 5.50187 14.9699 5.41644 14.9096 5.41644C14.8493 5.41644 14.789 5.48051 14.7529 5.5339C14.7288 5.56594 14.7408 5.63001 14.777 5.65136C14.8252 5.6834 14.9096 5.63001 14.9578 5.67272C14.994 5.69407 14.9819 5.74746 14.9699 5.79018C14.9578 5.82221 14.9337 5.84357 14.9096 5.8756C14.8975 5.90763 14.8734 5.93967 14.8734 5.98238C14.8734 6.03577 14.8855 6.07848 14.8975 6.13187C14.9096 6.16391 14.9217 6.18526 14.9458 6.20662C14.9578 6.22798 14.994 6.22798 15.0181 6.22798C15.0422 6.23865 15.0784 6.27069 15.1146 6.26001C15.1387 6.26001 15.1628 6.2173 15.1869 6.2173C15.2351 6.22798 15.2954 6.28137 15.2592 6.30272C15.199 6.35611 15.0905 6.30272 15.0302 6.35611C14.9458 6.4095 14.9699 6.54832 14.8855 6.60171C14.8493 6.63374 14.8493 6.51628 14.8011 6.51628C14.7529 6.51628 14.7408 6.59103 14.7046 6.62306C14.6202 6.68713 14.5359 6.72985 14.4635 6.78324C14.4273 6.81527 14.4153 6.90069 14.3671 6.89002C14.3068 6.89002 14.3429 6.79391 14.2947 6.76188C14.2586 6.74052 14.2103 6.72985 14.1742 6.76188C14.138 6.79391 14.1742 6.90069 14.1139 6.90069C14.0295 6.91137 13.9813 6.82595 13.9089 6.78324C13.8486 6.7512 13.7763 6.72985 13.7401 6.67645C13.716 6.6551 13.7522 6.61239 13.7401 6.58035C13.6919 6.49493 13.6557 6.37747 13.5593 6.34544C13.4869 6.32408 13.4749 6.47357 13.4025 6.48425C13.3543 6.49493 13.3423 6.4095 13.294 6.38815C13.2579 6.37747 13.2096 6.37747 13.1976 6.4095C13.1855 6.44154 13.282 6.50561 13.2337 6.51628C13.077 6.56967 12.9082 6.53764 12.7394 6.53764C12.6791 6.53764 12.5827 6.49493 12.5586 6.54832C12.5224 6.63374 12.5465 6.74052 12.5947 6.83663C12.6068 6.86866 12.6791 6.83663 12.7153 6.83663C12.7515 6.82595 12.7877 6.80459 12.8118 6.82595C12.8479 6.8473 12.8359 6.90069 12.8359 6.93273C12.8238 6.96476 12.7997 7.00747 12.7635 7.00747C12.7274 7.00747 12.7033 6.93273 12.655 6.93273C12.5947 6.94341 12.5104 6.97544 12.4862 7.02883C12.4501 7.11426 12.4742 7.21036 12.4862 7.29578C12.4983 7.32782 12.5224 7.34917 12.5586 7.38121C12.5827 7.39188 12.6309 7.39188 12.643 7.42392C12.6791 7.45595 12.6671 7.49867 12.6912 7.54138C12.7033 7.57341 12.7394 7.59477 12.7394 7.6268C12.7394 7.68019 12.7033 7.7229 12.7033 7.77629C12.7033 7.81901 12.7274 7.8724 12.7153 7.91511C12.6791 8.15003 12.6309 8.39562 12.5706 8.63054C12.5465 8.72664 12.5465 8.8441 12.4742 8.90817C12.438 8.9402 12.3777 8.82274 12.3295 8.83342C12.2572 8.8441 12.2331 8.92952 12.1607 8.9402C12.1245 8.95088 12.0884 8.88681 12.0522 8.89749C12.016 8.89749 12.004 8.9402 11.9678 8.95088C11.9316 8.97224 11.8834 8.9402 11.8472 8.95088C11.7749 8.98292 11.7267 9.03631 11.6664 9.07902C11.6061 9.12173 11.5338 9.14309 11.4855 9.19648C11.4253 9.24987 11.3891 9.32461 11.365 9.38868C11.3409 9.44207 11.3288 9.49546 11.3168 9.54885C11.3168 9.59156 11.3288 9.63428 11.3168 9.67699C11.3047 9.73038 11.3047 9.79445 11.2565 9.83716C11.2324 9.87987 11.148 9.85852 11.1239 9.90123C11.0877 9.95462 11.0997 10.0187 11.0997 10.0721C11.0997 10.1041 11.1239 10.1468 11.0997 10.1682C11.0756 10.2002 11.0153 10.1789 11.0033 10.2109C10.9912 10.2322 11.0153 10.2643 11.0274 10.2856C11.0515 10.307 11.0877 10.307 11.1118 10.3284C11.1359 10.3497 11.1239 10.3924 11.1359 10.4138C11.148 10.4458 11.16 10.4778 11.1841 10.4992ZM20.4677 7.37053C20.5038 7.31714 20.54 7.25307 20.5882 7.19968C20.6244 7.16765 20.6847 7.07154 20.7209 7.10358C20.7691 7.15697 20.7088 7.24239 20.6847 7.29578C20.6606 7.35985 20.6124 7.42392 20.5521 7.46663C20.5038 7.50934 20.4194 7.61612 20.3712 7.56273C20.3109 7.50934 20.4315 7.4346 20.4677 7.37053ZM20.8655 7.22104C20.8535 7.26375 20.9017 7.30646 20.9017 7.34917C20.8897 7.39188 20.8294 7.41324 20.8294 7.44528C20.8173 7.49867 20.8294 7.56273 20.8655 7.60545C20.8897 7.6268 20.9499 7.60545 20.974 7.6268C20.9982 7.64816 20.9499 7.69087 20.974 7.70155C21.0343 7.7229 21.0946 7.70155 21.1428 7.71223C21.179 7.71223 21.2031 7.74426 21.2393 7.73358C21.2634 7.73358 21.2513 7.69087 21.2755 7.66951C21.3237 7.64816 21.3719 7.65884 21.4081 7.63748C21.4563 7.6268 21.4804 7.58409 21.5286 7.58409C21.5528 7.58409 21.5648 7.6268 21.601 7.6268C21.6251 7.6268 21.6613 7.60545 21.6733 7.57341C21.6733 7.54138 21.613 7.48799 21.6372 7.45595C21.6733 7.40256 21.7698 7.40256 21.818 7.34917C21.8662 7.29578 21.9747 7.22104 21.9265 7.15697C21.8662 7.08222 21.7095 7.06086 21.613 7.10358C21.5407 7.14629 21.613 7.27443 21.5528 7.33849C21.5286 7.37053 21.5045 7.26375 21.5045 7.22104C21.5045 7.19968 21.5648 7.21036 21.5648 7.189C21.5648 7.15697 21.5407 7.12493 21.5166 7.11426C21.4322 7.08222 21.3478 7.0929 21.2634 7.0929C21.1911 7.08222 21.1067 7.08222 21.0343 7.0929C20.9982 7.10358 20.974 7.13561 20.9379 7.15697C20.9138 7.17832 20.8655 7.189 20.8655 7.22104ZM21.0946 7.02883C21.167 7.01815 21.2393 7.03951 21.2875 7.00747C21.3237 6.98612 21.3599 6.92205 21.3357 6.90069C21.2755 6.85798 21.179 6.91137 21.1187 6.87934C21.0946 6.85798 21.1911 6.78324 21.1549 6.78324C21.0826 6.78324 21.0223 6.82595 20.974 6.86866C20.9379 6.89002 20.9017 6.92205 20.9017 6.96476C20.8897 6.9968 20.9017 7.03951 20.9379 7.05019C20.962 7.06086 20.962 7.00747 20.974 6.98612C20.9982 6.96476 20.9982 6.93273 21.0343 6.92205C21.0464 6.91137 21.0826 6.93273 21.0705 6.95408C21.0705 6.98612 20.9982 7.00747 21.0102 7.02883C21.0102 7.06086 21.0705 7.02883 21.0946 7.02883ZM20.7691 7.01815C20.7209 7.02883 20.745 7.12493 20.7691 7.15697C20.7932 7.189 20.8655 7.16765 20.8655 7.14629C20.8655 7.0929 20.8294 7.00747 20.7691 7.01815Z" fill="#294292"/>
<path d="M4.5 1L5.2858 3.41844H7.8287L5.77145 4.91312L6.55725 7.33156L4.5 5.83688L2.44275 7.33156L3.22855 4.91312L1.1713 3.41844H3.7142L4.5 1Z" fill="#FFF200"/>
<path d="M33.5 1L34.2858 3.41844H36.8287L34.7714 4.91312L35.5572 7.33156L33.5 5.83688L31.4428 7.33156L32.2286 4.91312L30.1713 3.41844H32.7142L33.5 1Z" fill="#FFF200"/>
<path d="M4.5 17L5.2858 19.4184H7.8287L5.77145 20.9131L6.55725 23.3316L4.5 21.8369L2.44275 23.3316L3.22855 20.9131L1.1713 19.4184H3.7142L4.5 17Z" fill="#FFF200"/>
<path d="M33.5 17L34.2858 19.4184H36.8287L34.7714 20.9131L35.5572 23.3316L33.5 21.8369L31.4428 23.3316L32.2286 20.9131L30.1713 19.4184H32.7142L33.5 17Z" fill="#FFF200"/>
</svg>
