<svg width="100" height="70" viewBox="0 0 100 70" fill="none" xmlns="http://www.w3.org/2000/svg">
<g clip-path="url(#clip0_1_1943)">
<path d="M100 0H0V70H100V0Z" fill="white"/>
<path d="M65 0H0V45L65 0Z" fill="#1946B4"/>
<path d="M35 70H100V25L35 70Z" fill="#FF9600"/>
<path d="M70 35L57.8785 36.3892L61.0406 38.218L57.391 38.0615L60.0824 40.5314L56.5532 39.5886L64.1421 49.1421L54.5886 41.5532L55.5314 45.0824L53.0615 42.391L53.218 46.0406L51.3892 42.8785L50 55L48.6108 42.8785L46.782 46.0406L46.9385 42.391L44.4686 45.0824L45.4114 41.5532L35.8579 49.1421L43.4468 39.5886L39.9176 40.5314L42.609 38.0615L38.9594 38.218L42.1215 36.3892L30 35L42.1215 33.6108L38.9594 31.782L42.609 31.9385L39.9176 29.4686L43.4468 30.4114L35.8579 20.8579L45.4114 28.4468L44.4686 24.9176L46.9385 27.609L46.782 23.9594L48.6108 27.1215L50 15L51.3892 27.1215L53.218 23.9594L53.0615 27.609L55.5314 24.9176L54.5886 28.4468L64.1421 20.8579L56.5532 30.4114L60.0824 29.4686L57.391 31.9385L61.0406 31.782L57.8785 33.6108L70 35Z" fill="#FF9600"/>
</g>
<defs>
<clipPath id="clip0_1_1943">
<rect width="100" height="70" fill="white"/>
</clipPath>
</defs>
</svg>
