<svg width="100" height="70" viewBox="0 0 100 70" fill="none" xmlns="http://www.w3.org/2000/svg">
<path d="M0 0H25L26.0312 1.44375H73.9688L75 0H100V70H75L73.9688 68.5563H26.0312L25 70H0V0Z" fill="#D52B1E"/>
<path d="M25 0H75V70H25V0ZM50.9375 57.1458L50.4688 48.1562C50.4619 48.0084 50.4884 47.8609 50.5461 47.7247C50.6038 47.5884 50.6914 47.4668 50.8023 47.3689C50.9133 47.2709 51.0448 47.1991 51.1871 47.1587C51.3295 47.1183 51.4791 47.1103 51.625 47.1354L60.5729 48.7083L59.3646 45.375C59.3156 45.2424 59.3093 45.0977 59.3466 44.9613C59.384 44.825 59.4631 44.7037 59.5729 44.6146L69.375 36.6771L67.1667 35.6458C67.0175 35.5754 66.8992 35.4529 66.834 35.3013C66.7688 35.1498 66.7612 34.9797 66.8125 34.8229L68.75 28.8646L63.1042 30.0625C62.9512 30.0944 62.7919 30.0724 62.6533 30.0003C62.5147 29.9281 62.4054 29.8103 62.3438 29.6667L61.25 27.0938L56.8438 31.8229C56.743 31.9292 56.6105 31.9999 56.4662 32.0245C56.3218 32.0491 56.1734 32.0263 56.0431 31.9594C55.9128 31.8925 55.8078 31.7852 55.7437 31.6535C55.6795 31.5219 55.6598 31.373 55.6875 31.2292L57.8125 20.2708L54.4062 22.2396C54.3263 22.2865 54.2375 22.3164 54.1455 22.3276C54.0535 22.3388 53.9602 22.3309 53.8713 22.3046C53.7824 22.2782 53.6999 22.2338 53.6289 22.1743C53.5579 22.1147 53.4998 22.0412 53.4583 21.9583L50 15.1667L46.5417 21.9583C46.5002 22.0412 46.4422 22.1147 46.3711 22.1743C46.3001 22.2338 46.2176 22.2782 46.1287 22.3046C46.0398 22.3309 45.9465 22.3388 45.8545 22.3276C45.7625 22.3164 45.6737 22.2865 45.5938 22.2396L42.1875 20.2708L44.3125 31.2292C44.3402 31.373 44.3205 31.5219 44.2563 31.6535C44.1922 31.7852 44.0872 31.8925 43.9569 31.9594C43.8266 32.0263 43.6782 32.0491 43.5338 32.0245C43.3895 31.9999 43.257 31.9292 43.1562 31.8229L38.75 27.0938L37.6562 29.6667C37.5946 29.8103 37.4853 29.9281 37.3467 30.0003C37.2081 30.0724 37.0488 30.0944 36.8958 30.0625L31.25 28.8646L33.1875 34.8229C33.2388 34.9797 33.2312 35.1498 33.166 35.3013C33.1008 35.4529 32.9825 35.5754 32.8333 35.6458L30.625 36.6771L40.4271 44.6146C40.5369 44.7037 40.616 44.825 40.6534 44.9613C40.6907 45.0977 40.6844 45.2424 40.6354 45.375L39.4271 48.7083L48.375 47.1354C48.5209 47.1103 48.6705 47.1183 48.8129 47.1587C48.9552 47.1991 49.0867 47.2709 49.1977 47.3689C49.3086 47.4668 49.3962 47.5884 49.4539 47.7247C49.5116 47.8609 49.5381 48.0084 49.5312 48.1562L49.0625 57.1458H50.9375Z" fill="white"/>
</svg>

